<?xml version="1.0" encoding="UTF-8"?>
<svg id="Layer_1" xmlns="http://www.w3.org/2000/svg" viewBox="0 0 2000 2000">
  <defs>
    <style>
      .cls-1 {
        fill: #b88985;
      }

      .cls-2 {
        fill: #7d2522;
      }

      .cls-3 {
        fill: #853531;
      }

      .cls-4 {
        fill: #fcf3b6;
      }

      .cls-5 {
        fill: #ba8b6f;
      }

      .cls-6 {
        fill: #761a16;
      }

      .cls-7 {
        fill: #79272d;
      }

      .cls-8 {
        fill: #a96f57;
      }

      .cls-9 {
        fill: #74171a;
      }

      .cls-10 {
        fill: #711318;
      }

      .cls-11 {
        fill: #721318;
      }

      .cls-12 {
        fill: #b98b88;
      }

      .cls-13 {
        fill: #e65325;
      }

      .cls-14 {
        fill: #e6a049;
      }

      .cls-15 {
        fill: #7c2b2f;
      }

      .cls-16 {
        fill: #c09896;
      }

      .cls-17 {
        fill: #833230;
      }

      .cls-18 {
        fill: #833331;
      }

      .cls-19 {
        fill: #e7a149;
      }

      .cls-20 {
        fill: #e8a24a;
      }

      .cls-21 {
        fill: #bd8f71;
      }

      .cls-22 {
        fill: #c59c7b;
      }

      .cls-23 {
        fill: #e6a149;
      }

      .cls-24 {
        fill: #bf9391;
      }

      .cls-25 {
        fill: #e7a148;
      }

      .cls-26 {
        fill: #7d2b2e;
      }

      .cls-27 {
        fill: #78252d;
      }

      .cls-28 {
        fill: #7a282d;
      }

      .cls-29 {
        fill: #b17e64;
      }

      .cls-30 {
        fill: #b27c62;
      }

      .cls-31 {
        fill: #7c2524;
      }

      .cls-32 {
        fill: #b2663d;
      }

      .cls-33 {
        fill: #ac603c;
      }

      .cls-34 {
        fill: #aa5e3c;
      }

      .cls-35 {
        fill: #72150f;
      }

      .cls-36 {
        fill: #b98987;
      }

      .cls-37 {
        fill: #e7a249;
      }

      .cls-38 {
        fill: #7d2b2f;
      }

      .cls-39 {
        fill: #823130;
      }
    </style>
  </defs>
  <path class="cls-3" d="M1464.35,844.91c5.83,5.07,8.38,12.22,11.58,18.87,6.47,13.45,9.89,27.75,10.54,42.68.16,3.57,1.78,5.08,5.39,5.82,6.29,1.29,12.53,3.1,17.59,7.48-.13.17-.26.33-.39.5-2.01-.33-3.73-1.25-5.47-2.29-4.04-2.41-8.56-3.47-13.21-3.9-1.32-.12-2.79-.1-3.03,1.76-.36,2.85,1.28,4.71,3.3,6.27,1.49,1.15,2.16.3,2.87-1.21,1.32-2.81,4.31-2.52,6.04-1.41,4.13,2.66,8.43,5.1,11.67,9.16,2.81,3.52,4.72,7.52,6.77,11.35,2.82,5.26,5.05,10.67,5.66,17.16.77,8.08-.81,15.87-.43,23.79.1,2.04-1.39,3.25-2.07,4.84-1.9,4.45-6.33,8.14-5.81,13.23,1.37,13.51-4.93,25.99-4.73,39.3.11,6.86-3.68,13.55-3.02,19.99,1.4,13.43-2.91,25.93-5.01,38.61-2.09,12.56-1.59,25.65-6.35,37.76-1.69,4.3-.1,9.03-1.52,13.29-3.93,11.8-2.26,24.56-6.49,36.31-2.14,5.95.26,12.74-3.07,18.53-1.92,3.34-2.38,7-1.84,10.63,1.66,11.1-4.62,21.36-3.26,32.41.09.72-.55,1.55-.87,2.31-2.65,6.34-4.67,12.8-3.96,19.83.22,2.16.14,4.37-1.11,6.29-1.72,2.64-2.08,5.56-1.9,8.61.21,3.52-.42,6.88-1.43,10.29-1.64,5.54-3.46,11.06-3.56,16.98-.15,8.91-4.57,17.34-3.12,26.47.07.42-.27.96-.54,1.36-3.73,5.68-4.7,12.11-4.22,18.62.78,10.56-4.97,20.36-3.24,30.98.09.54-.39,1.28-.79,1.77-3.76,4.56-3.99,10.08-3.98,15.53.02,9.41-4.62,18.2-3.53,27.76.14,1.19-.65,2.59-1.28,3.73-2.67,4.82-3.05,10.1-3.22,15.41-.27,8.73-4.68,16.95-3.19,25.91.07.41-.28.97-.57,1.35-4.13,5.42-4.04,12.05-4.04,18.15.01,10.21-4.89,19.77-3.36,30.07.1.69-.45,1.6-.93,2.23-2.29,2.99-2.15,5.88-.67,9.32,2.35,5.48-4.18,15-9.98,14.03-11.3-1.88-21.57,2.51-31.75,5.35-8.2,2.29-16.75,2.82-24.77,5.88-3.92,1.5-8.92.45-12.58,2.26-8.4,4.15-17.88,2.01-26.31,5.62-5.88,2.52-12.57.05-18.71,2.04-3.61,1.17-7.28,2.65-10.99,2.87-7.6.43-15,.92-22.57,2.73-10.98,2.63-22.45,2.48-33.74,4.77-12.74,2.58-26.29.89-39.49,3.34-9.68,1.8-19.84.27-29.83,1.09-13.56,1.12-27.21.18-40.85.94-12.71.72-25.55.03-38.35-.45-26.84-1.01-53.64-1.26-80.49-3.76-21.89-2.04-43.64-4.82-65.43-7.5-9.96-1.23-20.07-1.44-29.8-4.12-4.42-1.22-9.12.1-13.3-1.48-10.7-4.03-22.77-1.54-33.11-7.19-1.05-.57-2.62-.28-3.95-.23-2.69.11-5.27-.32-7.88-.95-10.68-2.57-21.47-4.71-32.04-7.64-8.87-2.46-17.92-4.33-26.87-6.06-12.37-2.39-24.05-6.82-36.09-10.09-10.9-2.96-20.96-8.54-31.94-11.67-3.18-.91-7.07-1.86-9.65-4.66-3.55-3.86-6.97-7.83-11.06-11.21-1.81-1.5-3.31-3.68-3.42-6.42-.59-14.09-2.62-28.11-2.01-42.26.08-1.82-.11-3.6-.55-5.43-2.67-10.84-4.23-21.82-3.41-33.04.31-4.19-.48-8.26-1.12-12.37-1.38-8.83-3.01-17.65-2.82-26.63.12-5.39-.32-10.75-2.21-15.68-1.93-5.04-1.85-10.07-1.82-15.19.06-11.47-3.79-22.5-3.56-34.06.07-3.45.33-7.33-1.03-10.82-4.32-11.11-4.04-23.1-5.94-34.62-2.79-16.92-6.95-33.6-8.84-50.67-.31-2.78-.81-5.62-1.75-8.23-3-8.27-4.88-17.34-5.14-25.51-.32-10.27-7.8-18.86-5.12-29.26.13-.51-.41-1.25-.76-1.81-4.49-7.23-4.1-15.9-6.27-23.77-2.59-9.37-4.86-19.08-6.79-28.76-1.53-7.69-2.9-15.46-4.91-23.07-1.44-5.43-.91-11.27-2.98-16.58-2.75-7.06-4.18-14.64-5.35-21.89-1.44-8.94-4.77-17.44-5.38-26.5-.36-5.28-3.62-10.07-3.12-15.48.36-3.9-1.64-6.74-4.07-9.83v6.16c-1.58-5.21-4.02-10.33-4.57-15.65-1.77-17.28,2.16-32.94,15.01-45.58,2.07-2.04,4.83-3.63,5.6-6.78,11.07-10.41,24.93-15.68,38.71-21.12,9.92-3.92,20.81-5.39,29.21-13.1,4.91-4.5,11.61-5.4,18.21-5.88,5.92-.43,7.84-2.6,7.84-8.07,0-14.15,8.55-25.09,22.04-29.58,10.18-3.39,20.73-4.71,31.15-6.28,11.34-1.71,21.44-5.46,30.65-12.07,6.35-2.22,12.19-5.71,18.75-7.46,1.91-.51,2.57-2.45,2.53-4.43-.06-2.65-.21-5.3-.2-7.95.03-8.06-.84-16.16.92-24.16.03,3.66.06,7.33.07,10.99.03,5.83-.11,11.67.14,17.49.09,2.12.09,5.94,2.5,5.62,3.31-.44,2.53-4.06,1.95-6.67-.5-2.27-1.07-4.54-1.88-6.7-.8-2.12-1.15-4.34-.52-6.37,2.54-8.21,3.13-16.6,2.82-25.12-.12-3.32,1.65-5.48,4.73-6.1,4.91-.98,9.97-2.35,14.73-2.7,9.65-.7,16.79-6.27,24.64-10.29,7.71-3.95,14.84-9.19,22.4-13.44,7.29-4.1,14.4-9.12,22.69-11.05,8.52-1.98,16.15-6.71,25.68-5.87,12.23,1.08,24.62.26,36.94.29,1.49,0,3.16-.21,4.43.38,11.75,5.41,24.87,7.38,35.7,15.28,6.89,5.03,14.56,9.04,20.42,15.4,3.12,3.39,4.93,7.86,8.5,10.94,2.66,3.86,5.87,5.7,10.99,6.26,9.37,1.04,17.73-3.01,26.77-3.59,17.99-1.15,35.83-3.61,53.98-1.85,13.87,1.34,27.4,3.51,40.65,7.95,7.14,2.39,12.96,6.59,18.76,10.98,6.03,4.57,11.24,10.05,16.51,15.46,2.19,2.25,4.75,2.41,7.28,1.04,2.87-1.56,5.98-2.01,9.06-2.2,13.93-.89,27.87-1.25,41.83-1.1,12.8.14,25.5,1.45,37.62,5.39,4.57,1.49,9.36,3.11,13.72,5.49,8.19,4.47,14.95,10.89,22.33,16.45,2.7,2.03,4.45,1.94,6.89-.24,9.5-8.49,21.71-11.32,33.48-13.73,14.01-2.87,27.67,2.15,39.8,8.63,14.45,7.72,22.59,21.63,29.23,36.29,2.26,4.99,3.02,10.37,4.69,15.37,2.69,8.06,2.86,16.25,4.2,24.37-2.59,1.71-4.01.76-4.5-2.05-1.09-6.24-3.81-11.98-6.48-17.55-7.29-15.2-16.85-28.91-29.43-40.29-8.5-7.68-18.98-10.68-30.07-12.12-5.77-.75-10.58,2.33-15.86,3.55-12.34,2.85-21.03,10.56-28.85,19.86-4.67,5.55-7.09,12.03-9.68,18.67-1.72,4.43-2.03,8.62-2,13.08,0,1.03.36,2.14,1.57,2.16,1.27.02,2.3-.75,2.28-2.14-.06-4.76,2.24-9.03,2.88-13.57,1.36-9.61,7.96-15.85,13.95-22.28,6.05-6.51,14.02-10.43,22.58-12.79,10.88-3,21.85-2.59,31.87,2.55,7.33,3.76,13.73,9.18,18.59,16.2,4.62,6.66,10.34,12.64,13.93,19.92,3.53,7.17,7.64,14.17,9.67,21.98,1.87,7.2,5.81,13.69,7.12,21.04,1.12,6.29.7,12.63-1.88,18.43-1.87,4.2-4.9,7.87-7.31,11.84-.83,1.36-2.1,3.05.26,4.17,1.77.84,3.11-.36,3.42-1.88.86-4.29,4.47-6.91,6.1-10.69.49-1.15,1.14-2.21,2.58-1.48,1.21.61,1.71,2,.85,2.95-3.98,4.38-2.72,10.44-5.61,15.53-5.49,9.66-11.75,18.26-20.37,25.18-9.96,8-20.15,15.73-32.14,20.41-7.21,2.81-13.53,7.32-21.04,9.66-6.98,2.17-13.91,5.06-20.5,8.06-6.72,3.06-14.06,2.36-20.69,5.95-3.94,2.14-9.2,3.8-13.91,4.37-7.4.91-13.78,5.58-21.48,5.05-1.64-.11-3.4,1.2-5.06,1.95-1.52.7-3.01,1.47-4.75,1.29-7.87-.82-14.33,4.53-21.9,5.02-7.65,2.13-15.44,3.28-23.37,3.65-4.8.22-9.73.35-14.03,2.77-2.17,1.22-4.25,1.61-6.62,1.57-17.1-.27-34.1,2.23-51,3.72-23.19,2.03-46.27,3.39-69.5,3.28-3.16-.01-6.34.06-9.48-.22-13.33-1.19-26.64-2.66-39.99-3.71-8.59-.67-17.39,1.14-25.82-1.16-8.52-2.33-17.11-1.73-25.71-1.99-3.29-.1-6.84-.14-9.78-1.38-7.91-3.34-16.11-3.51-24.42-3.54-3.49-.01-7.31.71-10.4-.45-11.16-4.19-23.13-3.04-34.6-6.01-9.95-2.58-20.45-5.47-31.18-4.61-.48.04-1.08-.04-1.44-.3-8.66-6.41-19.52-4.97-29.14-6.82-8.64-1.66-16.97-5.52-25.91-5.43-5.58.06-10.53-2.59-15.77-3.13-5.68-.58-11.15-1.18-16.39-3.55-1.93-.87-4.12-1.37-6.24-1.6-6.69-.72-12.86-4.51-19.88-3.31-.69.12-1.61-.46-2.27-.93-6.7-4.82-15.18-3.42-22.56-6.45-4.05-1.66-9.34-1.13-13.73-3.37-1.61-.82-3.45-1.3-5.33-1.03-8.38,1.18-15.93-2.97-23.51-4.94-10.2-2.66-20.74-5.7-30.17-11.25-6.75-3.97-13.89-7.44-17.75-14.6-5.23-9.71-10.48-19.56-7.9-31.31.23-1.07-.25-2.05-1.3-2.42-1.18-.42-1.89.39-2.26,1.38-.95,2.51-1.01,5.05-1,7.77.02,6.72,3.36,12.66,3.84,19.21-4.72-8.02-6.24-16.69-4.57-25.76,1.16-6.32.43-7.4-5.5-6.07.58-1.26,1.51-2.18,2.73-2.8.8-.4,2.29-.32,1.72-1.8-.54-1.43-1.88-1.48-2.88-.62-2.43,2.09-5.74,2.2-8.3,4.24-7.09,5.63-13.21,12.07-18.34,19.52-9.27,13.46-9.84,25.15,0,38.91,7.61,10.65,17.1,18.76,28.66,25.33,11.41,6.49,23.41,11.84,34.69,18.54,2.53,1.5,5.71,3.67,8.55,3.46,7.25-.54,11.82,5.38,18.32,6.72,2.65.54,5.85.83,8.4,2.36,9.39,5.63,20.58,6.49,30.23,11.52,8.42,4.39,18.63,2.75,26.98,7.95,6.71,4.17,15.07,3.5,22.3,7.24,8.59,4.45,18.81,4.65,28.11,7.96,7.87,2.8,16.24,6.09,25.17,4.55.74-.13,1.75.11,2.36.55,6.99,5.12,15.87,5.13,23.57,6.59,9.94,1.89,19.63,5.8,29.97,5.83,3.68,0,6.67,2.93,10.46,2.97,6.59.06,12.9.69,19.49,2.5,10.23,2.82,21.16,3.78,31.7,4.97,17.34,1.95,34.94,1.7,52.47,3.03,25.83,1.95,51.91.58,77.88.48,8.62-.03,17.28.75,25.85-.96,4.2-.84,8.22-2.48,12.69-2.05,20.72,2.02,41.07-2.05,61.2-5.54,9.73-1.69,19.74-2.89,29.5-5.36,7.95-2.01,15.65-6.56,24.43-5.2,1,.16,2.16-.72,3.25-1.1,7.1-2.48,14.76-3.19,21.51-6.78,8.17,2.08,15.27-2.8,22.25-5.02,6.1-1.94,12.8-3.19,18.72-6.33,4.82-2.56,10.61-3.52,15.41-5.56,9.16-3.89,18.68-6.5,27.98-9.77,3.7-1.3,6.53-4.46,9.98-4.92,4.78-.64,8.86-2.97,12.72-4.9,9.96-4.98,20.11-9.58,30.2-14.28,2.92-1.36,5.17-3.53,8.03-4.89,9.93-4.71,18.75-11.28,27.88-17.29,9.98-6.57,18.5-14.93,25.78-24.53,6.92-9.12,11.89-18.85,12.04-30.68.06-4.87-2.14-9-3.02-13.53-1.61-8.28-6.45-14.76-11.49-21.14-1.16-1.47-2.63-2.88-4.96-1.5,1.66,2.86,4.61,4.79,4.38,8.36-1.26-1.72-2.43-3.52-3.8-5.16-1.38-1.65-2.91-3.61-5.39-2.56-2.68,1.14-1.65,3.53-1.39,5.64,1.12,8.98.78,17.78-3.42,26.07-.23-3.52,1.28-6.8,1.53-10.22.55-7.73,2.71-15.57-2.7-22.82-1.97-2.64-2.5-6.38-3.56-9.66-.5-1.54-.41-3.03,1.74-3.3,2.63.86,4.31.25,3.94-2.86-.58-4.9-1.3-9.78-1.96-14.66-1.62-11.98-5.44-23.24-11.14-33.88-2.61-4.88-5.16-9.79-7.74-14.68ZM1110.51,1562.81c23.79,1.03,46.8-1.89,69.91-2.02,4.75-.03,9.63-.32,14.38-.97,16.28-2.24,32.8-1.06,49.07-3.69,10.61-1.71,21.38-2.42,32.03-3.87,8.69-1.18,17.32-2.79,25.98-4.22,13.06-2.15,26.33-3.5,39.14-6.66,19.77-4.88,40.04-7.26,59.72-12.47,4.57-1.21,7.81-2.67,8.85-8.41,3.99-22,7.37-44.08,10.8-66.16,2.99-19.31,6.59-38.52,9.98-57.77,1.92-10.93,4.1-21.81,5.9-32.76,2.4-14.54,4.47-29.13,6.83-43.67,2.17-13.39,4.33-26.77,7.02-40.08,3.05-15.08,5.21-30.34,7.84-45.51,2.38-13.71,5.59-27.32,7.14-41.12,2.33-20.79,6.74-41.18,10.5-61.7,2-10.91,4.34-21.78,6.42-32.66,2.82-14.78,6.42-29.43,8.05-44.46.74-6.82,1.49-13.86,4.83-20.21.83-1.58.97-3.73-1.01-4.9-1.92-1.14-3.23.41-4.18,1.69-2.46,3.32-6.32,4.74-9.41,7.19-6.24,4.96-13.11,9.14-19.91,13.13-10.08,5.93-21.3,9.88-31.62,15.44-22.01,11.85-45.96,18.76-69.17,27.43-12.88,4.81-26,9.41-39.61,12.49-19.67,4.44-39.02,10.23-58.69,14.82-20.2,4.72-40.63,7.73-61.15,10.16-13.31,1.57-26.63,3.23-39.99,4.5-17.18,1.64-34.38,2.87-51.57,3.47-34.4,1.2-68.81.04-103.1-3.01-8.56-.76-17.15-1.41-25.69-2.54-10.99-1.46-21.96-3.33-33.01-4.14-15.09-1.11-29.91-3.85-44.61-7-12.74-2.73-25.47-5.75-38.17-8.63-12.89-2.92-25.6-6.6-38.54-9.37-14.37-3.08-28.48-7.85-42.3-12.97-18.97-7.01-38.53-12.24-57.1-20.55-11.7-5.24-23.64-10.19-35.74-14.67-12.15-4.5-24.11-10.17-34.44-18.46-1.34-1.08-2.89-2.28-4.44-.99-1.48,1.21-.88,3.07-.14,4.61,1.07,2.24,2.62,4.32,3.29,6.66,4.88,17.15,9.35,34.41,14.43,51.5,5.39,18.12,10.12,36.39,13.23,55.04,1.96,11.77,4.86,23.34,7.23,35.02,3.75,18.49,7.16,37.05,10.64,55.6,1.92,10.25,4.72,20.48,5.24,30.81.49,9.87,2.68,19.37,3.86,29.07,1.78,14.62,4.49,29.12,6.44,43.72,1.64,12.31,2.73,24.72,4.41,37,2.55,18.72,4.78,37.49,6.27,56.27,1.44,18.17,3.93,36.35,3.29,54.66-.11,3.07,1.28,4.86,4.06,5.35,10.94,1.93,21.48,5.51,32.37,7.76,12.29,2.54,24.17,7,36.35,10.18,20.36,5.31,40.41,11.74,61.21,15.39,13.53,2.37,26.75,6.53,40.3,8.68,18.95,3,37.84,6.43,56.92,8.75,11.81,1.44,23.63,3.65,35.47,4.18,23.2,1.04,46.31,3.64,69.52,4.17,15.12.34,30.22,1.96,44.71.93ZM1143.98,1040.91c17.22.69,34.02-.05,50.78-1.13,6.12-.39,12.27-.52,18.38-1.19,11.7-1.27,23.35-3.18,35.13-3.57,8-.27,15.78-2.08,23.66-3.17,1.96-.27,3.88-1.77,3.92-3.42.15-6.29,5.16-10.61,6.15-16.55.59-3.55.62-6.38-2.3-9.01-6.47-5.81-13.63-10.41-21.33-14.48-16.05-8.48-29.53-19.44-31.67-39.19-1.06-9.74-.81-19.37,6.87-27,1.08-1.07,2.29-2.26,1.2-3.88-1.16-1.73-2.86-1.42-4.45-.61-1.18.6-2.25,1.43-3.43,2.04-15.69,8.09-31.49,7.78-47.28.37-10.82-5.07-21.41-7.11-31.73,1.17-2.46,1.97-5.05,3.84-7.8,5.36-3.88,2.14-7.5,4.66-12.1,5.56-8.14,1.6-15.86-.5-23.65-1.84-10.9-1.88-21.22-2.47-31,4.51-9.54,6.8-15.55,16.24-21.59,25.78-4.37,6.9-4.01,13.02,2.51,18.9,3.35,3.03,6.13,7.23,7.85,11.43,5.61,13.67,10.93,27.51,9.31,42.83-.37,3.48,1.68,5.21,5.16,5.19,5.16-.03,10.29.62,15.41.81,17.45.67,34.89,1.95,51.97,1.09ZM1234.32,889.85c6.34-.53,12.44,1.18,17.99,3.5,8,3.34,14.61,8.95,16.11,18.26,1.49,9.21-1.65,17.24-7.49,24.32-1.06,1.28-2.12,2.56-3.07,3.92-2.34,3.37-2.33,6.86-.05,10.21,3.41,5.01,7.65,9.1,13.05,12.03,9.16,4.98,18.53,9.65,26.15,17.04,2.76,2.67,5.28,2.2,6.88-1.66,2.92-7.05,6.07-14.01,7.59-21.59,2.84-14.16,5.41-28.4,11.63-41.64,3.56-7.57,5.78-15.68,12.56-21.6,3.18-2.78,4.68-7.33,6.1-11.73,2.75-8.56,3.97-17.48,6.72-25.98,1.44-4.45.42-7.38-3.47-8.98-11.34-4.66-22.44-9.87-34.41-13-19.81-5.18-39.94-4.47-60.01-3.71-15.42.59-29.81,5.95-42.22,14.8-14.47,10.32-23.94,24.7-27.82,42.32-.79,3.57.34,6.17,4.58,6.72,2.1.27,4.14,1.16,6.18,1.84,6.64,2.23,13.06,2.47,19.89-.06,7.4-2.75,15.11-4.87,23.13-5.02ZM1114.35,908.88c4.6.17,7.49-.97,10.14-2.83,11.29-7.91,22.6-15.76,36.74-17.84,3.83-.56,3.56-3.57,2.94-6.2-.74-3.16-.44-6.19-.24-9.37,1.03-16.38,9.77-29.1,19.73-40.99,3.84-4.58,8.33-9.12,14.33-11.31,1.61-.58,3.25-1.07,3.39-3.14.15-2.19-1.37-3.19-3.02-4.15-3.16-1.84-6.18-3.94-9.41-5.62-7.92-4.11-15.54-9.47-24.64-10.22-14.16-1.16-28.21-3.88-42.6-2.45-15,1.49-30.16,1.53-45.02,4.32-13.5,2.53-27.38,3.7-40.15,9.12-10.86,4.62-19.07,12.03-20.87,24.6-.45,3.15-.59,6.26,3.44,7.08,5.68,1.16,11.38,2.66,17.13,3,16.8,1.01,29.91,8.59,40.79,21.05,6.96,7.97,9.86,16.48,6.77,26.99-1.9,6.48-4.69,12.33-8.67,17.7-1.06,1.43-2.76,3.07-.95,4.77,1.48,1.39,3.05,0,4.44-.94,8.49-5.78,17.8-6.74,27.66-4.74,3.08.63,6.23.9,8.07,1.15ZM903.82,910.81c.32,6.32,3.06,13.04,9.52,15.51,6.09,2.33,12.11,5.45,18.75,6.35,3.61.49,7.68,1.73,10.64-.71,8-6.59,16.57-5.3,25.44-2.93,9.17,2.45,17.72,6.51,26.57,9.8,8.4,3.12,16.86,5.75,24.23,11.1,2.83,2.05,5.2.45,5.41-3.52.21-4.19,1.14-8.14,2.42-12.13,4.51-14.09,12.42-26.25,20.98-38.09,1.65-2.28,3.01-4.79,4.74-7.01,3.06-3.92,1.78-7.05-1.41-10.02-2.09-1.94-4.41-3.41-7.1-4.45-6.45-2.49-13.28-2.86-20.01-3.64-12.04-1.4-23.27-4.29-32.69-12.67-7.04-6.26-14.77-11.47-23.53-15.47-11.62-5.31-21.22-2.06-29.45,5.9-12.06,11.66-21.35,25.33-28.8,40.31-3.28,6.6-5.16,13.56-5.69,21.67ZM901.29,951.96c-9.53-.05-16.3,1.86-23.24,6.79-13.55,9.62-23.63,22.15-30.48,37.26-2.5,5.53-.97,7.64,4.96,8.97,16.98,3.81,34.19,6.31,51.27,9.57,23.93,4.56,47.83,9.39,71.87,13.26,20.43,3.29,40.89,6.74,61.64,7.75,3.94.19,5.3-1.42,5.1-4.8-.79-13.38-3.96-25.9-13.59-35.95-12.05-12.58-26.97-20.74-42.67-27.66-8.35-3.68-17.63-4.67-25.93-8.63-1.83-.87-3.95-.78-5.83.11-11.75,5.59-23.02,4.14-34.41-1.5-6.03-2.99-12.3-6.07-18.71-5.17ZM968.71,751.97c-6.74-.22-13.27,1.11-19.69,2.74-18.55,4.7-34.16,15.85-51.11,24-12.03,5.79-23.81,11.67-37.4,12.26-4.56.2-6.68,2.91-7.58,6.64-1.99,8.24-3.26,16.6-3.4,25.11-.05,2.94,1.18,4.69,4,5.47,16.16,4.49,28.47,14.42,38.51,27.5,2.3,3,4.28,2.35,5.41-.75.99-2.72,2.41-5.12,4.11-7.36,10.93-14.42,23.2-27.32,40.25-34.59,8.91-3.8,18.13-5.26,27.73-3.18,10.09,2.2,18.35,7.48,25.26,15.03,1.13,1.24,2.35,2.6,4.25,1.99,2.23-.72,1.45-2.75,1.41-4.28-.2-8,3.4-14.48,8.35-20.24,6.49-7.54,14.42-13.14,23.71-16.92,4.99-2.03,4.91-3.92.83-7.17-5.22-4.16-11.27-6.96-16.71-10.72-14.42-9.98-30.49-14.88-47.92-15.54ZM1409.94,841.18c-13.79,1.34-27.13,4.84-37.49,16-8.23,8.87-10.95,19.82-13,31.1-.61,3.37,1.85,4.68,5.01,4.63,13.51-.21,22.81,7.11,31.37,16.63,7.66,8.51,14.92,17.43,23.95,24.7,6.64,5.34,14.97,7.08,22.01,11.46,6.13,3.82,14.01,4.31,19.07,10.33,1.78,2.11,3.85.76,4.56-1.47.93-2.96,3.04-5.12,4.5-7.7,4.45-7.85,7.88-16.41,5.12-25.15-7.26-22.94-14.93-45.72-31.66-64.2-9.04-9.98-19.82-15.18-33.44-16.33ZM840.99,853.83c-4.74-.44-9.93,2.09-14.78,5.46-8.88,6.18-18.34,9.67-29.48,10.09-10.7.4-21.55-.14-32.2,2.44-6.82,1.65-11.73,5.19-15.13,11.05-3.36,5.77-2.44,8.81,3.34,12.14,1.58.91,3.15,1.85,4.69,2.83,12.73,8.13,25.85,13.36,41.23,7.33,5.84-2.29,11.71-.82,17.15,2.36,17.14,10,26.52,25.42,31.23,44.2.45,1.79-.15,4.39,2.41,5.04,2.68.68,3.31-1.93,4.24-3.47,7.35-12.15,18.8-18.68,31.57-23.47,3.1-1.16,4.55-3.48,2.29-6.14-7.16-8.42-7.05-17.82-4.48-27.71.47-1.81.93-3.76-.5-5.22-7.49-7.64-10.73-18.34-18.81-25.6-6.23-5.59-12.17-11.37-22.76-11.32ZM823.68,974.74c-.57-14.41-3.21-28-14.9-38.14-3.85-3.34-7.81-4.68-13.16-4.03-8.71,1.07-17.58,4.41-26.33-.28-6.13-3.29-12.39-6.33-18.17-10.27-13.51-9.22-37.84-9.12-48.74,4.92-4.27,5.5-7.8,11.42-10.92,17.72-2.38,4.81-1.65,7.9,1.78,11.48,11.98,12.5,27.68,17.87,43.52,22.8,14.25,4.44,28.94,7.14,43.62,9.83,11.72,2.15,23.36,4.76,34.87,7.9,3.42.93,6.05.66,6.58-4.08.66-5.93,2.03-11.78,1.84-17.86ZM1358.56,921.86c-6.21.15-9.72,3.61-11.33,7.95-2.76,7.41-4.89,15.13-5.89,23.04-2.25,17.89-8,34.24-21.49,46.84-4.48,4.18-9.45,7.5-6.73,14.78.28.76-.56,1.88-.68,2.86-.21,1.79-.71,3.79,1.11,5.04,1.56,1.08,3.16.32,4.73-.32,10.59-4.37,21.76-7.14,32.78-9.84,12.5-3.07,24.35-7.73,36.08-12.5,14.38-5.84,29.27-10.64,42.94-18.26,2.28-1.27,5.83-1.47,5.68-4.54-.15-3.22-3.95-2.8-6.25-3.89-10.58-4.99-21.94-8.76-30.67-16.93-8.48-7.94-16.33-16.56-24.76-24.57-4.62-4.39-9.26-9.15-15.52-9.65Z"/>
  <path class="cls-16" d="M636.71,933.02c-.77,3.16-3.52,4.74-5.6,6.78-12.85,12.64-16.78,28.29-15.01,45.58.55,5.32,2.99,10.44,4.57,15.65,0,0,0-.02,0-.02.27,5.81.6,11.61,2.94,17.07l-.02-.03c1.16,8.48,2.38,16.94,4.99,25.13-.03.3.03.57.19.83.27,4.5.53,9.01,2.86,13.06l-.02-.03c.17,3.43.12,6.91,2.07,9.97h0c.98,4.67.61,9.63,3,14h0c.49,5.49.04,11.15,2.84,16.24-.47,4.3,1.73,7.95,2.83,11.87.61,3.06-.13,6.45,2.18,9.11-.03.28.04.54.21.77.26,4.22.41,8.47,2.82,12.19.2,2.74.76,5.4,1.75,7.96,1.25,3.2.64,6.84,2.32,9.94-.21,1.18.47,2.03,1.08,2.9.4,4.81.84,9.6,2.91,14.07l-.02-.03c.28,2.81-.12,5.79,1.96,8.17,1.09,3.94.7,8.23,2.82,11.92.82,6.69.19,13.62,3.23,19.95l-.02-.03c.31,4.07.65,8.13,2.06,12.01,1.27,3.6.59,7.68,2.72,11.07,1.31,5.92.33,12.26,3.32,17.86h0c.35,4.42.66,8.83,1.92,13.1.01,1.07-.19,2.2.8,3,.61,3.67-.3,7.66,2.22,10.95v-.02c.44,5.06.7,10.15,1.96,15.1-.09,1.72-.46,3.49.71,5.03,1.16,4.56.64,9.41,2.33,13.88v-.02c.96,7.4,1.93,14.79,2.9,22.19-.06.28-.03.54.1.8.09,1.82.02,3.68.31,5.47,1.23,7.48.17,15.23,2.7,22.55h0c.37,5.71.64,11.43,1.96,17.04l-.02-.03c.58,8.4,1.16,16.8,2.99,25.05l-.02-.03c.79,6.99.59,14.08,2.04,21.01l-.02-.03c-.65,7.02,1.14,13.85,1.71,20.78.45,5.41-.49,10.95,1.31,16.25v-.03c-.39,8.16,1.3,16.18,1.72,24.29.25,4.91-.56,9.96,1.26,14.75l-.02-.03c.33,4.72-.86,9.66,2.08,13.99,5.54,5.75,11.05,11.53,16.65,17.23.76.77,1.9,1.25,2.96,1.64,10.38,3.78,20.78,7.5,31.18,11.24,2.58,1.34,5.22,2.53,8.09,3.12,2.32.61,4.65,1.22,6.97,1.83,2.89,1.45,5.86,2.63,9.11,2.96h-.02c3.45,1.76,7.02,3.08,10.97,3.09l-.03-.03c7,3.22,14.67,3.43,22.05,4.97l-.03-.02c3.89,1.5,7.83,2.79,12.05,2.9.25.15.52.21.81.16,6.81,2.68,13.94,4,21.17,4.92h-.02c4.26,1.34,8.45,3.01,13.03,2.93l.4.15h.43c3.21,1.34,6.65,1.66,10.05,2.18,1.52,1.17,3.3.68,4.99.78,3.24,1.33,6.59,2.1,10.11,1.94l.41.11.43-.03c4.93,1.59,9.96,2.63,15.14,2.94h-.02c12.11,3.27,24.63,3.58,36.99,5.04l-.03-.02c6.88,1.94,13.85,3.26,21.05,3l.41.09.42-.04c4.96,1.33,9.99,2.1,15.15,1.94h-.02c5.9,1.69,12.03,1.91,18.07,2.37,16.31,1.24,32.52,3.92,48.94,3.64l.43.08.44-.06c6.46,1.93,13.18,1.21,19.74,1.54,35.88,1.78,71.79,1.81,107.67,0,5.56-.28,11.29.28,16.74-1.56l.45.06.45-.08c16.11.46,31.97-2.33,47.95-3.61,5.71-.46,11.52-.56,17.07-2.37l-.02.02c5.43,0,10.77-.63,16.03-2l-.03.02c7.17.15,14.04-1.85,21.02-3.02l-.03.02c3.52.34,6.91-.57,10.3-1.19,8.24-1.5,16.84-.63,24.82-3.78l.42.03.41-.09c5.18-.19,10.22-1.08,15.06-2.98l-.03.02c5.17-.21,10.12-1.48,15.02-3.03l-.03.02c3.18,0,6.24-.58,9.13-1.98,1.72.14,3.39.05,4.83-1.09,2.87.11,5.5-.77,8.06-1.94l-.03.02c7.21-.93,14.41-1.93,21.13-4.98,1.72.12,3.39.03,4.82-1.11,2.76-.26,5.48-.7,7.97-2.03h.02c3.7-.65,7.34-1.39,11.17-.4,2.04.52,4.25,0,6.03-1.45,1.05-1.03,2.1-2.06,3.14-3.09.64.03,1.28.06,1.92.09-1.76,4.26-5.36,6.25-9.54,5.8-8.1-.87-15.46,1.9-22.97,3.81-27.72,7.04-55.58,13.71-83.84,17.74-27.61,3.94-55.26,7.72-83.01,10.82-53.24,5.93-106.6,6.66-160.02,5.53-26.58-.56-53.08-3.04-79.58-5.5-28.48-2.64-56.76-6.84-85.06-10.69-22.34-3.05-44.5-7.84-66.51-12.99-20.7-4.84-41.51-9.29-62.04-14.8-16.2-4.34-31.98-10.22-47.57-16.49-2.77-1.12-5.61-2.08-8.46-3-4.08-1.32-7.36-3.57-9.96-7.11-1.85-2.51-4.13-4.89-6.67-6.68-4.98-3.52-7.79-7.96-8.14-14.12-.3-5.31-1.16-10.58-1.45-15.89-1.15-20.4-2.48-40.78-4.89-61.08-.53-4.45-.69-8.96-.92-13.44-.86-17.26-3.68-34.33-5.72-51.45-2.3-19.26-3.35-38.67-6.81-57.81-3.33-18.43-5.69-37.04-9.03-55.47-2.84-15.65-5.67-31.32-9.69-46.74-1.73-6.61-1.06-13.53-2.9-20.21-3.26-11.83-5.87-23.83-8.66-35.79-3.62-15.49-7.33-30.95-10.67-46.5-2.99-13.92-5.1-28.04-8.39-41.88-3.72-15.65-7.1-31.4-9.61-47.24-1.64-10.35-5.59-20.12-6.28-30.63-.93-14.07,2.93-26.65,11.49-37.65,3.11-4,6.63-7.86,11.04-10.65Z"/>
  <path class="cls-2" d="M1464.35,844.91c2.58,4.9,5.13,9.81,7.74,14.68,5.7,10.64,9.52,21.9,11.14,33.88.66,4.89,1.39,9.77,1.96,14.66.37,3.11-1.31,3.72-3.94,2.86-.95-1.55-1.09-3.26-1.01-5.01-1.35-8.12-1.51-16.31-4.2-24.37-1.67-5-2.43-10.38-4.69-15.37-6.64-14.67-14.78-28.58-29.23-36.29-12.13-6.48-25.78-11.5-39.8-8.63-11.76,2.41-23.97,5.24-33.48,13.73-2.44,2.18-4.19,2.27-6.89.24-7.38-5.56-14.13-11.98-22.33-16.45-4.36-2.38-9.15-4-13.72-5.49-12.12-3.94-24.82-5.26-37.62-5.39-13.96-.15-27.91.21-41.83,1.1-3.08.2-6.19.64-9.06,2.2-2.52,1.37-5.09,1.21-7.28-1.04-5.27-5.4-10.49-10.89-16.51-15.46-5.8-4.39-11.62-8.59-18.76-10.98-13.25-4.43-26.78-6.6-40.65-7.95-18.15-1.76-35.99.7-53.98,1.85-9.05.58-17.4,4.63-26.77,3.59-5.12-.57-8.33-2.4-10.99-6.27,1.41-.05,1.99-.91,2.12-2.21.96,1.05,1.93,2.11,2.89,3.16,3.33,1.62,6.67,1.58,10,0l.39-.11h.4c3.8-.25,7.94,1.46,11.21-1.9,3.01.09,6.01.18,8.87-1.04,5.48.28,10.85-.41,16.11-1.92.62-.03,1.24-.06,1.85-.09,10.1.79,20.1-1.48,30.18-.97l-.03-.02c3.55,2.16,7.43.7,11.15.98.61.03,1.22.06,1.83.09,3.92,1.6,8.13,1.37,12.22,1.88,1.71,1.47,3.77,1.1,5.76,1.08,2.77,3.2,6.53,1.68,9.88,2.07,6.18,3.45,13.53,4.43,19.13,9.12,2.31,1.38,4.28,3.43,7.16,3.71,0,0-.08-.06-.08-.06,2.65,3.48,5.94,6.2,9.82,8.22.36.35.71.69,1.07,1.04,4.21,7.68,3.91,10.15,14.54,8.11,5.34-1.02,10.78-1.88,16.2-2.05,12.72-.39,25.36-1.52,38.2-.33,19.62,1.82,38.71,4.42,55.1,16.6.71.53,1.88.44,2.84.63,1.35.98,2.7,1.96,4.06,2.95,1.18,1.38,2.29,2.83,3.57,4.12,5.36,5.44,8.05,5.45,13.76.06,1.83-1.73,3.8-3.27,6.17-4.1,13.02-4.51,26-9.34,40.2-6.05,9.52,2.2,18.92,4.32,27.22,10.16,6.87,4.83,12.24,11.05,18.14,16.8l-.03-.04Z"/>
  <path class="cls-24" d="M1517.25,928.99c5.14,4.95,8.08,11.39,10.5,17.77,3.32,8.73,4.24,18.01,2.75,27.45-.63,3.99-1.26,8.23-3.25,11.42-6,9.63-7.34,20.24-7.66,31.06-.47,15.52-4.47,30.55-5.79,45.94-.74,8.6-1.1,17.33-2.92,25.72-2.99,13.8-4.91,27.76-6.83,41.68-1.75,12.64-4.25,25.15-6.23,37.74-1.98,12.56-3.67,25.23-6.61,37.68-2.29,9.68-2.86,19.68-4.01,29.57-.88,7.55-2.74,14.99-4.12,22.48-1.11,6.02-2.14,12.06-3.21,18.09-2.7,15.17-5.71,30.3-8.02,45.53-2.88,19.02-6.7,37.88-8.99,57.02-1.32,11.06-2.88,22.31-6.5,33.03-.15-1.08.13-2.27-.75-3.18,1.53-11.02,3.01-22.05,5.75-32.86,1.45-4.6,1.3-9.41,1.82-14.13.24-6.1,1.32-12.05,3.19-17.86,1.39-3.93,1.14-8.11,1.91-12.13.67-8.08,1.72-16.09,4.08-23.87.63-3.04,1.26-6.09,1.89-9.13.35-3.04-.58-6.22.97-9.14,2.02-2.64,2.29-5.7,2.09-8.86.09-.28.11-.56.06-.85,1.41-3.59.93-7.48,1.8-11.16,2.42-11.21,2.96-22.77,6.2-33.84,1.54-5.62,1.15-11.45,1.83-17.16,1.02-5.28.07-10.95,3.19-15.81,1.36-3.95,1.15-8.14,1.89-12.19.14-2.01-.21-4.1,1.04-5.92.66-4.03,1.32-8.05,1.98-12.08.35-2.3.69-4.59,1.04-6.89.64-3.37,1.27-6.75,1.91-10.12-.04-6.48,1.25-12.73,3.07-18.9.62-4.03,1.24-8.07,1.86-12.1.59-3.01-.54-6.22,1.03-9.12,1.84-3.05.6-6.74,2.01-9.88.15-.24.21-.5.18-.78,1.49-4.28,1.17-8.83,1.93-13.22.05-2-.3-4.07,1.03-5.84,1.26-3.96,1.5-8.06,1.82-12.16.15-.26.21-.54.18-.84,1.44-4.3.68-8.76.94-13.14v.02c1.43-4.21,1.32-8.67,2.03-13l-.02.02c1.14-7.33,3.32-14.53,2.99-22.06.1-.28.11-.57.03-.86,1.48-6.63.92-13.45,1.87-20.14.15-.26.2-.54.15-.84.96-3.05,1.92-6.11,2.88-9.16,1.72-4.26,3.43-8.53,5.15-12.79,2.97-9.04,2.87-18.07-.18-27.07-1.99-7.65-6.34-14.21-9.85-21.15-.03-.67-.05-1.33-.08-2Z"/>
  <path class="cls-12" d="M1206.41,785.14c-5.59-4.68-12.95-5.66-19.13-9.12-3.1-1.59-6.53-1.68-9.88-2.07-1.99.02-4.05.39-5.76-1.08-3.81-2.35-8.07-1.75-12.22-1.88-.61-.03-1.22-.06-1.83-.09-3.61-1.5-7.44-.56-11.14-.98,0,0,.03.02.03.02-10.14-2.04-20.15-.06-30.18.97-.62.03-1.24.06-1.85.09-5.45-.02-10.9-.03-16.11,1.92-2.85,1.21-5.86,1.12-8.87,1.04-3.84.05-7.6.52-11.21,1.91h-.4s-.39.09-.39.09c-3.33,0-6.67,0-10,0-.96-1.05-1.93-2.11-2.89-3.16-2.07-3.19-3.85-6.62-6.27-9.52-12.78-15.29-29.87-23.9-48.21-30.33-16.64-5.83-33.97-5.54-51.28-5-5.65.18-11.17.73-16.72,2.2-10.36,2.74-19.86,7.43-29.52,11.83-.73-.02-1.45-.05-2.18-.07,14.85-8.98,30.63-14.9,48.17-16.12,18.48-1.28,36.59.08,54.13,6.11,15.88,5.46,30.2,13.73,42.58,25.24,4.22,3.93,6.71,9.07,10.11,13.57,2.69,3.57,5.68,4.34,9.96,3.61,20.65-3.53,41.38-6.49,62.4-6.55,14.69-.04,29.15,1.82,43.47,5.02,9.9,2.22,19.47,5.13,27.23,12.14-.67.06-1.35.12-2.02.18Z"/>
  <path class="cls-1" d="M1455.59,1407.98c.88.91.6,2.09.75,3.18-.96,11.57-3.53,22.88-5.61,34.27-2.28,12.53-4.32,25.11-6.37,37.69-2.2,13.53-4.37,27.07-6.39,40.63-.75,5.04-2,10.01-.84,15.27,1.18,5.4-.99,10.08-4.6,14.11-.64-.03-1.28-.06-1.92-.09,1.21-2.03,2.42-4.07,3.63-6.1,1.55-1.54,1.98-3.53,1.56-5.49-.96-4.47-.48-8.95-.48-13.43v.02c1.13-3.25,2.1-6.53,1.95-10.04.04-.62.07-1.23.11-1.85,1.65-3.54.38-7.58,1.92-11.14h0c1.58-3.22.8-6.65.92-10.01,1.59-9.98,2.4-20.09,5.15-29.87.61-3.38,1.22-6.76,1.82-10.14,2.42-11.56,2.96-23.45,6.16-34.87,1.51-3.22.66-6.84,1.77-10.13.16-.67.31-1.34.47-2.01Z"/>
  <path class="cls-36" d="M910.39,741.94c.73.02,1.45.05,2.18.07-15.01,9.22-29.82,18.81-46.01,25.94-6.68,1-13.36,2.01-20.04,3.01-3.46,1.4-7.57,2.07-8.01,6.95-1.13,4.96-2.09,9.94-1.99,15.07v-.04c-1.76,8-.9,16.09-.92,24.16,0,2.65.14,5.3.2,7.95.05,1.98-.61,3.92-2.53,4.43-6.56,1.75-12.4,5.23-18.75,7.46,4.03-4.28,9.49-5.99,14.81-7.59,4.46-1.34,5.6-3.82,5.16-8.09-1.44-13.98-.54-27.88,1.92-41.7,1.15-6.48,4.7-10.51,11.18-10.61,16.38-.24,29.98-7.65,43.4-15.85,6.36-3.88,12.91-7.44,19.38-11.14Z"/>
  <path class="cls-3" d="M1351.26,821.01c-.96-.2-2.13-.1-2.84-.63-16.39-12.17-35.48-14.78-55.1-16.6-12.83-1.19-25.48-.06-38.2.33-5.42.17-10.86,1.03-16.2,2.05-10.63,2.04-10.33-.43-14.54-8.11,1.17-.03,1.99.8,2.33,1.61,2.52,6,7.42,5.9,12.55,4.92,21.44-4.08,43.1-4,64.59-1.59,17.07,1.92,34.05,5.62,47.41,18.02Z"/>
  <path class="cls-3" d="M1464.38,844.95c-5.9-5.75-11.27-11.96-18.14-16.8-8.3-5.85-17.71-7.96-27.22-10.16-14.21-3.29-27.18,1.54-40.2,6.05-2.38.82-4.34,2.37-6.17,4.1-5.72,5.39-8.4,5.38-13.76-.06-1.27-1.29-2.38-2.75-3.57-4.12,2.43-.1,3.27,2.08,4.57,3.41,3.45,3.54,6.84,3.34,10.65.63,16.62-11.81,34.77-15.05,54.67-10.46,15.09,3.48,26.98,11.52,36.72,23.19,1.03,1.23,2.41,2.37,2.45,4.22Z"/>
  <path class="cls-3" d="M1517.25,928.99c.03.67.05,1.33.08,2-3.64-2.9-4.63-7.84-8.28-10.74.13-.17.26-.34.39-.5,4.09,1.82,5.16,6.2,7.8,9.24Z"/>
  <path class="cls-3" d="M1223.32,797.01c-3.88-2.02-7.17-4.73-9.82-8.22,3.95,1.93,7.52,4.31,9.82,8.22Z"/>
  <path class="cls-3" d="M1206.41,785.14c.67-.06,1.35-.12,2.02-.18,1.85,1.11,4.09,1.72,5.14,3.89-2.89-.27-4.85-2.33-7.16-3.71Z"/>
  <path class="cls-13" d="M1110.51,1562.81c-14.49,1.03-29.58-.59-44.71-.93-23.21-.53-46.32-3.13-69.52-4.17-11.84-.53-23.66-2.74-35.47-4.18-19.08-2.32-37.97-5.75-56.92-8.75-13.55-2.15-26.78-6.31-40.3-8.68-20.8-3.65-40.86-10.08-61.21-15.39-12.18-3.17-24.06-7.63-36.35-10.18-10.89-2.25-21.42-5.83-32.37-7.76-2.78-.49-4.17-2.28-4.06-5.35.64-18.31-1.85-36.49-3.29-54.66-1.49-18.78-3.71-37.55-6.27-56.27-1.67-12.28-2.77-24.69-4.41-37-1.94-14.6-4.66-29.1-6.44-43.72-1.18-9.69-3.37-19.2-3.86-29.07-.52-10.33-3.32-20.56-5.24-30.81-3.48-18.55-6.89-37.11-10.64-55.6-2.37-11.68-5.26-23.24-7.23-35.02-3.11-18.65-7.84-36.91-13.23-55.04-5.08-17.09-9.55-34.35-14.43-51.5-.67-2.34-2.22-4.43-3.29-6.66-.74-1.55-1.34-3.4.14-4.61,1.56-1.28,3.1-.08,4.44.99,10.33,8.29,22.3,13.96,34.44,18.46,12.11,4.49,24.04,9.44,35.74,14.67,18.57,8.31,38.13,13.54,57.1,20.55,13.82,5.11,27.93,9.89,42.3,12.97,12.94,2.77,25.65,6.45,38.54,9.37,12.7,2.88,25.43,5.9,38.17,8.63,14.7,3.15,29.52,5.9,44.61,7,11.04.81,22.01,2.68,33.01,4.14,8.54,1.13,17.13,1.78,25.69,2.54,34.29,3.05,68.7,4.21,103.1,3.01,17.19-.6,34.4-1.83,51.57-3.47,13.36-1.28,26.68-2.93,39.99-4.5,20.52-2.43,40.95-5.44,61.15-10.16,19.66-4.59,39.02-10.37,58.69-14.82,13.61-3.08,26.73-7.67,39.61-12.49,23.21-8.67,47.16-15.59,69.17-27.43,10.32-5.56,21.54-9.51,31.62-15.44,6.8-4,13.67-8.17,19.91-13.13,3.09-2.45,6.94-3.87,9.41-7.19.95-1.28,2.25-2.83,4.18-1.69,1.98,1.17,1.84,3.32,1.01,4.9-3.34,6.35-4.09,13.38-4.83,20.21-1.63,15.03-5.23,29.68-8.05,44.46-2.08,10.89-4.42,21.75-6.42,32.66-3.76,20.52-8.17,40.9-10.5,61.7-1.54,13.8-4.76,27.41-7.14,41.12-2.63,15.17-4.78,30.43-7.84,45.51-2.7,13.31-4.86,26.69-7.02,40.08-2.35,14.55-4.43,29.14-6.83,43.67-1.81,10.95-3.98,21.83-5.9,32.76-3.39,19.25-6.99,38.46-9.98,57.77-3.42,22.09-6.81,44.17-10.8,66.16-1.04,5.74-4.28,7.2-8.85,8.41-19.68,5.21-39.94,7.59-59.72,12.47-12.81,3.16-26.08,4.51-39.14,6.66-8.66,1.43-17.29,3.04-25.98,4.22-10.66,1.45-21.42,2.15-32.03,3.87-16.27,2.63-32.78,1.46-49.07,3.69-4.74.65-9.63.94-14.38.97-23.11.14-46.12,3.05-69.91,2.02Z"/>
  <path class="cls-14" d="M1143.98,1040.91c-17.08.86-34.52-.42-51.97-1.09-5.13-.2-10.26-.84-15.41-.81-3.48.02-5.53-1.71-5.16-5.19,1.62-15.32-3.7-29.15-9.31-42.83-1.73-4.21-4.5-8.41-7.85-11.43-6.52-5.88-6.88-12-2.51-18.9,6.04-9.54,12.05-18.98,21.59-25.78,9.78-6.98,20.1-6.39,31-4.51,7.78,1.34,15.51,3.44,23.65,1.84,4.6-.9,8.22-3.42,12.1-5.56,2.75-1.52,5.35-3.39,7.8-5.36,10.32-8.28,20.91-6.25,31.73-1.17,15.79,7.41,31.59,7.72,47.28-.37,1.18-.61,2.25-1.44,3.43-2.04,1.59-.8,3.29-1.12,4.45.61,1.09,1.62-.12,2.81-1.2,3.88-7.68,7.63-7.92,17.27-6.87,27,2.14,19.75,15.63,30.71,31.67,39.19,7.7,4.07,14.86,8.67,21.33,14.48,2.92,2.63,2.9,5.46,2.3,9.01-.99,5.94-6,10.27-6.15,16.55-.04,1.65-1.96,3.14-3.92,3.42-7.88,1.09-15.66,2.9-23.66,3.17-11.79.39-23.43,2.31-35.13,3.57-6.11.66-12.27.79-18.38,1.19-16.76,1.08-33.56,1.82-50.78,1.13ZM1198.48,989.74c.18-1.55-.58-2.99-1.96-4.09-11.22-9-23.71-13.23-38.03-9.43-3.13.83-4.52.44-5.5-2.72-1.19-3.84-4.11-6.57-8.16-5.99-11.47,1.64-23.09,3.06-34.06,6.77-5.68,1.92-9.35,1.96-13.54-2.79-3.92-4.45-9.22-5.86-14.36.55-1.14,1.42-2.37,2.81-3.29,4.37-2.81,4.76-1.21,7.62,4.28,7.6,2.23,0,4.28-.17,5.36,2.44,1.89,4.6,5.76,5.16,9.97,4.32,2.13-.42,4.3-.45,6.39-.85,9.1-1.75,18.6-.34,27.52-3.6,2.52-.92,3.97.28,4.29,3.17,1.2,10.81,6.61,13.36,14.95,6.87,12.25-9.52,25.52-9.83,35.36-.66,2.23,2.08,5.07,1.87,7.46.63,2.3-1.2,3.38-3.59,3.32-6.59Z"/>
  <path class="cls-23" d="M1234.32,889.85c-8.03.16-15.74,2.28-23.13,5.02-6.83,2.54-13.25,2.29-19.89.06-2.04-.69-4.07-1.57-6.18-1.84-4.23-.54-5.36-3.15-4.58-6.72,3.88-17.63,13.35-32.01,27.82-42.32,12.41-8.85,26.8-14.21,42.22-14.8,20.08-.76,40.2-1.47,60.01,3.71,11.97,3.13,23.07,8.34,34.41,13,3.89,1.6,4.91,4.53,3.47,8.98-2.75,8.5-3.97,17.41-6.72,25.98-1.41,4.4-2.92,8.95-6.1,11.73-6.78,5.92-9.01,14.03-12.56,21.6-6.22,13.25-8.79,27.48-11.63,41.64-1.52,7.58-4.68,14.54-7.59,21.59-1.6,3.86-4.12,4.33-6.88,1.66-7.62-7.38-16.99-12.06-26.15-17.04-5.4-2.93-9.64-7.03-13.05-12.03-2.28-3.35-2.29-6.84.05-10.21.94-1.36,2.01-2.64,3.07-3.92,5.85-7.08,8.98-15.11,7.49-24.32-1.5-9.31-8.11-14.91-16.11-18.26-5.54-2.32-11.65-4.03-17.99-3.5ZM1250.47,856.03c-12.07-.04-19.71,4.46-22.25,11.69-1.08,3.07-.38,5.51,2.15,6.84,2.3,1.2,4.83.74,6.35-2.05,1.63-3,4.35-3.86,7.62-3.5,8.76.97,17.56,1.22,26.37,1.03,2.37-.05,4.71-.09,6.64-1.63,3.02-2.41,5.07-1.27,6.98,1.53,1.57,2.32,3.22,5.36,6.39,4.91,9.43-1.34,14.44,5.52,20.11,10.7,2.97,2.71,5.3,4.48,9,2.16,3.87-2.44,4.79-6.1,2.78-9.94-2.45-4.66-5.4-8.67-10.79-11.11-4.44-2.01-8.3-4.97-13.49-5.3-2.14-.13-3.52-2.32-4.87-4.04-1.44-1.82-3.02-3.53-4.52-5.3-1.89-2.22-4.23-2.54-6.76-1.42-10.68,4.73-21.78,6.78-31.71,5.43Z"/>
  <path class="cls-23" d="M1114.35,908.88c-1.83-.25-4.99-.52-8.07-1.15-9.86-2-19.17-1.05-27.66,4.74-1.39.95-2.96,2.33-4.44.94-1.81-1.7-.11-3.35.95-4.77,3.98-5.37,6.77-11.22,8.67-17.7,3.08-10.52.19-19.03-6.77-26.99-10.88-12.46-23.99-20.04-40.79-21.05-5.75-.34-11.44-1.84-17.13-3-4.03-.82-3.89-3.93-3.44-7.08,1.8-12.57,10.02-19.98,20.87-24.6,12.77-5.43,26.65-6.59,40.15-9.12,14.86-2.79,30.02-2.83,45.02-4.32,14.4-1.43,28.44,1.29,42.6,2.45,9.1.74,16.71,6.11,24.64,10.22,3.24,1.68,6.25,3.78,9.41,5.62,1.65.96,3.17,1.96,3.02,4.15-.14,2.07-1.79,2.55-3.39,3.14-6.01,2.19-10.5,6.73-14.33,11.31-9.96,11.9-18.7,24.61-19.73,40.99-.2,3.17-.49,6.21.24,9.37.61,2.63.89,5.64-2.94,6.2-14.14,2.07-25.45,9.92-36.74,17.84-2.65,1.86-5.54,3-10.14,2.83ZM1078.66,817.95c-9.78-.03-14.87,4.98-14.22,13.02.33,4.03,3.16,5.32,6.55,2.98,6.49-4.47,8.01-4.32,12.57,2.41,2.77,4.1,6.37,4.28,10.48,3.22,1.27-.33,2.42-1.15,3.7-1.45,17.04-3.95,34.11-4.42,51.23-.48,3.85.89,7.69.67,9.19-3.62,1.47-4.22-.49-7.06-4.63-9.08-13.07-6.4-26.89-6.64-40.88-5.46-5.24.44-10.89-.09-15.48,2.9-3.46,2.25-5.96,1.33-8.44-.92-3.21-2.92-7.08-3.32-10.07-3.53Z"/>
  <path class="cls-14" d="M903.82,910.81c.53-8.11,2.41-15.07,5.69-21.67,7.45-14.98,16.74-28.66,28.8-40.31,8.23-7.96,17.83-11.21,29.45-5.9,8.75,4,16.49,9.21,23.53,15.47,9.42,8.37,20.65,11.27,32.69,12.67,6.72.78,13.55,1.15,20.01,3.64,2.7,1.04,5.02,2.51,7.1,4.45,3.19,2.96,4.47,6.1,1.41,10.02-1.73,2.22-3.09,4.72-4.74,7.01-8.55,11.84-16.46,24-20.98,38.09-1.28,3.99-2.21,7.95-2.42,12.13-.2,3.97-2.58,5.57-5.41,3.52-7.37-5.34-15.83-7.97-24.23-11.1-8.84-3.29-17.4-7.35-26.57-9.8-8.87-2.37-17.44-3.65-25.44,2.93-2.96,2.43-7.02,1.2-10.64.71-6.65-.9-12.67-4.02-18.75-6.35-6.45-2.47-9.2-9.19-9.52-15.51ZM1006.26,905.1c3.56-.79,6.28-3.6,7.87-7.01,1.56-3.37-1.1-5.57-3.82-7.15-7.51-4.34-15.86-6.7-23.84-9.94-2.45-.99-5.28-1.56-7.84-.7-5.26,1.75-8.04-.51-10.2-5.07-2.45-5.16-6.02-5.54-10.12-1.47-1.18,1.17-2.28,2.46-3.59,3.46-1.92,1.46-4.02,2.37-6.45.93-2.51-1.49-5.19-2.28-6.65,1.12-1.34,3.13-.39,5.99,2.76,7.6,2.82,1.45,5.85,2.43,9.12,2.12,2.74-.26,4.69.65,6.25,3.1,2.24,3.52,5.56,4.66,9.85,4.21,7.94-.83,15.76-1.08,23.06,3.66,3.81,2.47,8.36,4.04,13.6,5.13Z"/>
  <path class="cls-20" d="M901.29,951.96c6.41-.91,12.68,2.18,18.71,5.17,11.38,5.64,22.66,7.09,34.41,1.5,1.88-.89,4-.99,5.83-.11,8.3,3.96,17.57,4.95,25.93,8.63,15.69,6.91,30.62,15.08,42.67,27.66,9.63,10.06,12.8,22.57,13.59,35.95.2,3.38-1.16,4.99-5.1,4.8-20.75-1.01-41.2-4.46-61.64-7.75-24.05-3.87-47.94-8.69-71.87-13.26-17.08-3.26-34.29-5.76-51.27-9.57-5.93-1.33-7.47-3.44-4.96-8.97,6.85-15.11,16.92-27.64,30.48-37.26,6.94-4.92,13.71-6.84,23.24-6.79ZM979.3,1003.11c5.69.08,10.38-3.17,10.95-7.26.49-3.48-3.14-7.01-8.46-8.24-.49-.11-.95-.31-1.44-.4-15.9-3.04-31.95-4.1-48.09-3.14-5.1.3-10.44.75-15.14,2.54-4.99,1.9-7.79.96-10.24-3.45-1.49-2.68-4.18-4.73-6.97-2.53-3.42,2.69-7.23,4.69-10.68,7.27-1.26.94-2.03,2.21-1.63,3.9.25,1.06.89,1.77,1.99,1.96,1.44.25,2.54-.56,3.7-1.2,4.78-2.64,5.14-2.4,6.43,2.64.96,3.76,3.37,6.31,7.52,5.74,12.76-1.75,25.56-.8,38.34-.93,11.49-.12,22.77,2.05,33.71,3.11Z"/>
  <path class="cls-19" d="M968.71,751.97c17.43.66,33.5,5.56,47.92,15.54,5.44,3.77,11.49,6.56,16.71,10.72,4.08,3.25,4.15,5.14-.83,7.17-9.29,3.78-17.22,9.38-23.71,16.92-4.96,5.76-8.55,12.24-8.35,20.24.04,1.53.82,3.55-1.41,4.28-1.9.62-3.12-.75-4.25-1.99-6.92-7.55-15.18-12.84-25.26-15.03-9.59-2.09-18.82-.62-27.73,3.18-17.05,7.28-29.32,20.18-40.25,34.59-1.69,2.24-3.12,4.64-4.11,7.36-1.13,3.1-3.1,3.75-5.41.75-10.04-13.08-22.35-23.01-38.51-27.5-2.82-.78-4.05-2.53-4-5.47.14-8.51,1.42-16.88,3.4-25.11.9-3.73,3.03-6.45,7.58-6.64,13.59-.59,25.37-6.47,37.4-12.26,16.96-8.16,32.56-19.3,51.11-24,6.43-1.63,12.95-2.96,19.69-2.74ZM970.1,791.97c7.15.04,14.37-3.76,17.51-8.63,1.5-2.33,1.35-4.7-.26-6.97-2.49-3.5-5.85-4.18-9.7-2.85-4.36,1.51-8.21-.11-12.46-.91-6.9-1.3-14.18-1.02-21.26-.62-2.74.15-5.44,2.24-8.1,3.61-6.31,3.23-12.53,7.74-19.89,7.24-14.24-.95-28.27,14.44-32.84,25.31-1.11,2.63.11,4.55,2.18,6.01,1.93,1.36,3.79.96,5.36-.73,1.35-1.46,2.67-2.96,3.96-4.48,5.76-6.76,12.74-10.89,21.93-10.88,6.87,0,13.47-1.15,19.29-5.42,2.3-1.69,5.12-2.3,7.62.47,2.12,2.34,5.73,3.19,7.78,1.56,6.4-5.1,12.71-7.4,18.89-2.7Z"/>
  <path class="cls-6" d="M1509.06,920.25c3.64,2.9,4.64,7.84,8.28,10.74,3.51,6.95,7.87,13.5,9.85,21.15.91,9.02,1.64,18.04.18,27.07-1.72,4.26-3.43,8.53-5.15,12.79-3.52,2.25-3.07,5.75-2.88,9.16.05.3,0,.58-.15.84-1.52,1.27-1.95,2.97-1.94,4.85.02,5.1.05,10.19.07,15.29.08.29.07.58-.03.86-1.68,7.26-3.74,14.47-2.99,22.06,0,0,.02-.02.02-.02-3.79,3.84-1.52,8.64-2.04,13,0,0,.01-.02,0-.02-2.18,4.25-.69,8.76-.94,13.14.03.3-.03.58-.18.84-3.29,3.65-1.58,8.05-1.82,12.16-1.33,1.77-.99,3.84-1.03,5.84-2.69,4.11-2.09,8.69-1.93,13.22.03.28-.03.54-.18.78-3.73,2.67-1.34,6.58-2.01,9.88-1.57,2.9-.44,6.11-1.03,9.12-3.79,3.54-1.25,8.06-1.86,12.1-1.82,6.17-3.12,12.43-3.07,18.9-3.72,2.79-1.46,6.71-1.91,10.12-.35,2.3-.69,4.59-1.04,6.89-4,3.48-1.31,8.06-1.98,12.08-1.25,1.81-.9,3.91-1.04,5.92-2.87,3.72-1.94,8.02-1.89,12.19-3.12,4.85-2.18,10.53-3.19,15.81-3.74,5.38-1.3,11.43-1.83,17.16-3.24,11.06-3.79,22.62-6.2,33.84-3.61,3.23-1.3,7.42-1.8,11.16.05.29.04.57-.06.85-1.37,2.8-1.93,5.78-2.09,8.86-1.56,2.91-.62,6.09-.97,9.14-3.48,2.45-1.59,6.02-1.89,9.13-2.36,7.79-3.41,15.8-4.08,23.87-2.84,3.7-1.91,7.99-1.91,12.13-1.87,5.81-2.95,11.76-3.19,17.86-1.78.89-1.92,2.5-1.9,4.22.05,3.3.06,6.6.08,9.91-2.74,10.81-4.22,21.84-5.75,32.86-.16.67-.31,1.34-.47,2.01-3.48,2.87-1.32,6.73-1.77,10.13-3.2,11.42-3.75,23.31-6.16,34.87-3.59,2.84-1.37,6.73-1.82,10.14-2.75,9.78-3.56,19.89-5.14,29.87-1.86,3.2-.63,6.68-.92,10.02,0,0,0,0,0,0-3.83,3.16-1.37,7.41-1.92,11.14-.04.62-.07,1.23-.11,1.85-1.83,3.11-2.24,6.51-1.96,10.04,0,0,.01-.02,0-.02-1.58,1.24-1.04,3.02-1.06,4.59-.07,4.77-.02,9.55-.02,14.32-1.21,2.03-2.42,4.07-3.63,6.1-1.05,1.03-2.1,2.06-3.15,3.09-1.98-.04-3.96-.22-5.92-.08-3.81.29-7.98-1.41-11.27,1.92,0,0-.02,0-.02,0-2.72.43-5.99-1.32-7.97,2.03-1.43,1.14-3.1,1.23-4.82,1.11-7.23.85-14.34,2.22-21.13,4.98,0,0,.03-.02.03-.02-2.86-.07-5.86-.71-8.06,1.94-1.44,1.14-3.11,1.23-4.83,1.09-3.17.06-6.61-1.08-9.13,1.98,0,0,.03-.02.03-.02-5.24-.13-10.28.69-15.02,3.03,0,0,.03-.02.03-.02-5.33-.58-10.3.66-15.06,2.98l-.41.09s-.42-.03-.42-.03c-8.26-.7-16.12,2.35-24.32,2.57-3.61.1-7.5.31-10.81,2.4,0,0,.03-.02.03-.02-7.27-.8-14.15,1.04-21.02,3.02,0,0,.03-.02.03-.02-5.35.59-11.09-1.91-16.03,2,0,0,.02-.02.02-.02-17.03.83-34,2.42-50.9,4.56-4.71.59-9.64-1.05-14.12,1.43l-.45.08s-.45-.06-.45-.06c-14.44-.43-28.89-.25-43.25,1.08-17.26,1.6-34.56,1.33-51.75.46-16.39-.83-32.74-1.79-49.16-1.52l-.44.06s-.43-.08-.43-.08c-.95-1.28-2.36-.94-3.66-1.05-11.37-.97-22.73-2.26-34.12-2.83-9.77-.49-19.4-2.67-29.23-2.13,0,0,.02.01.02.01-4.63-3.88-10.08-1.44-15.15-1.94l-.42.04s-.41-.09-.41-.09c-6.94-1.54-13.78-3.77-21.05-3,0,0,.03.02.03.02-12.11-3.26-24.56-4.12-36.99-5.05,0,0,.02,0,.02,0-4.72-2.67-9.77-3.63-15.14-2.94l-.43.03s-.41-.11-.41-.11c-3.13-1.89-6.55-2.27-10.11-1.94-1.69-.1-3.47.39-4.99-.78-2.69-3.75-6.61-1.88-10.05-2.19h-.43s-.4-.13-.4-.13c-4-2.48-8.37-3.38-13.03-2.94,0,0,.02.01.02.01-6.78-2.81-13.88-4.27-21.17-4.92-.29.04-.56-.01-.81-.16-3.65-2.49-7.67-3.45-12.05-2.9,0,0,.03.02.03.02-7-3.22-14.56-3.94-22.05-4.97,0,0,.03.03.03.03-3.33-2.21-6.93-3.43-10.97-3.1,0,0,.02.01.02.01-2.59-2.36-5.69-3.17-9.11-2.96-2.32-.61-4.65-1.22-6.97-1.83-2.11-2.58-4.83-3.55-8.09-3.12-10.39-3.74-20.79-7.47-31.18-11.24-1.05-.38-2.2-.86-2.96-1.64-5.6-5.7-11.11-11.48-16.65-17.23-.12-4.75-.39-9.47-2.08-13.99,0,0,.02.03.02.03.75-9.74-.37-19.44-1.18-29.1-.27-3.23.36-6.94-1.8-9.95,0,0,.01.03.01.03.01-6.11.43-12.24-.07-18.31-.52-6.28-1.93-12.48-2.95-18.72,0,0,.02.03.02.03.02-5.26.04-10.52.06-15.78,0-2.03-.26-3.95-2.1-5.23,0,0,.02.03.02.03.4-8.52-.83-16.84-2.99-25.04,0,0,.02.03.02.03-.38-5.71,1.61-11.7-1.96-17.05,0,0,0,0,0,0,.18-7.92-1.59-15.75-1.02-23.69.12-1.69-.57-3.23-1.99-4.32-.13-.25-.16-.52-.1-.8.38-7.57.14-15.06-2.91-22.19,0,0,.01.02.01.02-.49-4.68,1.71-9.8-2.33-13.88-1.17-1.55-.81-3.31-.71-5.03-.24-5.09,1.45-10.43-1.97-15.1,0,0,.01.02.01.02-.15-3.77-.12-7.57-2.22-10.95-1-.81-.79-1.94-.8-3.01-.1-4.44,1.04-9.07-1.92-13.09,0,0,0-.01,0-.01-1.38-5.9.39-12.39-3.32-17.86-2.13-3.39-1.45-7.47-2.72-11.07-.13-4.1.99-8.41-2.06-12.01,0,0,.02.03.02.03-.48-4.72-.7-9.48-1.57-14.13-.36-1.91.78-4.46-1.67-5.82-2.12-3.69-1.73-7.98-2.82-11.92.25-2.94-.19-5.71-1.96-8.16,0,0,.02.03.02.03.13-4.92-.43-9.69-2.91-14.07-.61-.87-1.29-1.72-1.08-2.9-.11-3.47,1.01-7.22-2.32-9.94-.98-2.57-1.55-5.22-1.75-7.96-.21-4.23-.5-8.45-2.82-12.19-.17-.23-.23-.49-.21-.77.08-3.23-.01-6.42-2.18-9.11-1.1-3.92-3.3-7.58-2.83-11.88-.7-5.46-.11-11.15-2.84-16.25h0c-.19-4.84.18-9.8-3-14,0,0,0,0,0,0,.09-3.49.01-6.94-2.07-9.97,0,0,.02.03.02.03-.16-4.53-.5-9.01-2.86-13.06-.15-.25-.22-.53-.19-.83,1.26-8.11-3.11-15.37-3.53-23.24-.03-.65-.95-1.26-1.46-1.89,0,0,.02.03.02.03.48-5.94.21-11.75-2.94-17.07,0,0,0,.02,0,.02,0-2.05,0-4.11,0-6.16,2.42,3.09,4.43,5.93,4.07,9.83-.5,5.41,2.76,10.2,3.12,15.48.61,9.07,3.94,17.57,5.38,26.5,1.17,7.25,2.6,14.82,5.35,21.89,2.07,5.31,1.54,11.15,2.98,16.58,2.02,7.61,3.38,15.39,4.91,23.07,1.93,9.68,4.2,19.39,6.79,28.76,2.17,7.86,1.78,16.53,6.27,23.77.35.56.89,1.3.76,1.81-2.68,10.4,4.8,18.98,5.12,29.26.26,8.17,2.14,17.24,5.14,25.51.95,2.62,1.45,5.45,1.75,8.23,1.89,17.07,6.05,33.76,8.84,50.67,1.9,11.51,1.63,23.51,5.94,34.62,1.36,3.5,1.1,7.38,1.03,10.82-.24,11.56,3.62,22.59,3.56,34.06-.03,5.12-.11,10.15,1.82,15.19,1.89,4.93,2.33,10.29,2.21,15.68-.19,8.98,1.44,17.8,2.82,26.63.64,4.1,1.43,8.18,1.12,12.37-.82,11.21.74,22.19,3.41,33.04.45,1.82.63,3.61.55,5.43-.61,14.15,1.42,28.17,2.01,42.26.11,2.74,1.61,4.92,3.42,6.42,4.09,3.38,7.5,7.34,11.06,11.21,2.58,2.81,6.47,3.76,9.65,4.66,10.98,3.13,21.04,8.71,31.94,11.67,12.04,3.28,23.72,7.7,36.09,10.09,8.95,1.73,18,3.6,26.87,6.06,10.58,2.93,21.37,5.07,32.04,7.64,2.61.63,5.19,1.06,7.88.95,1.32-.05,2.9-.34,3.95.23,10.34,5.65,22.41,3.16,33.11,7.19,4.18,1.57,8.87.26,13.3,1.48,9.73,2.68,19.84,2.9,29.8,4.12,21.79,2.68,43.53,5.46,65.43,7.5,26.85,2.5,53.64,2.75,80.49,3.76,12.8.48,25.64,1.17,38.35.45,13.64-.77,27.3.17,40.85-.94,9.98-.82,20.14.7,29.83-1.09,13.2-2.45,26.75-.76,39.49-3.34,11.29-2.29,22.76-2.14,33.74-4.77,7.57-1.81,14.97-2.3,22.57-2.73,3.71-.21,7.38-1.7,10.99-2.87,6.13-1.99,12.83.48,18.71-2.04,8.43-3.61,17.91-1.47,26.31-5.62,3.67-1.81,8.67-.77,12.58-2.26,8.02-3.06,16.57-3.59,24.77-5.88,10.18-2.84,20.45-7.24,31.75-5.35,5.8.97,12.33-8.54,9.98-14.03-1.47-3.44-1.62-6.33.67-9.32.48-.63,1.03-1.54.93-2.23-1.53-10.3,3.37-19.86,3.36-30.07,0-6.1-.1-12.73,4.04-18.15.29-.38.64-.94.57-1.35-1.5-8.95,2.91-17.17,3.19-25.91.17-5.31.55-10.59,3.22-15.41.64-1.15,1.42-2.55,1.28-3.73-1.1-9.56,3.55-18.34,3.53-27.76-.01-5.45.22-10.97,3.98-15.53.4-.49.88-1.23.79-1.77-1.73-10.62,4.02-20.42,3.24-30.98-.48-6.51.49-12.94,4.22-18.62.27-.41.6-.95.54-1.36-1.45-9.13,2.97-17.56,3.12-26.47.1-5.92,1.92-11.44,3.56-16.98,1.01-3.42,1.64-6.77,1.43-10.29-.18-3.06.17-5.97,1.9-8.61,1.25-1.92,1.32-4.13,1.11-6.29-.71-7.03,1.3-13.49,3.96-19.83.32-.77.96-1.59.87-2.31-1.36-11.05,4.92-21.31,3.26-32.41-.54-3.63-.08-7.29,1.84-10.63,3.32-5.79.92-12.58,3.07-18.53,4.23-11.75,2.56-24.51,6.49-36.31,1.42-4.27-.17-8.99,1.52-13.29,4.76-12.11,4.26-25.2,6.35-37.76,2.11-12.68,6.41-25.18,5.01-38.61-.67-6.44,3.12-13.14,3.02-19.99-.2-13.31,6.1-25.79,4.73-39.3-.52-5.09,3.91-8.78,5.81-13.23.68-1.59,2.17-2.8,2.07-4.84-.38-7.91,1.2-15.7.43-23.79-.62-6.48-2.85-11.89-5.66-17.16-2.05-3.83-3.95-7.83-6.77-11.35-3.24-4.06-7.53-6.5-11.67-9.16-1.73-1.11-4.72-1.4-6.04,1.41-.71,1.52-1.38,2.37-2.87,1.21-2.01-1.56-3.66-3.42-3.3-6.27.24-1.87,1.71-1.88,3.03-1.76,4.65.43,9.17,1.49,13.21,3.9,1.74,1.04,3.47,1.96,5.47,2.29Z"/>
  <path class="cls-19" d="M1409.94,841.18c13.62,1.14,24.41,6.34,33.44,16.33,16.73,18.48,24.4,41.26,31.66,64.2,2.76,8.73-.67,17.3-5.12,25.15-1.46,2.58-3.57,4.74-4.5,7.7-.7,2.23-2.78,3.58-4.56,1.47-5.06-6.01-12.94-6.51-19.07-10.33-7.04-4.38-15.38-6.12-22.01-11.46-9.03-7.27-16.29-16.19-23.95-24.7-8.56-9.51-17.86-16.84-31.37-16.63-3.15.05-5.62-1.26-5.01-4.63,2.04-11.28,4.76-22.23,13-31.1,10.36-11.16,23.69-14.66,37.49-16ZM1448.4,911.11c-.14-.39-.22-1.55-.84-2.18-5.77-5.93-11.17-12.22-18.68-16.25-5.05-2.71-11-4.7-10.98-12.51,0-2.74-2.89-5.63-6.32-5.2-5.03.62-7.63-1.38-9.41-5.91-1.18-3-3.94-4.33-6.8-1.9-5.26,4.47-5.85,9.68-2.55,15.81,1.56,2.89,3.53,4.83,6.88,4.92,1.83.05,3.36.75,4.24,2.21,3.35,5.55,8.53,9.2,13.33,13.27,6.35,5.38,12.77,10.65,20.56,13.89,5.53,2.29,10.77-.49,10.56-6.16Z"/>
  <path class="cls-23" d="M840.99,853.83c10.59-.05,16.53,5.73,22.76,11.32,8.08,7.26,11.32,17.97,18.81,25.6,1.43,1.46.97,3.41.5,5.22-2.57,9.89-2.68,19.29,4.48,27.71,2.26,2.66.81,4.98-2.29,6.14-12.77,4.79-24.23,11.32-31.57,23.47-.93,1.54-1.56,4.15-4.24,3.47-2.55-.65-1.96-3.25-2.41-5.04-4.71-18.78-14.08-34.2-31.23-44.2-5.44-3.17-11.32-4.65-17.15-2.36-15.38,6.03-28.5.8-41.23-7.33-1.54-.98-3.1-1.92-4.69-2.83-5.78-3.33-6.69-6.36-3.34-12.14,3.41-5.86,8.32-9.4,15.13-11.05,10.65-2.58,21.5-2.03,32.2-2.44,11.14-.42,20.6-3.91,29.48-10.09,4.85-3.37,10.04-5.9,14.78-5.46ZM858.66,887.3c.16-5.88-3.49-9.19-8.59-8.29-5.04.88-10.16,1.96-14.86,3.89-4.63,1.89-6.93.37-8.54-3.64-.62-1.53-.96-3.17-1.45-4.75-1.28-4.16-4.61-5.92-8.12-4.27-5.18,2.43-10.59,4.75-14.96,8.69-1.86,1.68-2.23,3.8-1.08,5.87,1.22,2.21,3.28,2.44,5.64,1.68,8.17-2.65,8.47-2.44,10.79,5.95,1.38,4.97,5.76,9.13,12.02,6.61,7.51-3.02,15.41-5.01,23.47-6.31,3.3-.53,5.42-3,5.7-5.43Z"/>
  <path class="cls-37" d="M823.68,974.74c.19,6.08-1.18,11.93-1.84,17.86-.53,4.74-3.16,5.01-6.58,4.08-11.51-3.14-23.15-5.76-34.87-7.9-14.68-2.69-29.37-5.39-43.62-9.83-15.84-4.94-31.54-10.31-43.52-22.8-3.44-3.58-4.17-6.67-1.78-11.48,3.12-6.29,6.65-12.21,10.92-17.72,10.89-14.04,35.22-14.14,48.74-4.92,5.78,3.94,12.03,6.98,18.17,10.27,8.75,4.69,17.62,1.35,26.33.28,5.35-.66,9.31.69,13.16,4.03,11.69,10.14,14.32,23.73,14.9,38.14ZM745.51,972.96c.68-.06,1.35-.04,2-.17,14.78-2.94,29.56-5.86,44.32-8.85,4.01-.81,7.36-5.73,6.19-8.85-1.92-5.11-7-8.01-12.43-6.88-9.57,2-19.16,3.96-28.66,6.28-3.88.95-6.54.75-8.74-3.14-2.11-3.74-5.35-5.71-10.06-3.69-3.43,1.48-6-.03-7.87-3.23-1.4-2.39-3.46-4.55-6.5-2.76-3.01,1.77-5.51,4.68-3.87,8.26,2.41,5.24,5.34,10.43,11.41,12.47,2.84.96,4.79,2.83,6.25,5.39,1.74,3.07,4.26,5.06,7.95,5.17Z"/>
  <path class="cls-25" d="M1358.56,921.86c6.26.51,10.9,5.27,15.52,9.65,8.43,8,16.27,16.63,24.76,24.57,8.73,8.17,20.08,11.94,30.67,16.93,2.3,1.08,6.09.66,6.25,3.89.14,3.07-3.4,3.27-5.68,4.54-13.67,7.63-28.55,12.42-42.94,18.26-11.73,4.76-23.58,9.42-36.08,12.5-11.01,2.71-22.18,5.48-32.78,9.84-1.57.65-3.17,1.4-4.73.32-1.82-1.26-1.32-3.25-1.11-5.04.11-.98.96-2.1.68-2.86-2.72-7.27,2.25-10.59,6.73-14.78,13.49-12.6,19.24-28.95,21.49-46.84,1-7.91,3.13-15.63,5.89-23.04,1.61-4.34,5.12-7.8,11.33-7.95ZM1353.46,977.83c.09,1.8,1.47,4.25,4.36,5.36,4.3,1.65,8.62,5.35,13.34,1.23,2.74-2.39,5.14-3.24,8.36-.84,3.49,2.59,6.32.69,8.59-2.11,2.37-2.92,3.42-6.03.74-9.48-3.35-4.3-8.01-4.38-12.71-3.95-3.38.31-6.21-.14-8.38-3.05-1.6-2.15-4.13-2.87-6.19-1.4-4.39,3.13-8.13,6.93-8.11,14.24Z"/>
  <path class="cls-9" d="M1302.35,1088.98c-6.75,3.6-14.41,4.31-21.51,6.79-1.09.38-2.25,1.26-3.25,1.1-8.78-1.36-16.47,3.19-24.43,5.2-9.76,2.47-19.77,3.67-29.5,5.36-20.13,3.49-40.48,7.56-61.2,5.54-4.48-.44-8.49,1.21-12.69,2.05-8.57,1.71-17.23.93-25.85.96-25.97.1-52.05,1.47-77.88-.48-17.52-1.32-35.12-1.07-52.47-3.03-10.54-1.19-21.46-2.15-31.7-4.97-6.59-1.82-12.9-2.44-19.49-2.5-3.79-.03-6.77-2.96-10.46-2.97-10.34-.03-20.03-3.93-29.97-5.83-7.7-1.47-16.58-1.47-23.57-6.59-.61-.45-1.62-.68-2.36-.55-8.93,1.54-17.3-1.75-25.17-4.55-9.3-3.31-19.52-3.5-28.11-7.96-7.23-3.74-15.59-3.07-22.3-7.24-8.36-5.2-18.57-3.56-26.98-7.95-9.65-5.03-20.84-5.89-30.23-11.52-2.55-1.53-5.75-1.81-8.4-2.36-6.5-1.34-11.07-7.26-18.32-6.72-2.84.21-6.02-1.96-8.55-3.46-11.29-6.71-23.28-12.06-34.69-18.54-11.56-6.57-21.04-14.67-28.66-25.33-9.83-13.76-9.26-25.45,0-38.91,5.13-7.44,11.25-13.88,18.34-19.52,2.56-2.04,5.87-2.15,8.3-4.24.99-.85,2.33-.8,2.88.62.56,1.48-.92,1.39-1.72,1.8-1.23.62-2.16,1.54-2.73,2.8-7.08,4.45-13.03,10.09-18.28,16.6-7.52,9.33-12.17,19.69-6.95,31.24,5.35,11.83,14.25,21.14,25.8,27.47,12.75,6.99,25.6,13.79,38.41,20.67,5.78,5.78,14.01,5.19,20.91,8.05,1.69.66,3.38,1.33,5.06,1.99,1.92,3.09,4.96,3.08,8.06,2.91h0c4.17,2.99,8.73,4.9,13.93,5.08h0c.88,1.86,2.63,2.38,4.38,2.9,12.68,3.75,25.1,8.38,37.99,11.46,2.53.6,4.86,2.02,7.61,1.62h0c.83,1.89,2.58,2.63,4.35,2.86,5.73.73,11,3.05,16.51,4.52,5.33,1.42,10.27,4.66,16.15,3.6h0c.54,1.42,1.76,1.69,3.09,2.12,12.61,4.1,25.7,6.06,38.59,8.91,4.02.89,7.95,2.52,12.21,2.05l.03.02c3.72,3.71,8.49,2.79,13.02,2.94h0c7.96,3.41,16.46,4.16,24.92,5.1,5.27,3.19,11.19,2.69,16.96,3.01,1.53.6,3.01,1.56,4.59,1.76,11.29,1.4,22.52,3.6,33.77,4.81,20.55,2.2,41.29,3.63,61.93,4.02,35.36.66,70.82,1.9,106.12-1.77,14.14-1.47,28.34-1.21,42.52-3.51,20.38-3.31,40.76-6.49,60.93-10.89,8.05-1.75,16.05-3.68,24.08-5.53,1.21,3.2,3.68,2.53,5.45,1.15,1.2-.93-.16-1.93-1.47-2.15,4.67-1.31,9.34-2.62,14.02-3.93-1.14,1.06-2.39,2.06-2,3.91Z"/>
  <path class="cls-10" d="M679.74,967.84c-.48-6.55-3.82-12.49-3.84-19.21,0-2.72.05-5.27,1-7.77.37-.99,1.08-1.8,2.26-1.38,1.06.38,1.54,1.35,1.3,2.42-2.57,11.75,2.68,21.6,7.9,31.31,3.85,7.16,10.99,10.63,17.75,14.6,9.44,5.55,19.97,8.59,30.17,11.25,7.58,1.98,15.13,6.13,23.51,4.94,1.87-.26,3.71.21,5.33,1.03,4.39,2.23,9.68,1.71,13.73,3.37,7.38,3.03,15.86,1.62,22.56,6.45.66.47,1.58,1.05,2.27.93,7.02-1.2,13.19,2.59,19.88,3.31,2.12.23,4.3.72,6.24,1.6,5.25,2.37,10.71,2.97,16.39,3.55,5.24.54,10.19,3.18,15.77,3.13,8.94-.09,17.27,3.76,25.91,5.43,9.62,1.85,20.48.41,29.14,6.82.36.27.97.34,1.44.3,10.73-.86,21.24,2.03,31.18,4.61,11.47,2.97,23.44,1.82,34.6,6.01,3.09,1.16,6.91.43,10.4.45,8.31.03,16.51.2,24.42,3.54,2.94,1.24,6.49,1.28,9.78,1.38,8.6.26,17.19-.34,25.71,1.99,8.44,2.3,17.23.49,25.82,1.16,13.34,1.04,26.66,2.52,39.99,3.71,3.14.28,6.32.2,9.48.22,23.23.11,46.31-1.25,69.5-3.28,16.9-1.48,33.91-3.99,51-3.72,2.37.04,4.45-.35,6.62-1.57,4.3-2.41,9.22-2.54,14.03-2.77,7.93-.37,15.72-1.53,23.37-3.65,3.63.81,7.88-1.87,10.97,1.97-3.4.67-6.68,1.77-10.18,2.16-3.35.37-7.04.22-9.87,2.75-4.31.12-8.59.51-12.88,1-14.63,1.64-29.19,3.76-43.8,5.5-18.1,2.16-36.28,3.3-54.41,4.32-20.42,1.15-40.95.35-61.44.22-5.96-.04-12.03-.05-17.84-1.17-14.07-2.72-28.42-1.05-42.55-3.54-11.69-2.06-23.88-1.4-35.54-3.59-14.52-2.73-29.25-2.9-43.8-5.31-18.24-3.03-36.38-6.63-54.64-9.58-9.4-1.52-18.7-3.73-28-5.81-14.15-3.17-28.59-4.7-42.72-8.19-10.69-2.64-21.47-4.97-32.19-7.53-13.95-3.33-27.87-6.83-41.86-9.97-7.25-1.63-14.46-3.89-22.06-3.13-1.07-.09-2.22.11-3.01-.91-.39-1.53-1.51-1.96-2.94-2.2-9.18-1.54-18.07-4.12-26.66-7.74-2.29-.97-4.74-1.57-7.29-1.23-8.83-4.18-17.42-8.64-24.45-15.73-3.01-3.04-3.31-7.53-6.52-10.27-.31-.72-.61-1.45-.92-2.17Z"/>
  <path class="cls-31" d="M1305.32,1049.97c-3.08-3.84-7.34-1.16-10.97-1.97,7.57-.49,14.03-5.83,21.9-5.02,1.74.18,3.23-.6,4.75-1.29,1.66-.76,3.42-2.07,5.06-1.95,7.7.53,14.08-4.14,21.48-5.05,4.71-.58,9.96-2.23,13.91-4.37,6.62-3.6,13.97-2.89,20.69-5.95,6.59-3,13.53-5.89,20.5-8.06,7.51-2.34,13.83-6.84,21.04-9.66,11.99-4.68,22.18-12.42,32.14-20.41,8.62-6.92,14.88-15.52,20.37-25.18,2.9-5.09,1.63-11.16,5.61-15.53.86-.95.37-2.34-.85-2.95-1.44-.73-2.09.33-2.58,1.48-1.63,3.78-5.23,6.41-6.1,10.69-.31,1.53-1.65,2.72-3.42,1.88-2.36-1.11-1.09-2.81-.26-4.17,2.42-3.97,5.44-7.64,7.31-11.84,2.59-5.8,3-12.14,1.88-18.43-1.31-7.35-5.25-13.84-7.12-21.04-2.03-7.82-6.13-14.82-9.67-21.98-3.59-7.28-9.31-13.26-13.93-19.92-4.86-7.02-11.27-12.44-18.59-16.2-10.02-5.15-20.98-5.55-31.87-2.55-8.56,2.36-16.53,6.29-22.58,12.79-5.99,6.44-12.59,12.67-13.95,22.28-.64,4.55-2.94,8.81-2.88,13.57.02,1.39-1.01,2.16-2.28,2.14-1.21-.02-1.56-1.13-1.57-2.16-.04-4.46.27-8.66,2-13.08,2.58-6.64,5-13.12,9.68-18.67,7.83-9.3,16.52-17.01,28.85-19.86,5.28-1.22,10.08-4.3,15.86-3.55,11.09,1.44,21.57,4.44,30.07,12.12,12.58,11.38,22.15,25.09,29.43,40.29,2.67,5.57,5.39,11.3,6.48,17.55.49,2.81,1.91,3.75,4.5,2.05-.08,1.76.06,3.47,1.01,5.01-2.15.27-2.24,1.76-1.74,3.3,1.06,3.28,1.59,7.02,3.56,9.66,5.41,7.24,3.25,15.08,2.7,22.82-.24,3.42-1.75,6.7-1.53,10.22-1.84,6.34-5.5,11.74-9.45,16.81-13.4,17.15-29.93,30.31-50.35,38.29-3.97-.12-6.61,2.27-9.15,4.85-.34.34-.68.69-1.01,1.03-4.16.52-7.78,2.65-11.49,4.28-8.6,3.78-17.5,6.7-26.32,9.85-2.93-.29-5.74-.04-8.16,1.88-4.99,2.77-11.04,2.14-16,5.01-3.99-.18-7.61.96-10.98,3.03h0c-2.86-.11-5.68-.04-7.98,2.05h.02c-3.89.2-7.95-.25-11.03,2.95h0c-4.49.31-9.02.46-13,3h.01c-1.35-.02-2.7-.04-4.05-.06Z"/>
  <path class="cls-21" d="M1414.28,1017.97c.34-.34.67-.69,1.01-1.03,3.58-.63,6.3-2.87,9.15-4.85,20.42-7.98,36.95-21.14,50.35-38.29,3.96-5.07,7.62-10.47,9.45-16.81,4.19-8.29,4.54-17.09,3.42-26.07-.26-2.11-1.29-4.5,1.39-5.64,2.48-1.05,4.02.91,5.39,2.56,1.36,1.64,2.54,3.43,3.8,5.16,0,0,0,.01,0,.01-.06,1.28.85,2.07,1.43,3.06,7.59,12.89,10.09,26.32,4.55,40.73-.94,2.43-3.23,4.31-2.95,7.22-7.06,7.9-13.37,16.42-21.65,23.27-4.42,3.66-9.69,5.62-14.18,9.07-9.46,7.29-19.79,13.43-30.48,18.65-16.66,8.14-33.78,15.32-50.71,22.91-4.16,1.03-8.48,1.65-12.47,3.15-25.4,9.58-50.76,19.26-77.39,25.01-10.02,2.16-19.76,5.52-29.95,6.96-3.53-.14-7-.02-10.1,2-10.05,3.15-20.41,4.73-30.83,6.03-4.52-.25-8.94.22-13.16,2-2.19.65-4.35,1.49-6.71,1.05-5.56-.42-10.97.35-16.28,1.95-.27.08-.55.09-.82,0-4.28-.02-8.64-.59-12.81.08-5.76.93-11.72-.18-17.32,1.93l.04-.02c-21.35.65-42.71,1.8-64.06,1.81-20.69.01-41.38-1.15-62.07-1.8-.28.08-.56.08-.84,0-.71-.34-1.43-1-2.13-.98-9.69.18-19.31-1.85-29.02-1.01-5.36.64-10.52-1.4-15.84-1.16,0-.67.02-1.34.02-2.01,11.48.08,22.87,1.6,34.28,2.51,22.88,1.82,45.78,2.87,68.69,3.28,23.76.43,47.5-.9,71.24-2.45,21.55-1.41,43.07-3.02,64.37-6.51,30.64-5.02,60.81-12.36,90.85-20.13,23.64-6.11,46.2-15.64,69.34-23.38,19.03-6.37,37.05-15.48,54.96-24.43,16.4-8.19,32.23-17.84,46.25-29.86,7.27-6.23,13.82-13.42,18.27-22.14,4.42-8.65,4.66-17.8,3.37-27.21-1.15-8.36-5.52-15.21-9.88-22.07-.8-1.27-1.97-3.07-3.98-2.27-1.59.64-1.06,2.32-.82,3.54,3.41,17.28-4.11,31.31-13.96,44.19-16.1,21.04-38.17,34.03-62.22,44.03.33-.68.66-1.35.99-2.03Z"/>
  <path class="cls-11" d="M1384.27,1057.91c16.93-7.59,34.05-14.77,50.71-22.91,10.68-5.22,21.01-11.36,30.48-18.65,4.49-3.46,9.76-5.42,14.18-9.07,8.28-6.85,14.59-15.38,21.65-23.27,4.93-4.44,6.35-10.84,7.69-16.66,2.35-10.15-2.12-19.56-6.06-28.7-.92-2.14-2.15-4.57-4.67-5.64,0,0,0-.01,0-.01.23-3.56-2.72-5.5-4.38-8.36,2.33-1.38,3.8.04,4.96,1.5,5.03,6.38,9.88,12.86,11.49,21.14.88,4.53,3.09,8.66,3.02,13.53-.15,11.83-5.12,21.56-12.04,30.68-7.28,9.59-15.8,17.95-25.78,24.53-9.12,6.01-17.95,12.58-27.88,17.29-2.86,1.36-5.1,3.53-8.03,4.89-10.09,4.7-20.23,9.29-30.2,14.28-3.86,1.93-7.94,4.27-12.72,4.9-3.46.46-6.28,3.62-9.98,4.92-9.3,3.27-18.82,5.88-27.98,9.77-4.8,2.04-10.59,3-15.41,5.56-5.92,3.14-12.62,4.4-18.72,6.33-6.98,2.22-14.08,7.1-22.25,5.02-.39-1.85.86-2.85,2-3.91,6.44.9,11.76-2.82,17.5-4.53,19.91-5.93,38.88-14.73,59.06-19.92,1.41-.36,2.85-1.04,3.36-2.7Z"/>
  <path class="cls-35" d="M838.51,777.91c.44-4.89,4.55-5.55,8.01-6.95,6.85.13,13.79.89,20.04-3.01,16.19-7.13,31-16.72,46.01-25.94,9.65-4.4,19.15-9.09,29.52-11.83,5.55-1.47,11.07-2.02,16.72-2.2,17.31-.54,34.64-.83,51.28,5,18.34,6.43,35.44,15.03,48.21,30.33,2.42,2.9,4.2,6.33,6.27,9.52-.12,1.29-.7,2.15-2.12,2.2-3.57-3.07-5.38-7.54-8.5-10.94-5.86-6.37-13.53-10.37-20.42-15.4-10.83-7.91-23.95-9.87-35.7-15.28-1.27-.58-2.94-.37-4.43-.38-12.32-.03-24.71.79-36.94-.29-9.53-.84-17.16,3.89-25.68,5.87-8.29,1.92-15.4,6.95-22.69,11.05-7.56,4.25-14.69,9.49-22.4,13.44-7.85,4.02-14.99,9.59-24.64,10.29-4.75.35-9.82,1.71-14.73,2.7-3.08.62-4.85,2.78-4.73,6.1.31,8.52-.28,16.9-2.82,25.12-.63,2.03-.28,4.25.52,6.37.82,2.16,1.39,4.44,1.88,6.7.57,2.61,1.36,6.23-1.95,6.67-2.41.32-2.41-3.5-2.5-5.62-.25-5.82-.11-11.66-.14-17.49-.02-3.66-.05-7.33-.07-10.99,0,0,0,.04,0,.04,2.5-4.78,2.12-9.94,1.99-15.07Z"/>
  <path class="cls-5" d="M982.54,1102.89c0,.67-.02,1.34-.02,2.01-3.62-.9-7.51-.27-11-1.91-4.14-1.96-8.55-2.11-13.01-1.98,0,0,0,0,0,0-5.16-2.03-10.58-2.64-16.06-2.94-.31,0-.62-.04-.92-.08-3.2-1.49-6.55-2.16-10.08-1.92-2.34-.2-4.83.66-6.99-.95-2.7-1.92-5.78-2.23-8.96-2.11-1.66,0-3.31-.02-4.97-.03h0c-4.15-1.81-8.66-2.04-13.02-2.94,0,0-.03-.02-.03-.02-2.41-1.73-5.73-.89-8.07-2.83-2.71-1.79-5.79-2.11-8.92-2.17-3.4-.53-6.84-.87-10.19-1.64-8.93-2.05-17.81-4.29-26.72-6.46,0,0,0,.01,0,.01-12.13-4.36-24.47-8.01-37.01-10.97,0,0,0,0,0,0-.55-.34-1.07-.72-1.65-1-10.05-5-21.55-5.26-31.78-9.84-5.24-2.34-11.02-3.46-16.56-5.13,0,0,0,0,0,0-4.35-2.5-8.98-4.24-13.93-5.09,0,0,0,.01,0,.01-2.32-1.98-5.09-2.72-8.06-2.91-1.69-.66-3.38-1.33-5.06-1.99-6.14-4.85-14.15-4.82-20.91-8.05-12.81-6.88-25.66-13.68-38.41-20.67-11.55-6.34-20.46-15.64-25.8-27.47-5.22-11.56-.57-21.91,6.95-31.24,5.25-6.51,11.2-12.15,18.28-16.6,5.93-1.33,6.67-.24,5.5,6.07-1.67,9.07-.16,17.74,4.57,25.76.31.72.61,1.45.92,2.17.3,1.39.6,2.78.9,4.16-6.38-10.06-12.05-20.28-8.16-32.9.29-.94.47-2.1-.45-2.78-1.04-.77-2.21-.44-3.26.22-10.18,6.46-18.41,14.73-23.18,25.97-3.37,7.95-2.01,15.82,2.32,22.9,6.62,10.83,15.77,18.66,27.26,24.66,12.03,6.28,23.78,13.23,36.2,18.62,14.71,6.38,29.93,11.68,45.13,16.82,17.87,6.04,35.92,11.56,53.98,17.02,17.15,5.18,34.28,10.52,51.66,14.8,15.12,3.72,30.43,6.77,45.65,10.14,15.04,3.33,30.35,5.44,45.46,8.5,9.41,1.9,19.1,2.01,28.36,4.74Z"/>
  <path class="cls-3" d="M1041.35,1593.08c16.41-.27,32.77.69,49.16,1.52,17.18.87,34.49,1.14,51.75-.46,14.37-1.33,28.82-1.51,43.25-1.08-5.45,1.83-11.19,1.28-16.74,1.56-35.88,1.81-71.79,1.78-107.67,0-6.56-.33-13.28.39-19.74-1.54Z"/>
  <path class="cls-3" d="M973.47,1587.04c9.83-.54,19.46,1.63,29.23,2.13,11.39.58,22.75,1.87,34.12,2.83,1.3.11,2.71-.23,3.66,1.05-16.42.29-32.63-2.4-48.94-3.64-6.04-.46-12.17-.67-18.07-2.38Z"/>
  <path class="cls-3" d="M1186.41,1593.04c4.48-2.48,9.41-.84,14.12-1.43,16.9-2.13,33.87-3.73,50.9-4.56-5.54,1.81-11.36,1.92-17.07,2.37-15.98,1.28-31.84,4.07-47.95,3.61Z"/>
  <path class="cls-3" d="M697.59,1459.02c2.16,3.01,1.53,6.72,1.8,9.95.82,9.66,1.94,19.36,1.18,29.1-1.82-4.79-1.01-9.84-1.26-14.75-.41-8.11-2.1-16.13-1.73-24.29Z"/>
  <path class="cls-3" d="M899.52,1577.03c12.43.93,24.87,1.79,36.99,5.05-12.36-1.46-24.88-1.77-36.99-5.05Z"/>
  <path class="cls-3" d="M1288.39,1582.08c3.31-2.08,7.19-2.3,10.81-2.4,8.2-.23,16.06-3.28,24.32-2.57-7.98,3.15-16.58,2.28-24.82,3.78-3.4.62-6.78,1.54-10.3,1.19Z"/>
  <path class="cls-3" d="M694.58,1422.03c1.02,6.24,2.43,12.44,2.95,18.72.5,6.06.09,12.2.07,18.31-1.8-5.29-.87-10.84-1.31-16.25-.57-6.92-2.36-13.76-1.71-20.78Z"/>
  <path class="cls-3" d="M623.58,1018.05c.51.63,1.43,1.23,1.46,1.89.42,7.87,4.79,15.13,3.53,23.24-2.61-8.19-3.83-16.65-4.99-25.13Z"/>
  <path class="cls-3" d="M684.63,1331c1.43,1.09,2.11,2.63,1.99,4.32-.57,7.94,1.2,15.77,1.02,23.69-2.53-7.32-1.47-15.07-2.7-22.55-.29-1.79-.22-3.64-.31-5.47Z"/>
  <path class="cls-3" d="M689.58,1376.03c2.17,8.21,3.4,16.53,2.99,25.04-1.83-8.25-2.42-16.65-2.99-25.04Z"/>
  <path class="cls-3" d="M936.47,1582.06c7.27-.77,14.11,1.46,21.05,3-7.2.26-14.17-1.06-21.05-3Z"/>
  <path class="cls-3" d="M788.51,1553.12c7.49,1.03,15.05,1.74,22.05,4.97-7.38-1.53-15.05-1.75-22.05-4.97Z"/>
  <path class="cls-3" d="M620.67,1001.01c3.15,5.32,3.42,11.13,2.94,17.07-2.34-5.46-2.67-11.26-2.94-17.07Z"/>
  <path class="cls-3" d="M823.4,1561.12c7.29.65,14.38,2.11,21.17,4.92-7.22-.92-14.35-2.24-21.17-4.92Z"/>
  <path class="cls-3" d="M1376.35,1566.1c6.78-2.77,13.89-4.13,21.13-4.98-6.71,3.06-13.91,4.05-21.13,4.98Z"/>
  <path class="cls-3" d="M692.55,1401.05c1.84,1.28,2.11,3.2,2.1,5.23-.02,5.26-.04,10.52-.06,15.78-1.45-6.93-1.25-14.02-2.04-21.01Z"/>
  <path class="cls-3" d="M1267.4,1585.09c6.87-1.99,13.75-3.83,21.02-3.02-6.98,1.17-13.85,3.17-21.02,3.02Z"/>
  <path class="cls-3" d="M660.36,1186.12c2.45,1.36,1.31,3.91,1.67,5.82.87,4.64,1.09,9.41,1.57,14.13-3.05-6.33-2.42-13.26-3.23-19.95Z"/>
  <path class="cls-3" d="M681.62,1308.02c3.05,7.12,3.29,14.61,2.91,22.19-.97-7.39-1.94-14.79-2.91-22.19Z"/>
  <path class="cls-3" d="M668.36,1229.12c3.71,5.47,1.94,11.96,3.32,17.86-2.99-5.6-2.01-11.94-3.32-17.86Z"/>
  <path class="cls-3" d="M1410.29,1557.97c3.29-3.34,7.46-1.64,11.27-1.92,1.96-.15,3.95.04,5.92.08-1.78,1.45-3.99,1.98-6.03,1.45-3.83-.98-7.47-.25-11.17.4Z"/>
  <path class="cls-3" d="M1251.4,1587.07c4.94-3.9,10.68-1.41,16.03-2-5.26,1.37-10.6,2-16.03,2Z"/>
  <path class="cls-3" d="M958.35,1585.11c5.07.5,10.51-1.94,15.15,1.94-5.15.16-10.18-.61-15.15-1.94Z"/>
  <path class="cls-3" d="M636.67,1081c2.73,5.1,2.14,10.79,2.84,16.25-2.81-5.09-2.35-10.75-2.84-16.25Z"/>
  <path class="cls-3" d="M687.63,1359.01c3.58,5.34,1.58,11.33,1.96,17.05-1.33-5.6-1.59-11.33-1.96-17.05Z"/>
  <path class="cls-3" d="M1324.34,1577.05c4.76-2.33,9.73-3.57,15.06-2.98-4.84,1.91-9.88,2.79-15.06,2.98Z"/>
  <path class="cls-3" d="M884.4,1574.1c5.37-.69,10.42.27,15.14,2.94-5.17-.31-10.21-1.36-15.14-2.94Z"/>
  <path class="cls-3" d="M633.67,1067.01c3.18,4.2,2.81,9.16,3,14-2.39-4.37-2.02-9.33-3-14Z"/>
  <path class="cls-3" d="M676.62,1274.02c3.42,4.67,1.73,10.01,1.97,15.1-1.25-4.96-1.52-10.04-1.97-15.1Z"/>
  <path class="cls-3" d="M652.69,1152c2.48,4.38,3.04,9.15,2.91,14.07-2.07-4.46-2.5-9.26-2.91-14.07Z"/>
  <path class="cls-3" d="M628.76,1044c2.36,4.04,2.7,8.53,2.86,13.06-2.33-4.05-2.58-8.56-2.86-13.06Z"/>
  <path class="cls-3" d="M700.55,1498.04c1.68,4.52,1.96,9.24,2.08,13.99-2.93-4.33-1.75-9.27-2.08-13.99Z"/>
  <path class="cls-3" d="M679.3,1294.15c4.04,4.08,1.84,9.21,2.33,13.88-1.69-4.47-1.17-9.32-2.33-13.88Z"/>
  <path class="cls-3" d="M844.54,1566.04c4.66-.44,9.02.46,13.03,2.94-4.58.08-8.77-1.58-13.03-2.94Z"/>
  <path class="cls-3" d="M1339.37,1574.09c4.74-2.33,9.78-3.16,15.02-3.03-4.9,1.55-9.85,2.81-15.02,3.03Z"/>
  <path class="cls-3" d="M644.73,1119c2.31,3.75,2.61,7.96,2.82,12.19-2.4-3.73-2.56-7.97-2.82-12.19Z"/>
  <path class="cls-3" d="M810.53,1558.06c4.38-.55,8.4.4,12.05,2.9-4.22-.1-8.16-1.4-12.05-2.9Z"/>
  <path class="cls-3" d="M663.57,1206.04c3.05,3.6,1.93,7.91,2.06,12.01-1.41-3.88-1.75-7.94-2.06-12.01Z"/>
  <path class="cls-3" d="M671.68,1246.99c2.97,4.02,1.82,8.65,1.92,13.09-1.27-4.27-1.57-8.68-1.92-13.09Z"/>
  <path class="cls-3" d="M777.57,1550.04c4.04-.32,7.65.89,10.97,3.1-3.95,0-7.52-1.34-10.97-3.1Z"/>
  <path class="cls-3" d="M674.41,1263.09c2.1,3.37,2.07,7.18,2.22,10.95-2.52-3.29-1.61-7.27-2.22-10.95Z"/>
  <path class="cls-3" d="M858.4,1569.11c3.44.31,7.36-1.56,10.05,2.19-3.4-.51-6.83-.84-10.05-2.19Z"/>
  <path class="cls-3" d="M1354.36,1571.09c2.52-3.06,5.95-1.92,9.13-1.98-2.88,1.4-5.94,1.98-9.13,1.98Z"/>
  <path class="cls-3" d="M631.61,1057.03c2.09,3.03,2.16,6.49,2.07,9.97-1.95-3.06-1.9-6.54-2.07-9.97Z"/>
  <path class="cls-3" d="M642.34,1109.13c2.17,2.69,2.26,5.88,2.18,9.11-2.32-2.66-1.57-6.04-2.18-9.11Z"/>
  <path class="cls-3" d="M649.3,1139.16c3.33,2.72,2.21,6.47,2.32,9.94-1.67-3.1-1.07-6.74-2.32-9.94Z"/>
  <path class="cls-3" d="M768.48,1547.09c3.42-.2,6.52.6,9.11,2.96-3.25-.34-6.22-1.52-9.11-2.96Z"/>
  <path class="cls-3" d="M873.45,1572.07c3.56-.33,6.98.05,10.11,1.94-3.53.16-6.87-.61-10.11-1.94Z"/>
  <path class="cls-3" d="M753.42,1542.13c3.26-.43,5.99.54,8.09,3.12-2.87-.6-5.51-1.79-8.09-3.12Z"/>
  <path class="cls-3" d="M1402.3,1560.01c1.98-3.35,5.25-1.59,7.97-2.03-2.49,1.32-5.21,1.76-7.97,2.03Z"/>
  <path class="cls-3" d="M655.58,1166.04c1.77,2.45,2.21,5.22,1.96,8.16-2.08-2.38-1.68-5.35-1.96-8.16Z"/>
  <path class="cls-3" d="M1368.32,1568.02c2.21-2.65,5.2-2.01,8.06-1.94-2.56,1.18-5.19,2.06-8.06,1.94Z"/>
  <path class="cls-3" d="M1116.29,770.92c10.04-1.03,20.05-3.01,30.18-.97-10.09-.51-20.09,1.76-30.18.97Z"/>
  <path class="cls-3" d="M1098.33,772.93c5.21-1.95,10.66-1.94,16.11-1.92-5.27,1.51-10.63,2.2-16.11,1.92Z"/>
  <path class="cls-3" d="M1078.25,775.89c3.61-1.4,7.37-1.87,11.21-1.91-3.27,3.37-7.41,1.65-11.21,1.91Z"/>
  <path class="cls-3" d="M1159.42,770.99c4.15.14,8.41-.47,12.22,1.88-4.09-.51-8.3-.28-12.22-1.88Z"/>
  <path class="cls-3" d="M1177.41,773.95c3.36.39,6.78.48,9.88,2.07-3.36-.4-7.11,1.12-9.88-2.07Z"/>
  <path class="cls-3" d="M1146.45,769.93c3.71.42,7.53-.52,11.14.98-3.72-.28-7.59,1.18-11.14-.98Z"/>
  <path class="cls-3" d="M1067.46,775.97c3.33,0,6.67,0,10,0-3.34,1.58-6.67,1.61-10,0Z"/>
  <path class="cls-3" d="M1527.37,979.21c1.46-9.03.72-18.05-.18-27.07,3.05,9,3.16,18.03.18,27.07Z"/>
  <path class="cls-3" d="M1514.31,1045.06c-.75-7.59,1.31-14.8,2.99-22.06.32,7.53-1.85,14.73-2.99,22.06Z"/>
  <path class="cls-3" d="M1517.33,1022.14c-.03-5.1-.05-10.19-.07-15.29,0-1.88.42-3.58,1.94-4.85-.94,6.68-.39,13.5-1.87,20.14Z"/>
  <path class="cls-3" d="M1485.36,1234.16c.53-5.73-1.91-11.77,1.83-17.16-.69,5.71-.3,11.54-1.83,17.16Z"/>
  <path class="cls-3" d="M1461.35,1375.12c-.02-3.3-.03-6.6-.08-9.91-.03-1.72.12-3.33,1.9-4.22-.51,4.72-.37,9.53-1.82,14.13Z"/>
  <path class="cls-3" d="M1512.28,1058.04c.53-4.36-1.75-9.16,2.04-13-.71,4.33-.6,8.79-2.04,13Z"/>
  <path class="cls-3" d="M1501.31,1135.09c.62-4.03-1.93-8.55,1.86-12.1-.62,4.03-1.24,8.07-1.86,12.1Z"/>
  <path class="cls-3" d="M1493.31,1183.08c.67-4.03-2.02-8.6,1.98-12.08-.66,4.03-1.32,8.05-1.98,12.08Z"/>
  <path class="cls-3" d="M1509.35,1084.16c.24-4.11-1.47-8.51,1.82-12.16-.32,4.1-.56,8.2-1.82,12.16Z"/>
  <path class="cls-3" d="M1506.39,1103.22c-.16-4.52-.76-9.11,1.93-13.22-.76,4.39-.43,8.94-1.93,13.22Z"/>
  <path class="cls-3" d="M1477.36,1279.15c.5-3.74-1.81-7.92,1.8-11.16-.87,3.68-.39,7.57-1.8,11.16Z"/>
  <path class="cls-3" d="M1490.38,1201.19c-.05-4.17-.98-8.47,1.89-12.19-.73,4.05-.53,8.24-1.89,12.19Z"/>
  <path class="cls-3" d="M1511.35,1071.16c.25-4.39-1.23-8.9.94-13.14-.27,4.38.49,8.84-.94,13.14Z"/>
  <path class="cls-3" d="M1466.35,1343.13c0-4.14-.93-8.44,1.91-12.13-.77,4.02-.52,8.21-1.91,12.13Z"/>
  <path class="cls-3" d="M1496.33,1164.12c.44-3.41-1.82-7.33,1.91-10.12l-1.91,10.12Z"/>
  <path class="cls-3" d="M1504.2,1113.87c.67-3.29-1.72-7.21,2.01-9.88-1.41,3.14-.17,6.82-2.01,9.88Z"/>
  <path class="cls-3" d="M1519.35,1001.16c-.19-3.41-.65-6.91,2.88-9.16-.96,3.05-1.92,6.11-2.88,9.16Z"/>
  <path class="cls-3" d="M1475.21,1288.86c.16-3.08.72-6.07,2.09-8.86.2,3.17-.07,6.22-2.09,8.86Z"/>
  <path class="cls-3" d="M1472.35,1307.13c.3-3.11-1.59-6.68,1.89-9.13-.63,3.04-1.26,6.09-1.89,9.13Z"/>
  <path class="cls-3" d="M1434.26,1546.93c0-4.77-.05-9.55.02-14.32.02-1.58-.52-3.35,1.06-4.59,0,4.48-.48,8.96.48,13.43.42,1.95-.01,3.95-1.56,5.49Z"/>
  <path class="cls-3" d="M1437.39,1516.15c.55-3.73-1.91-7.97,1.92-11.14-1.54,3.56-.27,7.6-1.92,11.14Z"/>
  <path class="cls-3" d="M1445.37,1465.13c.45-3.41-1.77-7.3,1.82-10.14-.61,3.38-1.22,6.76-1.82,10.14Z"/>
  <path class="cls-3" d="M1453.36,1420.12c.45-3.4-1.71-7.26,1.77-10.13-1.11,3.29-.26,6.91-1.77,10.13Z"/>
  <path class="cls-3" d="M1435.32,1528.04c-.28-3.53.13-6.92,1.96-10.04.15,3.5-.82,6.79-1.96,10.04Z"/>
  <path class="cls-3" d="M1439.3,1505.02c.29-3.34-.94-6.82.92-10.02-.12,3.36.65,6.8-.92,10.02Z"/>
  <path class="cls-3" d="M866.56,767.95c-6.25,3.89-13.19,3.14-20.04,3.01,6.68-1,13.36-2.01,20.04-3.01Z"/>
  <path class="cls-3" d="M838.51,777.91c.13,5.13.51,10.29-1.99,15.07-.1-5.12.86-10.1,1.99-15.07Z"/>
  <path class="cls-34" d="M1198.48,989.74c.05,3-1.02,5.39-3.32,6.59-2.39,1.24-5.23,1.45-7.46-.63-9.83-9.17-23.11-8.86-35.36.66-8.34,6.48-13.75,3.94-14.95-6.87-.32-2.89-1.77-4.09-4.29-3.17-8.92,3.27-18.42,1.85-27.52,3.6-2.09.4-4.26.43-6.39.85-4.21.83-8.08.27-9.97-4.32-1.08-2.62-3.12-2.45-5.36-2.44-5.48.02-7.09-2.84-4.28-7.6.92-1.56,2.15-2.94,3.29-4.37,5.15-6.42,10.44-5.01,14.36-.55,4.18,4.75,7.86,4.71,13.54,2.79,10.97-3.72,22.59-5.13,34.06-6.77,4.06-.58,6.98,2.15,8.16,5.99.98,3.16,2.37,3.55,5.5,2.72,14.32-3.8,26.8.43,38.03,9.43,1.37,1.1,2.14,2.54,1.96,4.09ZM1191.4,994.99c2.17.17,4.78-1.41,5.59-3.44,1-2.53-.38-4.04-2.29-5.41-11.22-8.03-23.41-11.5-37.03-7.68-3.18.89-5.41.28-6.12-2.98-.98-4.5-3.8-6.06-7.98-5.51-11.82,1.55-23.53,3.76-34.96,7.16-4.56,1.36-8.25,1.61-11.06-3.29-2-3.5-5.82-4.77-9.59-3.65-3.62,1.08-6.05,4.13-7.23,7.71-.84,2.54.54,4.78,3.28,3.91,4.13-1.32,5.59.35,6.98,3.85,1.05,2.64,3.51,3.59,6.62,3.15,9.49-1.35,18.91-3.41,28.6-2.87,1.45.08,3.01-.15,4.39-.61,7.87-2.6,8.68-2.17,8.73,5.87.02,2.85,1.07,4.9,3.34,6.22,2.28,1.33,4.52.4,6.55-.92,2.77-1.81,5.44-3.8,8.26-5.52,8.44-5.15,18.98-5.94,27.39.6,1.91,1.49,3.87,3.22,6.53,3.42Z"/>
  <path class="cls-33" d="M1250.47,856.03c9.93,1.35,21.03-.7,31.71-5.43,2.53-1.12,4.87-.8,6.76,1.42,1.51,1.77,3.08,3.48,4.52,5.3,1.36,1.72,2.73,3.91,4.87,4.04,5.19.33,9.05,3.29,13.49,5.3,5.39,2.44,8.34,6.45,10.79,11.11,2.01,3.83,1.09,7.5-2.78,9.94-3.7,2.33-6.03.55-9-2.16-5.68-5.18-10.68-12.04-20.11-10.7-3.17.45-4.82-2.59-6.39-4.91-1.91-2.8-3.96-3.95-6.98-1.53-1.93,1.54-4.27,1.58-6.64,1.63-8.81.19-17.61-.06-26.37-1.03-3.27-.36-5.99.5-7.62,3.5-1.52,2.8-4.05,3.26-6.35,2.05-2.53-1.32-3.23-3.77-2.15-6.84,2.54-7.22,10.18-11.73,22.25-11.69ZM1250.5,859.06c-7.78-1.26-14.55.15-19.55,6.83-1.58,2.1-2.45,4.37-.49,6.23,2.32,2.2,4.31.25,5.8-1.64,1.45-1.84,2.59-3.79,5.47-3.56,5.61.44,11.22-.1,16.88.75,5.35.8,11.14,1.48,16.25-.74,5.36-2.33,9.24-2.34,12.3,3.29,1.01,1.86,3.35,3.26,5.58,2.41,4.26-1.63,6.99.7,9.76,3.12,3.62,3.17,7.19,6.39,10.7,9.67,1.5,1.4,3.2,2.24,4.9,1.03,1.96-1.4,4.29-2.86,4.09-5.83-.22-3.14-6.9-11.09-10.01-11.51-2.21-.29-3.64-1.39-5.06-2.82-1.05-1.06-2.09-2.42-3.73-2.2-6.38.88-9.68-2.83-12.57-7.75-2.4-4.09-5.65-5.23-10.51-2.97-9.39,4.36-19.38,6.57-29.82,5.69Z"/>
  <path class="cls-32" d="M1078.66,817.95c2.99.21,6.87.61,10.07,3.53,2.48,2.26,4.98,3.18,8.44.92,4.59-2.99,10.24-2.46,15.48-2.9,13.99-1.18,27.82-.95,40.88,5.46,4.14,2.03,6.1,4.87,4.63,9.08-1.5,4.3-5.34,4.51-9.19,3.62-17.12-3.94-34.19-3.47-51.23.48-1.28.3-2.43,1.12-3.7,1.45-4.12,1.06-7.71.88-10.48-3.22-4.56-6.73-6.08-6.89-12.57-2.41-3.39,2.34-6.23,1.05-6.55-2.98-.65-8.04,4.43-13.06,14.22-13.02ZM1077.88,819.99c-6.66,0-11.1,3.2-11.41,7.73-.11,1.6-.59,3.54,1.12,4.59,1.81,1.1,3.21-.35,4.35-1.44,2.71-2.59,5.72-2.55,8.69-.96,2.25,1.21,3.23,3.75,4.64,5.79,1.56,2.25,3.38,3.84,6.22,2.73,19.37-7.61,39.1-7.72,59.05-2.86,2.69.65,5.19.69,6.39-2.12,1.37-3.21-1-5.09-3.41-6.29-5.95-2.96-12.24-4.5-18.94-5.35-8.86-1.12-17.54.29-26.3.19-4.11-.05-7.88.73-11.37,2.98-2.67,1.72-5.51,1.77-7.66-.74-3.33-3.88-7.89-3.67-11.38-4.24Z"/>
  <path class="cls-26" d="M1006.26,905.1c-5.24-1.09-9.79-2.65-13.6-5.13-7.31-4.74-15.13-4.49-23.06-3.66-4.3.45-7.61-.69-9.85-4.21-1.56-2.45-3.5-3.36-6.25-3.1-3.26.31-6.29-.67-9.12-2.12-3.15-1.61-4.1-4.47-2.76-7.6,1.46-3.41,4.14-2.61,6.65-1.12,2.43,1.44,4.53.53,6.45-.93,1.31-1,2.41-2.29,3.59-3.46,4.09-4.07,7.67-3.69,10.12,1.47,2.16,4.56,4.94,6.82,10.2,5.07,2.56-.85,5.39-.29,7.84.7,7.98,3.23,16.33,5.59,23.84,9.94,2.72,1.57,5.38,3.78,3.82,7.15-1.58,3.41-4.31,6.22-7.87,7.01Z"/>
  <path class="cls-39" d="M979.3,1003.11c-10.93-1.06-22.22-3.23-33.71-3.11-12.78.13-25.59-.81-38.34.93-4.15.57-6.56-1.99-7.52-5.74-1.29-5.04-1.65-5.28-6.43-2.64-1.16.64-2.27,1.45-3.7,1.2-1.1-.19-1.74-.9-1.99-1.96-.4-1.69.36-2.96,1.63-3.9,3.45-2.58,7.26-4.58,10.68-7.27,2.79-2.19,5.48-.15,6.97,2.53,2.45,4.41,5.24,5.35,10.24,3.45,4.7-1.79,10.04-2.24,15.14-2.54,16.14-.96,32.19.1,48.09,3.14.49.09.96.29,1.44.4,5.32,1.23,8.94,4.76,8.46,8.24-.57,4.09-5.27,7.34-10.95,7.26Z"/>
  <path class="cls-15" d="M970.1,791.97c-6.17-4.69-12.49-2.4-18.89,2.7-2.05,1.64-5.66.79-7.78-1.56-2.51-2.77-5.32-2.16-7.62-.47-5.82,4.26-12.41,5.42-19.29,5.42-9.19,0-16.17,4.12-21.93,10.88-1.29,1.52-2.6,3.02-3.96,4.48-1.57,1.69-3.42,2.09-5.36.73-2.07-1.45-3.29-3.38-2.18-6.01,4.57-10.86,18.6-26.26,32.84-25.31,7.37.49,13.58-4.01,19.89-7.24,2.66-1.36,5.36-3.46,8.1-3.61,7.08-.4,14.37-.68,21.26.62,4.25.8,8.1,2.42,12.46.91,3.85-1.33,7.21-.65,9.7,2.85,1.62,2.27,1.77,4.64.26,6.97-3.14,4.87-10.36,8.67-17.51,8.63Z"/>
  <path class="cls-28" d="M1448.4,911.11c.2,5.67-5.03,8.46-10.56,6.16-7.79-3.23-14.22-8.51-20.56-13.89-4.8-4.07-9.98-7.72-13.33-13.27-.88-1.46-2.41-2.16-4.24-2.21-3.35-.1-5.33-2.03-6.88-4.92-3.3-6.14-2.71-11.35,2.55-15.81,2.86-2.43,5.63-1.1,6.8,1.9,1.78,4.53,4.38,6.53,9.41,5.91,3.43-.42,6.33,2.46,6.32,5.2-.02,7.81,5.93,9.79,10.98,12.51,7.51,4.03,12.92,10.32,18.68,16.25.62.64.7,1.79.84,2.18Z"/>
  <path class="cls-26" d="M858.66,887.3c-.28,2.43-2.4,4.9-5.7,5.43-8.06,1.3-15.96,3.29-23.47,6.31-6.27,2.51-10.64-1.64-12.02-6.61-2.32-8.39-2.62-8.6-10.79-5.95-2.36.77-4.42.53-5.64-1.68-1.14-2.07-.78-4.19,1.08-5.87,4.37-3.94,9.77-6.26,14.96-8.69,3.51-1.65,6.84.11,8.12,4.27.49,1.58.84,3.22,1.45,4.75,1.61,4.01,3.92,5.54,8.54,3.64,4.7-1.93,9.83-3.01,14.86-3.89,5.1-.89,8.75,2.42,8.59,8.29Z"/>
  <path class="cls-17" d="M745.51,972.96c-3.69-.11-6.21-2.09-7.95-5.17-1.45-2.56-3.4-4.43-6.25-5.39-6.06-2.05-8.99-7.23-11.41-12.47-1.65-3.58.86-6.49,3.87-8.26,3.04-1.79,5.09.38,6.5,2.76,1.88,3.2,4.45,4.7,7.87,3.23,4.71-2.03,7.95-.05,10.06,3.69,2.2,3.89,4.86,4.09,8.74,3.14,9.5-2.32,19.08-4.28,28.66-6.28,5.43-1.13,10.51,1.77,12.43,6.88,1.17,3.12-2.18,8.04-6.19,8.85-14.77,2.99-29.55,5.91-44.32,8.85-.65.13-1.32.12-2,.17Z"/>
  <path class="cls-18" d="M1353.46,977.83c-.02-7.31,3.72-11.11,8.11-14.24,2.06-1.47,4.59-.76,6.19,1.4,2.17,2.91,5,3.36,8.38,3.05,4.7-.42,9.36-.35,12.71,3.95,2.68,3.45,1.63,6.56-.74,9.48-2.27,2.8-5.1,4.69-8.59,2.11-3.22-2.4-5.62-1.55-8.36.84-4.72,4.12-9.05.42-13.34-1.23-2.89-1.11-4.27-3.56-4.36-5.36Z"/>
  <path class="cls-3" d="M971.52,1102.99c3.49,1.64,7.38,1.01,11,1.91,5.33-.23,10.49,1.8,15.84,1.16,10.33,1.53,20.72,2.03,31.15,2,.28.08.56.08.84,0,.94.87,2.13.81,3.29.88,11.27.64,22.53,1.66,33.81,1.87,23.79.43,47.6.64,71.34-1.08,5.87-.43,11.95.37,17.69-1.68,0,0-.04.02-.04.02,10.08-.09,20.17-.05,30.13-2,.27.08.55.08.82,0,5.52.15,10.95-.5,16.28-1.95,2.36.43,4.52-.41,6.71-1.05,4.5.07,8.91-.43,13.16-1.99,10.41-1.3,20.78-2.88,30.83-6.03,3.5,0,6.88-.62,10.1-1.99,10.19-1.44,19.93-4.8,29.95-6.96,26.63-5.75,51.99-15.43,77.39-25.01,3.99-1.5,8.3-2.12,12.47-3.15-.51,1.66-1.95,2.33-3.36,2.7-20.18,5.19-39.15,13.99-59.06,19.92-5.74,1.71-11.06,5.43-17.5,4.53-4.67,1.31-9.34,2.62-14.02,3.93-1.45-.14-2.74.33-3.98,1-8.02,1.85-16.03,3.78-24.08,5.53-20.17,4.39-40.55,7.58-60.93,10.89-14.18,2.3-28.38,2.04-42.52,3.51-35.3,3.67-70.76,2.43-106.12,1.77-20.64-.39-41.38-1.82-61.93-4.02-11.25-1.2-22.48-3.41-33.77-4.81-1.58-.2-3.06-1.15-4.58-1.76,0,0,.16-.21.16-.21,1.97.04,3.95.08,5.92.12,0,0,0,0,0,0,4.2,1.53,8.53,2.22,13.01,1.98Z"/>
  <path class="cls-3" d="M756.62,1050.01c5.54,1.67,11.32,2.79,16.56,5.13,10.24,4.57,21.73,4.84,31.78,9.84.57.29,1.1.67,1.65,1-2.75.4-5.08-1.02-7.61-1.62-12.9-3.08-25.31-7.7-37.99-11.46-1.75-.52-3.51-1.04-4.38-2.9Z"/>
  <path class="cls-3" d="M843.61,1076.95c8.9,2.16,17.79,4.4,26.72,6.46,3.35.77,6.79,1.1,10.19,1.64,2.64,2.1,5.83,1.91,8.92,2.17,2.34,1.94,5.65,1.1,8.07,2.83-4.26.47-8.19-1.16-12.21-2.05-12.89-2.86-25.98-4.81-38.59-8.91-1.33-.43-2.55-.7-3.09-2.13Z"/>
  <path class="cls-3" d="M806.61,1065.99c12.54,2.96,24.88,6.62,37.01,10.97-5.88,1.06-10.83-2.17-16.15-3.6-5.51-1.47-10.77-3.79-16.51-4.52-1.77-.22-3.52-.96-4.35-2.86Z"/>
  <path class="cls-3" d="M708.65,1031.99c6.76,3.22,14.78,3.2,20.91,8.05-6.9-2.86-15.13-2.27-20.91-8.05Z"/>
  <path class="cls-3" d="M910.55,1093c1.66,0,3.31.02,4.97.03,2.76,1.64,5.85,1.91,8.96,2.11,2.15,1.6,4.64.75,6.99.95,1.38.61,2.76,1.22,4.14,1.83l-.13.19c-8.46-.94-16.96-1.69-24.92-5.1Z"/>
  <path class="cls-3" d="M941.53,1098c.31.04.61.07.92.08,2.91,2.64,7,1.01,10.14,2.82,0,0-.16.21-.16.21-5.78-.32-11.7.18-16.96-3.01,0,0,.13-.19.13-.19,1.98.03,3.96.06,5.94.09Z"/>
  <path class="cls-3" d="M742.68,1044.92c4.95.85,9.58,2.59,13.93,5.09-5.2-.18-9.76-2.09-13.93-5.09Z"/>
  <path class="cls-3" d="M897.53,1090.06c4.36.91,8.86,1.13,13.02,2.94-4.53-.15-9.29.77-13.02-2.94Z"/>
  <path class="cls-11" d="M1286.36,1089.99c1.25-.66,2.54-1.14,3.98-1,1.31.22,2.67,1.22,1.47,2.15-1.77,1.38-4.24,2.05-5.45-1.15Z"/>
  <path class="cls-3" d="M734.63,1042.02c2.97.19,5.74.92,8.06,2.91-3.1.17-6.13.18-8.06-2.91Z"/>
  <path class="cls-3" d="M751.53,1008.09c7.61-.76,14.81,1.5,22.06,3.13,14,3.14,27.91,6.64,41.86,9.97,10.72,2.56,21.5,4.89,32.19,7.53,14.12,3.48,28.56,5.02,42.72,8.19,9.3,2.08,18.6,4.29,28,5.81,18.25,2.95,36.4,6.56,54.64,9.58,14.55,2.42,29.28,2.59,43.8,5.31,11.66,2.19,23.84,1.53,35.54,3.59,14.13,2.49,28.48.82,42.55,3.54,5.81,1.12,11.89,1.13,17.84,1.17,20.48.13,41.02.94,61.44-.22,18.13-1.02,36.31-2.16,54.41-4.32,14.61-1.75,29.18-3.86,43.8-5.5,4.3-.48,8.57-.88,12.88-.99,0,0,.19.28.19.28-.76.28-1.5.72-2.29.82-18.55,2.39-37.12,4.62-55.66,7.12-22.88,3.09-45.94,3.47-68.94,4.7-18.6.99-37.21-.56-55.81-.97-10.43-.23-20.86-1.15-31.26-2.1-15.5-1.42-30.97-3.11-46.45-4.73-11.85-1.24-23.68-2.69-35.54-3.77-10.4-.94-20.49-4.09-30.99-4.26-21.18-3.98-42.36-7.97-63.54-11.95-14.32-2.69-28.68-5.19-42.95-8.12-11.53-2.37-22.96-5.26-34.43-7.92-4.02-2.37-8.5-2.76-13.01-3h0c-3.69-2.21-7.69-3.22-11.99-3.02h0c-6.55-2.15-13.07-4.41-20.02-4.89-1.71-.28-3.59.31-5.08-1.03-1.96-1.89-4.45-1.94-6.93-2.01-3.15-.08-6.33.06-9.06-1.94Z"/>
  <path class="cls-29" d="M751.53,1008.09c2.73,2,5.92,1.86,9.06,1.94,2.48.06,4.98.12,6.93,2.01-5.65-.67-11.3-1.34-16.95-2-1.46-.3-2.93-.53-4.36-.9-17.96-4.61-35.87-9.32-51.48-20.05-5.7-3.92-10.86-8.09-13.17-14.91-.3-1.39-.6-2.78-.9-4.16,3.21,2.74,3.51,7.23,6.52,10.27,7.03,7.09,15.62,11.55,24.45,15.73,11.79,5.4,24.2,8.77,36.89,11.17.79,1.02,1.94.82,3.01.91Z"/>
  <path class="cls-3" d="M748.53,1007.18c-12.7-2.4-25.1-5.77-36.89-11.17,2.56-.34,5,.26,7.29,1.23,8.59,3.62,17.48,6.19,26.66,7.74,1.44.24,2.55.67,2.94,2.2Z"/>
  <path class="cls-3" d="M1305.32,1049.97c1.35.02,2.7.03,4.04.05-2.69.97-5.38,1.95-8.07,2.92,0,0,.03,0,.03,0-5.29.74-10.57,1.48-15.86,2.21,0,0-.19-.28-.19-.28,2.83-2.52,6.52-2.37,9.87-2.75,3.51-.39,6.78-1.49,10.18-2.16Z"/>
  <path class="cls-30" d="M1301.3,1052.95c2.69-.97,5.38-1.95,8.07-2.92,0,0-.01,0-.01,0,4.5-.3,8.99-.63,13-3.01,0,0,0,0,0,0,3.71-.86,7.67-.81,11.03-2.97,0,0-.02.01-.02.01,2.85.06,5.59-.32,7.98-2.05,0,0,0,0,0,0,4.03.33,7.4-1.71,10.98-3.03,4.96-2.87,11.01-2.24,16-5.01,2.9.18,5.66-.28,8.16-1.88,8.82-3.15,17.72-6.06,26.32-9.85,3.71-1.63,7.33-3.77,11.49-4.28-.33.68-.66,1.35-.99,2.03-9.45,3.96-18.66,8.65-28.38,11.74-21.31,6.78-42.79,13.06-64.55,18.27-6.55-.32-12.52,3.17-19.06,2.93Z"/>
  <path class="cls-3" d="M1322.36,1047.02c-4.02,2.38-8.51,2.71-13,3.01,3.98-2.54,8.51-2.69,13-3.01Z"/>
  <path class="cls-3" d="M1333.38,1044.06c-3.36,2.16-7.32,2.11-11.03,2.97,3.08-3.21,7.15-2.76,11.03-2.97Z"/>
  <path class="cls-3" d="M1424.45,1012.09c-2.86,1.99-5.58,4.23-9.15,4.85,2.54-2.58,5.18-4.97,9.15-4.85Z"/>
  <path class="cls-3" d="M1352.32,1039c-3.57,1.32-6.95,3.35-10.98,3.03,3.37-2.06,6.99-3.21,10.98-3.03Z"/>
  <path class="cls-3" d="M1341.35,1042.02c-2.39,1.73-5.13,2.12-7.98,2.05,2.3-2.09,5.12-2.15,7.98-2.05Z"/>
  <path class="cls-3" d="M1376.47,1032.11c-2.49,1.6-5.25,2.06-8.16,1.88,2.42-1.92,5.23-2.17,8.16-1.88Z"/>
  <path class="cls-4" d="M1320.36,1050.02c21.76-5.21,43.24-11.49,64.55-18.27,9.72-3.09,18.94-7.78,28.38-11.74,24.05-10,46.12-22.99,62.22-44.03,9.85-12.87,17.37-26.9,13.96-44.19-.24-1.22-.77-2.9.82-3.54,2-.81,3.17,1,3.98,2.27,4.35,6.86,8.73,13.71,9.88,22.07,1.29,9.4,1.05,18.56-3.37,27.21-4.45,8.72-11,15.9-18.27,22.14-14.02,12.02-29.85,21.67-46.25,29.86-17.91,8.95-35.93,18.06-54.96,24.43-23.13,7.74-45.7,17.26-69.34,23.38-30.03,7.77-60.2,15.11-90.85,20.13-21.3,3.49-42.82,5.1-64.37,6.51-23.74,1.55-47.48,2.88-71.24,2.45-22.91-.42-45.81-1.46-68.69-3.28-11.4-.91-22.8-2.43-34.28-2.51-9.26-2.72-18.95-2.83-28.36-4.74-15.11-3.06-30.42-5.17-45.46-8.5-15.22-3.37-30.53-6.42-45.65-10.14-17.38-4.28-34.51-9.61-51.66-14.8-18.06-5.46-36.11-10.98-53.98-17.02-15.21-5.14-30.42-10.44-45.13-16.82-12.42-5.39-24.18-12.35-36.2-18.62-11.49-6-20.64-13.83-27.26-24.66-4.33-7.08-5.69-14.95-2.32-22.9,4.77-11.23,13-19.51,23.18-25.97,1.04-.66,2.22-.99,3.26-.22.92.68.74,1.84.45,2.78-3.9,12.62,1.77,22.84,8.16,32.9,2.31,6.82,7.47,10.99,13.17,14.91,15.62,10.73,33.52,15.44,51.48,20.05,1.44.37,2.91.6,4.36.9,2.12,2.29,5.12,2.52,7.82,2.74,15,1.2,29.08,6.56,43.67,9.57,9.42,1.94,18.67,4.69,28.09,6.64,14.44,2.99,28.62,7.04,43.37,8.75,9.83,1.14,19.39,4.45,29.17,6.29,18.74,3.52,37.54,6.74,56.33,9.98,12.09,2.09,24.16,5.1,36.34,5.73,18.61.97,36.97,3.85,55.46,5.65,22.33,2.18,44.68,3.81,67.07,4.43,22.95.63,45.92.54,68.88-.71,10.95-.6,21.92-1,32.79-2.3,24.36-2.91,48.79-5.4,72.91-9.97,9.39-1.78,18.88-3.33,27.87-6.82Z"/>
  <path class="cls-5" d="M1156.47,1108.04c-5.74,2.05-11.82,1.25-17.69,1.68-23.74,1.72-47.55,1.51-71.34,1.08-11.28-.21-22.54-1.23-33.81-1.87-1.16-.07-2.35,0-3.29-.88,20.69.65,41.38,1.81,62.06,1.8,21.35-.01,42.71-1.16,64.06-1.81Z"/>
  <path class="cls-3" d="M1498.26,933c2.52,1.07,3.75,3.5,4.67,5.64,3.94,9.15,8.41,18.55,6.06,28.7-1.35,5.82-2.77,12.22-7.69,16.66-.29-2.91,2.01-4.79,2.95-7.22,5.55-14.41,3.04-27.84-4.55-40.73-.58-.99-1.5-1.78-1.43-3.06Z"/>
  <path class="cls-5" d="M1186.56,1106.06c-9.96,1.95-20.05,1.92-30.13,2,5.6-2.1,11.56-1,17.32-1.93,4.17-.67,8.53-.1,12.81-.08Z"/>
  <path class="cls-5" d="M1029.51,1108.06c-10.43.03-20.82-.47-31.15-2,9.71-.84,19.33,1.2,29.02,1.01.7-.01,1.42.64,2.13.98Z"/>
  <path class="cls-5" d="M1203.67,1104.11c-5.33,1.44-10.76,2.1-16.28,1.95,5.31-1.6,10.73-2.37,16.28-1.95Z"/>
  <path class="cls-5" d="M1223.53,1101.06c-4.25,1.56-8.66,2.07-13.16,1.99,4.22-1.78,8.63-2.25,13.16-1.99Z"/>
  <path class="cls-5" d="M1264.46,1093.04c-3.23,1.37-6.6,1.99-10.1,1.99,3.1-2.01,6.58-2.14,10.1-1.99Z"/>
  <path class="cls-8" d="M952.59,1100.9c-3.14-1.81-7.23-.18-10.14-2.82,5.48.29,10.9.91,16.06,2.94-1.97-.04-3.95-.08-5.92-.12Z"/>
  <path class="cls-8" d="M971.52,1102.99c-4.47.24-8.8-.44-13.01-1.98,4.46-.14,8.87.02,13.01,1.98Z"/>
  <path class="cls-8" d="M941.53,1098c-1.98-.03-3.96-.06-5.94-.09-1.38-.61-2.76-1.22-4.14-1.83,3.53-.25,6.88.43,10.07,1.92Z"/>
  <path class="cls-8" d="M889.44,1087.21c-3.09-.25-6.28-.06-8.92-2.17,3.13.06,6.21.37,8.92,2.17Z"/>
  <path class="cls-8" d="M924.47,1095.13c-3.11-.19-6.19-.46-8.96-2.11,3.18-.13,6.26.19,8.96,2.11Z"/>
  <path class="cls-38" d="M1191.39,995c-2.66-.2-4.62-1.93-6.53-3.42-8.41-6.54-18.95-5.75-27.39-.6-2.82,1.72-5.49,3.71-8.26,5.52-2.02,1.32-4.27,2.25-6.55.92-2.27-1.32-3.32-3.37-3.34-6.22-.05-8.05-.86-8.47-8.73-5.87-1.38.46-2.94.69-4.39.61-9.69-.54-19.11,1.53-28.6,2.87-3.11.44-5.57-.51-6.62-3.15-1.39-3.5-2.85-5.17-6.98-3.85-2.74.87-4.12-1.37-3.28-3.91,1.18-3.58,3.61-6.63,7.23-7.71,3.77-1.13,7.58.15,9.59,3.65,2.81,4.9,6.5,4.65,11.06,3.29,11.44-3.4,23.14-5.61,34.96-7.16,4.18-.55,7,1.01,7.98,5.51.71,3.26,2.94,3.87,6.12,2.98,13.63-3.82,25.81-.35,37.03,7.68,1.91,1.37,3.29,2.88,2.29,5.41-.81,2.03-3.42,3.6-5.59,3.44Z"/>
  <path class="cls-27" d="M1250.5,859.06c10.44.88,20.43-1.33,29.82-5.69,4.86-2.26,8.11-1.11,10.51,2.97,2.89,4.92,6.19,8.62,12.57,7.75,1.64-.23,2.68,1.14,3.73,2.2,1.42,1.43,2.85,2.52,5.06,2.82,3.11.41,9.79,8.36,10.01,11.51.21,2.97-2.12,4.43-4.09,5.83-1.7,1.21-3.4.37-4.9-1.03-3.51-3.29-7.08-6.5-10.7-9.67-2.77-2.43-5.5-4.75-9.76-3.12-2.23.85-4.57-.55-5.58-2.41-3.06-5.63-6.94-5.62-12.3-3.29-5.12,2.23-10.91,1.54-16.25.74-5.66-.85-11.27-.31-16.88-.75-2.89-.22-4.03,1.72-5.47,3.56-1.49,1.89-3.48,3.84-5.8,1.64-1.96-1.86-1.09-4.13.49-6.23,5-6.68,11.77-8.1,19.55-6.83Z"/>
  <path class="cls-7" d="M1077.88,819.99c3.49.56,8.05.35,11.38,4.24,2.15,2.51,4.98,2.46,7.66.74,3.49-2.25,7.26-3.03,11.37-2.98,8.76.11,17.44-1.3,26.3-.19,6.7.85,12.99,2.39,18.94,5.35,2.41,1.2,4.77,3.08,3.41,6.29-1.2,2.81-3.7,2.78-6.39,2.12-19.96-4.86-39.68-4.75-59.05,2.86-2.84,1.11-4.67-.47-6.22-2.73-1.41-2.04-2.38-4.58-4.64-5.79-2.98-1.59-5.98-1.63-8.69.96-1.14,1.09-2.54,2.55-4.35,1.44-1.71-1.05-1.23-2.99-1.12-4.59.31-4.53,4.75-7.72,11.41-7.73Z"/>
  <path class="cls-22" d="M1320.36,1050.02c-8.99,3.49-18.48,5.04-27.87,6.82-24.12,4.56-48.56,7.05-72.91,9.97-10.87,1.3-21.84,1.71-32.79,2.3-22.96,1.25-45.93,1.34-68.88.71-22.39-.62-44.74-2.25-67.07-4.43-18.49-1.81-36.85-4.68-55.46-5.65-12.18-.63-24.25-3.64-36.34-5.73-18.79-3.24-37.59-6.46-56.33-9.98-9.78-1.84-19.33-5.15-29.17-6.29-14.75-1.71-28.94-5.76-43.37-8.75-9.42-1.95-18.67-4.7-28.09-6.64-14.6-3.01-28.67-8.36-43.67-9.57-2.7-.22-5.7-.45-7.82-2.74,5.65.67,11.3,1.34,16.95,2,1.49,1.34,3.38.74,5.08,1.03,6.42,2.65,13.07,4.4,20.02,4.9,0,0,0,0,0,0,3.77,1.89,7.81,2.75,11.99,3.02,0,0,0,0,0,0,4.12,1.92,8.45,2.96,13.01,3,11.47,2.66,22.9,5.55,34.43,7.92,14.27,2.93,28.63,5.43,42.95,8.12,21.18,3.98,42.36,7.96,63.54,11.95,13.73,3.78,27.85,5.84,41.92,6.73,18.54,1.17,36.89,3.84,55.32,5.7,23.45,2.36,46.93,3.46,70.42,4.41,24.07.97,48.16-.15,72.19-1.84,12.05-.85,24.1-1.92,36.11-3.23,14.96-1.63,29.79-4.26,44.76-5.9,7.44-.82,15-1.97,22.07-4.89,0,0-.03,0-.03,0,6.54.24,12.51-3.25,19.06-2.93Z"/>
  <path class="cls-30" d="M1301.32,1052.95c-7.07,2.92-14.63,4.07-22.07,4.89-14.97,1.64-29.8,4.27-44.76,5.9-12.01,1.31-24.06,2.38-36.11,3.23-24.03,1.7-48.12,2.81-72.19,1.84-23.49-.94-46.97-2.05-70.42-4.41-18.43-1.85-36.79-4.53-55.32-5.7-14.08-.89-28.2-2.95-41.92-6.73,10.5.16,20.59,3.32,30.99,4.26,11.86,1.07,23.69,2.53,35.54,3.77,15.48,1.62,30.95,3.31,46.45,4.73,10.4.95,20.83,1.87,31.26,2.1,18.6.42,37.21,1.96,55.81.97,23-1.22,46.06-1.61,68.94-4.7,18.54-2.5,37.11-4.74,55.66-7.12.78-.1,1.52-.54,2.29-.82,5.29-.74,10.58-1.47,15.86-2.21Z"/>
  <path class="cls-29" d="M792.63,1017.97c-6.95-.5-13.6-2.24-20.02-4.9,6.95.49,13.47,2.74,20.02,4.9Z"/>
  <path class="cls-29" d="M817.61,1023.98c-4.56-.04-8.88-1.08-13.01-3,4.51.24,8.99.63,13.01,3Z"/>
  <path class="cls-29" d="M804.61,1020.99c-4.18-.27-8.21-1.14-11.99-3.02,4.3-.2,8.3.81,11.99,3.02Z"/>
</svg>