<?xml version="1.0" encoding="UTF-8"?>
<svg id="Layer_1" xmlns="http://www.w3.org/2000/svg" viewBox="0 0 2000 2000">
  <defs>
    <style>
      .cls-1 {
        fill: #741711;
      }

      .cls-2 {
        fill: #853531;
      }

      .cls-3 {
        fill: #7f2a26;
      }

      .cls-4 {
        fill: #721410;
      }

      .cls-5 {
        fill: #ad613d;
      }

      .cls-6 {
        fill: #e6a049;
      }

      .cls-7 {
        fill: #721f2c;
      }

      .cls-8 {
        fill: #e75325;
      }

      .cls-9 {
        fill: #ea5424;
      }

      .cls-10 {
        fill: #76232c;
      }

      .cls-11 {
        fill: #ea5624;
      }

      .cls-12 {
        fill: #f05524;
      }

      .cls-13 {
        fill: #731511;
      }

      .cls-14 {
        fill: #f0cd21;
      }

      .cls-15 {
        fill: #be862d;
      }

      .cls-16 {
        fill: #f2b24c;
      }

      .cls-17 {
        fill: #ee5523;
      }

      .cls-18 {
        fill: #72120f;
      }

      .cls-19 {
        fill: #bf7641;
      }
    </style>
  </defs>
  <path class="cls-2" d="M555.53,1058.37c.75-2.17,2.94-2.56,4.57-3.58,25.55-15.95,52.02-30.32,78.99-43.6,25.8-12.71,52.21-24.19,78.62-35.61,22.59-9.77,45.26-19.55,68.45-27.72,20.24-7.13,40.21-15.08,60.76-21.31,22.61-6.85,45.11-14.23,68.01-19.97,29.85-7.48,59.41-16.35,89.7-21.86,24.06-4.37,48.02-9.32,72.18-13.23,18.4-2.98,36.78-6.31,55.28-8.24,17.05-1.78,34.06-3.93,51.1-5.75,33.14-3.55,66.33-6.14,99.68-5.88,19.04.15,37.57,3.48,54.74,11.84,16.66,8.11,26.39,21.87,29.32,40.27.99,6.23,1.72,6.68,7.78,4.5,18.84-6.76,47.85.54,62.3,17.86.28.33.26.92.38,1.38-.69-.44-1.46-.78-2.04-1.33-9.49-8.87-19.99-15.48-33.31-17.29-10.67-1.45-21.04-2.31-31.06,2.72-1.22.61-2.82.81-2.1,2.59.61,1.52,2.03,1.61,3.35.76,5.65-3.62,12.22-4.44,18.45-4.17,11.67.49,23.18,2.59,33.04,9.76,11.87,8.64,19.02,19.76,18.59,34.93-.05,1.83-.18,3.68.02,5.49,1.04,9.32-3.03,16.59-9.05,23.12-.97,1.05-2.81,2.25-1.5,3.69,1.62,1.77,2.95-.2,4.06-1.28,9.86-9.62,12.51-27.35,9.24-40.42-1.66-6.63-5.89-12.11-7.72-18.62,15.09,18.08,14.82,46.26-2.3,61.97-4.44,4.07-4.4,4.22-.19,8.36,7.96,7.84,15.62,15.92,19.83,26.61,5.74,14.59,7.11,29.64,5.07,45.08-3.62,27.36-18.39,48.59-36.85,67.98-20.09,21.11-43.96,37.5-67.11,54.8-.36.27-.93.26-1.4.38.58-2.11,2.34-3.12,3.97-4.26,17.13-11.97,33.37-25.09,49.5-38.35,5.21-4.28,9.96-9.15,13.12-15.37-4.26,3.26-7.53,7.52-11.55,10.93-17.94,15.23-36.95,29.08-56.09,42.73-8.71,6.21-18.24,11.31-26.76,17.77-8.09,6.13-17.04,10.81-25.57,16.09-11.13,6.9-22.84,13.03-34.4,19.27-13.35,7.21-26.95,13.85-40.57,20.44-11.18,5.41-22.28,11.01-33.92,15.51-9.96,3.85-19.83,8.04-29.62,12.38-8.72,3.86-17.79,7.55-27.13,9.89-4.4,1.1-8.28,3.48-12.46,4.39-8.52,1.85-16.32,5.69-24.52,8.3-9.82,3.14-19.79,5.89-29.7,8.6-4.34,1.19-8.27,3.37-12.59,4.2-8.08,1.56-16.11,3.17-23.65,6.62-1.01.46-2.26.42-3.4.57-7.16.94-14.03,3.1-20.85,5.28-2.72.87-5.25,2.01-8.15,1.72-2.88-.29-5.73.22-8.33,1.19-7.28,2.7-15.53,1.34-22.44,5.6-.98.61-2.64.01-3.94.24-8.27,1.45-16.71,2.31-24.72,4.65-9.56,2.79-19.53,2.75-29.06,5.34-3.81.09-7.9-.67-11.37.45-8.82,2.85-17.78,3.44-26.9,3.58-3.43.05-6.95.43-9.72,2.94-1.33,0-2.65.02-3.98.02-12.02-1.59-23.35,4.03-35.33,3.41-2.15-.11-4.59.26-6.85.62-4.97.78-10.26.06-14.8,2.96-.33,0-.66,0-.99,0-7.75,0-15.51-.2-23.25.06-5.02.17-10.1.6-14.74,2.93h0c-11.65,0-23.31-.4-34.93.16-5.99.29-12.16-.03-18.04,1.84h0c-5.91-.55-11.8-.37-17.74-.29-26.6.36-53.24,1.33-79.79-.94-5.88-.5-12.05.29-17.7-2.07-4.14-1.73-8.39-1.86-12.73-1.69-12.54-4.66-25.77-7.69-36.18-17.04-8.75-7.87-16.11-16.56-19.79-27.94-1.8-8.83-5.22-17.5-2.3-26.78.57-1.82.36-3.94.28-5.91-.12-3.07.64-5.68,2.36-8.36,5.74-8.98,5.19-11.28-3.36-17.91-4.09-2.83-8.21-5.61-11.68-9.24-7.8-8.15-14.65-16.99-18.54-27.66-1.35-3.72-3.58-7.16-4.44-10.85-1.43-6.16-2.8-12.41-4.2-18.55-4.78-20.93-1.4-41.21,4.75-60.87,2.15-6.86,5.29-14.19,9.71-20.68,5.79-8.5,11.64-16.89,18.49-24.51,9.35-10.4,20.79-18.35,31.98-26.6,14.64-10.79,30.93-18.88,46.27-28.51,5.76-3.62,12.3-5.86,18.23-9.33,7.57-4.43,15.62-8.04,23.3-12.29,6.25-3.46,13.13-5.42,19.38-9.02,4.9-2.81,10.03-5.77,15.41-7.54,6.93-2.29,13.33-5.85,20.07-8.47,6.25-2.43,12.87-5.24,18.9-8.82,2.41-1.43,5.13-2.85,7.88-3.8,5.39-1.86,10.8-3.62,15.41-7.13,9.35-.05,16.41-6.7,25.11-8.7,4.57-1.05,8.16-4.49,12.99-5.56,3.71-.82,8-1.82,10.96-4.05,4.62-3.49,10.19-3.66,15.15-5.23,5.73-1.81,11.05-4.57,16.81-6.26,7.51-2.2,14.55-6.14,22.13-7.91,6.69-1.57,13.02-4.2,19.73-5.76,5.06-1.18,10.33-3.39,15.36-4.96,9.29-2.91,18.58-6.05,28.1-8.38,8.73-2.14,17-6.13,26.24-6.29,1.12-.02,2.38-.4,3.31-1.01,6.04-3.95,13.33-3.51,19.94-5.41,4.72-1.36,9.08-4.49,14.12-4.29,6.99.28,13.77-1.95,19.63-4.41,7.32-3.07,14.87-3.05,22.13-4.29,10.32-1.76,20.18-6.38,30.95-5.56.45.03.94-.3,1.4-.48,8.35-3.23,17.41-4.34,25.97-5.71,10.94-1.76,21.95-4.64,33.18-4.5,3.66.05,5.87-3.08,9.29-3.11,6.94-.07,13.76-.22,20.67-1.86,12.17-2.9,24.82-2.07,37.31-4.3,12.09-2.16,24.87-3.39,37.45-3.87,4.47-.17,8.94-.22,13.41-.48,8.8-.52,17.42-3.47,26.02-3.22,23.09.67,46.5-3.8,69.26,3.61,2.16.7,4.88-.67,6.84.73,4.75,3.39,10.81,2.88,15.85,5.98,2.86,1.76,6.77,2.8,9.31,5.05,9.95,8.81,18.31,18.71,18.16,33.18-.02,1.53.14,3.86,2.43,3.52,1.78-.27,1.58-2.37,1.41-3.82-1.79-15.34-8.7-27.94-21.7-36.3-16.91-10.88-36.19-14.21-55.9-15.17-19.13-.93-38.23.98-57.35,1.05-.82,0-1.65.17-2.47.29-14.42,2.14-28.99,2.74-43.47,4.32-13.98,1.53-27.89,3.8-41.94,4.81-11.36.82-22.57,2.95-33.85,4.32-14.12,1.71-28.04,4.45-42.06,6.68-10.43,1.67-20.8,3.74-31.21,5.54-9.94,1.72-19.65,4.52-29.82,5.34-6.16.5-12.14,3.09-18.25,4.55-13.33,3.19-26.9,5.56-39.98,9.57-12,3.69-24.37,5.71-36.35,9.33-9.47,2.87-19.04,5.39-28.52,8.24-9.17,2.76-18.19,6.07-27.45,8.5-5.93,1.55-11.8,3.3-17.57,5.27-12.05,4.11-23.82,9.05-35.91,13.01-11.02,3.61-21.96,7.42-32.74,11.64-10.52,4.12-20.79,8.9-31.17,13.39-5.46.79-10.12,3.5-15.04,5.79-15.99,7.44-32.16,14.51-48.37,21.47-11.83,5.08-23.01,11.5-35.01,16.28-8.84,3.52-16.84,9.09-25.39,13.39-14.42,7.26-28.57,14.93-42.19,23.62-5.07,3.24-10.28,6.37-16.04,8.33ZM1252.56,1225.61c7.32-2.63,14.17-6.26,20.98-9.98,3.9-2.14,7.48-4.89,11.8-6.26,4.91-1.93,9.25-4.83,13.45-7.94,1.39-1.03,4.58-1.74,3.01-4.15-1.36-2.08-3.9-.6-5.81.31-3.23,1.55-6.43,3.18-9.64,4.77,1.27-3.06,7.57-3.48,4.64-8.79-.06-.1.64-.69,1.04-.96,2.49-1.62,4.95-3.31,7.52-4.79,16.27-9.29,31.12-20.66,45.83-32.12,14.21-11.07,28.51-22.03,41.41-34.79,7.02-6.95,13.35-14.13,18.52-22.45,7.05-8.39,11.35-17.97,14.64-28.51,3.85-12.31,4.43-23.72.68-36.23-3.49-11.65-10.35-20.35-18.89-28.01-5.27-4.73-11.48-7.66-19.38-7.45-11.15.3-22.15.8-33.04,3.37-7.05,1.66-14.33,1.41-21.49,3.42-6.58,1.85-13.31,3.8-20.19,4.99-4.33.75-9.52,1.04-13.19,3.26-6.42,3.89-13.8,3.03-20.43,5.74-3.32,1.35-6.35,3.82-9.9,4.22-5.52.62-10.91.32-16.37,2.9-6.43,3.05-13.61,4.71-20.62,6.29-5.2,1.17-10.01,3.24-14.95,5.03-6.45,2.34-13.69,2.15-19.63,6.17-.77.52-1.86.76-2.81.78-10.14.14-18.8,5.48-28.14,8.33-3.1.94-6.68.65-9.33,2.57-4.43,3.21-9.88,3.77-14.75,5.51-3.83,1.38-7.51,4.15-11.37,4.3-10,.4-18.67,5.05-27.85,7.83-9.91,3-19.65,6.83-29.4,10.42-10.74,3.95-22.33,5.14-32.57,10.36-3.94,2.01-8.52,1.84-12.15,4.01-5.05,3.02-10.72,3.94-16.13,5.59-5.32,1.63-10.8,3.19-16,4.91-5.54,1.83-11.34,3.21-16.83,5.49-3.76,1.56-7.22,4.12-11.42,4.63-8.59,1.04-16.11,5.47-24.3,7.86-6.07,1.77-12.21,3.96-18.25,5.7-8.34,2.4-16.1,6.27-24.58,8.3-8.87,2.12-17.01,6.76-26.06,8.79-6.73,1.5-13.1,4.67-19.71,6.33-5.45,1.37-10.03,4.72-15.78,5.33-4.14.44-8.48,2.03-12.04,4.23-4.81,2.96-10.4,4.42-15.33,4.98-6.32.72-11.92,3.33-17.38,5.31-8.11,2.94-16.43,5.58-24.53,8.62-8.62,3.24-17.63,5.87-26.62,8.32-11.02,3-22.04,6.75-32.69,11.04-13.34,5.39-27.26,8.7-40.83,13.2-8.09,2.69-16.32,5.05-24.22,8.23-8.2,3.3-16.59,6-24.95,8.77-5.48,1.82-11.31,2.76-16.57,5.04-6.95,3.01-13.97,5.89-20.71,9.49-11.78,6.29-23.51,12.71-31.25,23.9-6.22,8.99-13.62,17.75-12.37,30.07.43,4.25,2.01,7.86,3.55,11.72,4.51,11.33,10.87,21.27,20.83,28.4,11.43,8.18,23.78,14.18,38.43,13.32,20.62-1.22,41.3-2,61.65-5.93,11.93-2.3,24.13-.1,36.14-2.85,8.3-1.9,17.21-1.07,25.63-2.6,16.96-3.09,34.13-3.83,51.21-5.62,12.44-1.31,24.63-4.18,37.25-4.81,7.46-.37,14.96-2.47,22.64-2.21,2.47.08,4.92-.25,7.4-.64,8.95-1.4,17.68-4.7,26.99-3.4,1.23.17,2.71-.18,3.85-.75,4.49-2.25,9.25-2.32,14.1-2.21,4.7.1,9.23-.93,13.56-2.69,1.71-.7,3.36-1.5,5.26-1.27,9.44,1.15,18.28-2.48,27.39-3.79,10.39-1.49,20.59-4.43,31.2-4.7-.13.29-.18.75-.4.85-10.62,4.77-21.94,6.87-33.34,8.58-2.79.42-5.39.63-6.88,4.07,3.47,0,6.45,0,9.44,0-1.24,1.27-2.95,1.53-4.53,1.84-9.57,1.91-19.03,4.28-28.38,7.09-1.53.46-3.17.78-2.79,2.73.35,1.8,2.12,1.4,3.32,1.15,12.16-2.51,24.58-3.46,36.67-6.38,7.38-1.78,14.85-3.32,22.36-4.34,6.08-.83,12.1-1.85,18.08-3.18,15.03-3.36,30.07-6.66,44.94-10.76,13.87-3.82,27.96-6.88,41.87-10.56,21.33-5.64,41.81-13.97,62.99-20.16,7.69-2.24,15.58-4.66,22.35-9.41,2-.73,4.01-1.42,5.99-2.2,9.97-3.92,20.05-7.59,29.86-11.86,12.56-5.47,25.02-11.2,37.31-17.26,10.47-5.16,21.5-9.33,30.94-16.45ZM1018.49,1055.47c5.62-2.5,11.66-4.33,16.77-7.62,14.65-9.42,29.27-18.87,44.1-28.01,14.37-8.86,29.96-14.58,46.14-18.2,21.31-4.76,43.12-4.71,64.93-4.45,26.28.31,52.6,1.52,78.87-.71,15.01-1.27,29.4-5.43,43.58-10.05,9.96-3.24,18.68-9.29,27.23-15.4,8.71-6.22,14.96-13.92,17.29-24.66,2.35-10.85-4.36-20.22-15.44-20.83-12.24-.67-21.31,5.84-30.3,13.02-13.04,10.42-24.09,23.15-39.43,30.95-11.6,5.9-23.54,9.01-36.19,9.92-20.04,1.44-39.81-1.63-59.55-4.45-18.79-2.69-37.57-5.13-56.58-2.5-16.44,2.27-30.85,8.96-43.11,20.11-14.04,12.77-25.32,28.23-39.66,40.74-7.94,6.93-16.16,13.51-26.13,17.01-25.9,9.08-51.95,4.54-77.73-.65-14.63-2.94-28.8-8.01-43.54-10.67-11.33-2.05-22.73-3.02-34.15-1.01-16.67,2.93-31.59,10.38-45.38,19.67-20.29,13.68-37.67,31-56.26,46.82-14.79,12.59-29.99,24.59-47.89,32.88-16.61,7.69-33.55,12.61-52,11.03-10.99-.94-21.65-3.56-32.05-7.06-16.92-5.68-34.1-8.49-51.96-6.06-7.11.97-12.19,4.99-14.99,11.05-2.27,4.93,2.46,8.1,5.24,11.51.74.9,1.46,1.82,2.22,2.69,7.61,8.67,18,10.25,28.59,10.68,10.47.42,20.9-1,31.34-1.71,19.09-1.29,38.04-3.53,56.63-8.19,12.39-3.11,25.05-5.49,36.52-11.48,19.56-10.21,37.22-23.12,53.33-38.18,14.58-13.62,29.58-26.71,46.64-37.22,7.85-1.61,14.45-6.46,22.02-8.7,24.86-7.39,50.06-6.05,75.36-2.67,15.41,2.05,30.84,4.26,46.34,5.19,17.18,1.03,34.01-2.09,50.21-8.01,3.14-1.15,6.92-1.46,9-4.77ZM502.82,1180.54c.26,5.36.99,13.08,2.77,20.75,2.92,12.63,5.85,25.14,12.63,36.49,4.01,6.71,9.21,12.61,12.68,19.67,1.4,2.86,3.64,2,5.09-.11,1.92-2.78,4.19-5.2,6.81-7.25,2.89-2.26,1.86-3.95-.6-5.3-13.36-7.35-20.75-19.37-24.82-33.36-6.05-20.8-2.03-39.74,12.73-55.98,2.05-2.26,2.82-4.7,2.77-7.7-.11-7.3,2.48-13.54,7.66-18.77,5.59-5.64,12.35-8.4,20.05-10.17,10.87-2.5,21.67-6.05,32.84-4.11,7.45,1.29,13.71-.87,20.25-3.3,9.18-3.4,18.32-6.94,27.6-10.02,11.48-3.82,23.32-6.65,34.73-10.5,25.47-8.6,50.88-17.22,77.03-23.57,5.99-1.45,12.33-1.73,17.66-6.11,15.08-12.43,30.08-24.94,48.07-33.33,15.74-7.34,31.89-12.38,49.35-12.24,17.21.14,33.97,3.34,50.4,8.33,2.65.8,5.07.76,7.69-.49,12.32-5.9,25.3-10.17,38.37-13.85,14.55-4.09,28.88-8.8,43.1-13.84,15.2-5.4,30.77-9.37,46.39-13.2,2-.49,3.84-1.08,5.3-2.53,6.03-5.99,12.76-11.06,19.83-15.78,8.55-5.71,17.93-9.35,27.79-11.7,19.43-4.62,39.02-2.84,58.34.42,7.82,1.32,14.66.46,21.68-2.35,1.85-.74,3.75-1.38,5.66-1.94,17.83-5.2,35.61-10.62,53.53-15.48,12.46-3.38,24.72-7.54,37.72-9,6.46-.73,13.56-.98,19.04-5.09,12.01-9.02,24.8-14.65,40.22-11.68,1.3.25,2.77.27,3.58-1.1.86-1.44.65-2.92-.46-4.15-1.55-1.75-2.69-3.81-4.1-5.61-4.2-5.35-8.41-11.13-14.85-13.73-13.66-5.51-27.95-8.19-42.78-8.28-20.98-.12-41.75,2.77-62.58,4.44-24.29,1.96-48.66,3.17-72.87,6.37-18.25,2.41-36.48,4.91-54.65,7.79-15.56,2.46-30.96,5.9-46.52,8.34-18.37,2.88-36.58,6.41-54.62,10.89-15.95,3.96-31.84,8.3-47.94,11.5-9.97,1.98-19.63,4.92-29.36,7.58-16.31,4.46-32.35,9.88-48.6,14.53-21.87,6.25-42.82,15.18-64.5,21.99-19.14,6.01-37.58,14.07-56.21,21.42-24,9.47-47.85,19.56-70.92,31.24-12.28,6.21-24.94,11.6-37.11,18.08-20.64,10.98-41.3,22-60.92,34.62-17.23,11.08-34.68,22.17-48.08,38.39-8.48,10.25-17.04,20.12-21.23,33.16-3.49,10.87-5.82,21.79-5.63,35.65ZM549.02,1191.39c1.97-.13,4.13.04,5.03,2.18.99,2.36-1.34,2.97-2.71,4.03-.99.78-2.61,1.41-1.96,3.02.53,1.31,2.08.9,3.14.78,4.24-.47,7.74,1.63,11.39,3.14,1.51.63,2.99,1.79,2.6,3.8-.36,1.87-2.02,1.82-3.52,2.11-3.74.72-7.51,1.41-11.15,2.5-2.84.85-4.53,2.64-1.63,5.38.94.89,2.24,1.4,3.41,2.02,2.18,1.15,5.25,2.02,3.77,5.3-1.34,2.98-3.91,1.56-6.04.58-1.44-.66-2.95-1.22-4.05.31-1.11,1.56-.72,3.2.62,4.51,1.68,1.65,2.86,3.62,4.05,5.64,1.86,3.16,4.4,3.66,7.51,1.41,11.26-8.15,23.83-13.95,36.96-17.9,23.8-7.16,46.88-16.39,70.74-23.38,21.12-6.18,41.73-14.11,62.75-20.73,17.99-5.67,35.54-12.75,53.57-18.3,14.54-4.48,28.91-9.43,43.34-14.19,30.85-10.18,61.77-20.12,92.62-30.3,17.6-5.81,35.08-11.97,52.67-17.83,4.22-1.41,8.65-2.16,12.94-3.36,1.04-.29,2.4-.9,2.14-2.37-.27-1.52-1.71-1.25-2.84-1.35-5.35-.45-10.59.91-15.89.99-13.3.18-26.47-1.78-39.63-3.21-23.2-2.51-46.25-6.54-69.72-2.79-12.25,1.96-23.79,6.07-34.5,11.91-13.95,7.61-24.77,19.4-36.39,30.03-12.96,11.85-25.77,23.63-40.75,33.24-17.1,10.97-35.77,17.2-54.91,22.55-11.3,3.16-22.78,5.77-34.52,7.01-12.02,1.27-23.98,3.24-36.02,4.11-12.88.93-25.8,2.05-38.77.25-13.24-1.84-26.18-4.16-36.54-13.59-2.87-2.62-5.32-1.92-6.73,1.34-1.43,3.3-2.36,6.83-3.26,10.32-.36,1.39-.42,3.08,1.03,4.12,1.37.98,2.51-.14,3.68-.66,2.41-1.06,4.56-2.85,7.54-2.63ZM1206.85,1018.02c-.9-2.24-2.76-2.84-4.83-2.36-5.93,1.38-11.93.75-17.89.81-14.44.13-28.73,1.38-43,3.7-9.27,1.51-17.89,4.8-26.72,7.53-6.89,2.13-13.59,4.67-19.91,8.32-16.95,9.77-33,20.94-49.49,31.44-1.46.93-4.57,1.75-2.93,4.22,1.19,1.8,3.63.47,5.5-.28,4.61-1.85,8.82-4.56,13.62-6.02,16.3-4.95,32.07-11.42,48.52-16.02,16.56-4.64,32.57-11.17,48.99-16.34,14.51-4.57,29.25-8.4,43.89-12.55,1.59-.45,3.25-.73,4.25-2.45ZM1375.71,980.61c12.2-.5,21.87.5,31.28,3.64,1.59.53,3.47.84,4.85-.14,7.99-5.63,13.21-13.38,16.34-22.52.47-1.37.94-3.67-.77-4.57-2.15-1.14-3.29,1.08-4.32,2.42-1.91,2.49-3.46,5.25-5.29,7.82-.96,1.34-2.15,2.86-4.1,1.84-1.98-1.04-1.42-2.69-.6-4.3.44-.88.98-1.82,1.03-2.75.06-1.3-.5-2.29-2.16-1.63-2.03.81-4.75,3.32-6.13,1.13-1.98-3.12,2.13-4.58,3.67-6.73.29-.4.71-.7,1.04-1.08.86-.98,2.24-2.01,1.27-3.39-1.01-1.44-2.87-1.16-4.07-.35-2.51,1.71-5.35,2.64-8.08,3.84-1.53.67-3.26,2.59-4.83.42-1.49-2.06-.19-3.88,1.48-5.14,5.03-3.78,9.31-8.52,14.89-11.59,1.48-.81,3.05-1.66,2.92-3.64-.12-1.78-1.75-2.29-3.1-2.9-9.4-4.24-19.22-6.05-29.54-5.48-3.71.2-5.12,2.1-3.89,5.11,4.4,10.73-.51,20.05-4.17,29.49-2.5,6.46-7.63,11.16-12.29,16.11-1.02,1.09-2.31,2.13-1.42,3.86.73,1.41,2.13,1.66,3.45,1.23,4.9-1.58,9.92-.44,12.52-.69ZM975,1035.25c8.24-.59,16.57-1.91,24.93-4.43,13.73-4.13,22.68-14.54,33.38-22.68.79-.6,1.4-1.59.85-2.63-.78-1.46-2-.78-3.03-.32-5.62,2.56-11.76,3.24-17.65,4.8-15.99,4.25-32,8.4-47.97,12.73-5.44,1.47-10.75,3.35-16.42,3.88-1.6.15-2.92,1.1-3.14,2.73-.2,1.44,1.08,1.87,2.29,2.09,8.77,1.63,17.5,3.55,26.76,3.83ZM658.52,1127.43c17.84.24,31.23-7.02,44.82-13.46,11.58-5.49,21.23-14,31.87-20.97.89-.58,1.6-1.41,1.12-2.48-.69-1.55-1.89-.85-2.96-.42-14.7,5.93-29.46,11.68-44.64,16.28-9.47,2.87-18.65,6.63-28.47,8.49-7.46,1.41-14.56,4.51-22.2,5.34-1.67.18-3.43.82-3.14,3.07.2,1.6,1.53,1.99,2.95,2.13,7.58.73,15.17,1.48,20.65,2.02ZM1219.47,959.48c5.8-.28,12.98-.2,20.05-1.06,9.25-1.13,17.99-4.37,26.4-8.36,1.48-.7,3.68-2,2.83-4.11-.89-2.19-3.02-1.16-4.83-.82-11.22,2.12-22.17,5.54-33.61,6.67-6.58.65-13.12,1.82-19.68,2.74-1.73.24-3.63.67-3.46,2.72.13,1.61,1.86,2.2,3.48,2.22,2.5.03,5,0,8.83,0Z"/>
  <path class="cls-13" d="M801.61,1370.32c.33,0,.66,0,.99,0,7.63.07,14.99-2.11,22.59-2.58,6.13-.38,12.47.95,18.49-1.84,3.27-1.52,7.01-1.81,10.71-1.64,1.74.08,3.69.65,5.19-.91l3.98-.02c6.43.05,12.48-2.43,19.07-2.19,9.84.36,19.26-3.24,28.93-4.78,9.53-2.59,19.5-2.55,29.06-5.34,8.01-2.34,16.46-3.2,24.72-4.65,1.3-.23,2.95.37,3.94-.24,6.91-4.26,15.16-2.9,22.44-5.6,2.6-.97,5.45-1.48,8.33-1.19,2.89.29,5.43-.85,8.15-1.72,6.82-2.18,13.69-4.35,20.85-5.28,1.14-.15,2.39-.11,3.4-.57,7.55-3.45,15.57-5.05,23.65-6.62,4.32-.84,8.25-3.02,12.59-4.2,9.91-2.71,19.87-5.47,29.7-8.6,8.2-2.62,16-6.45,24.52-8.3,4.18-.91,8.06-3.29,12.46-4.39,9.34-2.33,18.4-6.02,27.13-9.89,9.79-4.34,19.66-8.53,29.62-12.38,11.65-4.5,22.74-10.1,33.92-15.51,13.62-6.59,27.22-13.23,40.57-20.44,11.56-6.24,23.27-12.38,34.4-19.27,8.53-5.29,17.48-9.96,25.57-16.09,8.52-6.45,18.05-11.55,26.76-17.77,19.14-13.65,38.15-27.5,56.09-42.73,4.01-3.4,7.29-7.67,11.55-10.93-3.16,6.22-7.91,11.09-13.12,15.37-16.13,13.26-32.37,26.38-49.5,38.35-1.62,1.13-3.39,2.14-3.97,4.26-3.08,4.21-8.2,5.48-12.17,8.42-17.35,12.87-36.14,23.46-54.68,34.45-5.82,1.88-11.6,3.94-16.74,7.27-9.21,5.96-18.88,11.25-28.84,15.53-17.2,7.39-33.44,16.8-51.1,23.21-13.18,4.78-25.92,10.76-39.03,15.78-11.58,4.44-23.4,8.22-35.08,12.4-16.51,5.91-33.15,11.4-50.2,15.56-9.45,2.31-18.81,5.04-28.17,7.61-10.79,2.97-21.65,5.69-32.46,8.56-10.84,2.88-22.05,3.83-32.94,6.7-11.77,3.1-23.87,4.96-35.85,7.22-10.86,2.05-21.99,3.04-32.67,5.52-15.11,3.51-30.46,4.28-45.68,6.15-16.39,2.01-32.75,4.45-49.29,5.61-21.29,1.5-42.47,4.46-63.87,4.73-3.34.36-6.83-.98-10.03.91-13.61,1.63-27.29.79-40.94,1.05-19.99,0-39.98,0-59.97,0-11.08-.15-22.1-.26-33.18-1.79-16.44-2.26-31.79-7.43-46.71-14.31-1.26-2.91-4.47-3.23-6.68-4.86-6.03-4.44-10.4-10.65-16.47-14.99,0,0,0,.07,0,.07.18-1.98-1.16-3.3-2.03-4.86-4.95-8.83-10.94-17.3-9.87-28.24.22-1.48-.51-3.21,1.46-5.17.28,5.43,3.3,9.51,2.58,14.44-.37,2.55.56,4.55,2.96,5.73,3.68,11.38,11.04,20.08,19.79,27.94,10.41,9.35,23.64,12.38,36.18,17.04,8.22.91,15.78,4.64,24.39,4.49,8.85-.15,17.73,2.22,26.61,2.37,21.96.38,43.94.12,65.91.13,3.81,0,7.48-.7,11.04-2h0c12.5-.06,25.04.47,37.48-.44,5.11-.37,10.55.84,15.49-1.56h0c12.15.22,24.09-3.39,36.31-2.12.52.05,1.12-.57,1.68-.87Z"/>
  <path class="cls-4" d="M734.64,972.5c-4.62,3.51-10.02,5.27-15.41,7.13-2.75.95-5.47,2.37-7.88,3.8-6.03,3.58-12.65,6.39-18.9,8.82-6.75,2.63-13.14,6.19-20.07,8.47-5.38,1.78-10.51,4.73-15.41,7.54-6.26,3.59-13.14,5.55-19.38,9.02-7.68,4.26-15.73,7.86-23.3,12.29-5.93,3.47-12.47,5.71-18.23,9.33-15.34,9.63-31.64,17.72-46.27,28.51-11.19,8.25-22.63,16.21-31.98,26.6-6.85,7.62-12.7,16.02-18.49,24.51-4.43,6.5-7.57,13.82-9.71,20.68-6.15,19.66-9.52,39.94-4.75,60.87,1.4,6.13,2.77,12.39,4.2,18.55.86,3.68,3.09,7.13,4.44,10.85,3.88,10.67,10.74,19.51,18.54,27.66,3.47,3.63,7.59,6.41,11.69,9.24.02,1.12.19,2.28-.96,3.02-1.83-.11-2.75-1.7-4.13-2.51-2.8-1.64-4.43-4.98-7.99-5.47-10.24-9.54-17.73-20.74-22.9-33.9-6.68-17.01-10.36-34.36-9.66-52.6.52-13.57,3.5-26.59,8.32-39.34,11.99-31.75,34.94-53.96,62.15-72.58,2.31-1.58,4.67-3.1,7-4.65,5.77-1.97,10.97-5.1,16.04-8.33,13.62-8.69,27.77-16.36,42.19-23.62,8.55-4.3,16.55-9.87,25.39-13.39,12.01-4.78,23.18-11.2,35.01-16.28,16.21-6.96,32.38-14.03,48.37-21.47,4.92-2.29,9.58-5,15.04-5.79,1.2.3,2.63.68.64,1.86-1.03.61-2.66-.16-3.57,1.16Z"/>
  <path class="cls-2" d="M694.65,1379.32c13.65-.26,27.33.58,40.94-1.05,3.34-.34,6.83.97,10.03-.91,21.39-.27,42.58-3.23,63.87-4.73,16.55-1.17,32.9-3.61,49.29-5.61,15.22-1.86,30.57-2.64,45.68-6.15,10.67-2.48,21.81-3.47,32.67-5.52,11.98-2.27,24.08-4.12,35.85-7.22,10.89-2.87,22.09-3.81,32.94-6.7,10.81-2.88,21.67-5.6,32.46-8.56,9.36-2.57,18.72-5.3,28.17-7.61,17.05-4.16,33.69-9.66,50.2-15.56,11.68-4.18,23.51-7.97,35.08-12.4,13.1-5.02,25.84-11,39.03-15.78,17.66-6.41,33.91-15.82,51.1-23.21,9.96-4.28,19.64-9.57,28.84-15.53,5.14-3.33,10.92-5.39,16.74-7.27-1.03,2.18-3.26,2.8-5.17,3.65-12.95,5.75-24.57,14.13-37.54,19.65-18.81,8.02-36.57,18.26-55.91,25.21-14.68,5.28-28.71,12.48-43.52,17.51-22.21,7.54-44,16.43-66.69,22.44-26.54,7.03-52.7,15.56-79.66,20.9-39.82,7.88-79.44,17.01-119.82,21.77-39.51,4.66-78.98,9.64-118.72,12.13-47.57,2.97-95.17,4.22-142.8,2.27-20.84-.85-40.77-6.05-59.83-14.53-1.62-.72-3.49-1.26-4.44-3.03.45-.07.89-.15,1.34-.22,14.92,6.88,30.27,12.04,46.71,14.31,11.08,1.53,22.1,1.64,33.18,1.79,1,1.2,2.38.96,3.68.96,17.54,0,35.07,0,52.61,0,1.3,0,2.68.25,3.68-.96Z"/>
  <path class="cls-2" d="M510.62,1261.43c3.56.49,5.19,3.83,7.99,5.47,1.38.81,2.29,2.4,4.13,2.51,4.28,3.2,3.47,7.27,1.35,11.02-4.31,7.6-4.33,16.04-5.28,24.3-.21,1.84-.75,3.98.92,5.63-1.07,10.94,4.92,19.41,9.87,28.24.87,1.56,2.21,2.88,2.03,4.86-15.21-19.29-19.1-40.31-9.06-63.13,2.14-4.85,1.84-7.78-2.85-10.68-3.43-2.12-6.79-4.68-9.1-8.21Z"/>
  <path class="cls-3" d="M554.79,1363.23c-.45.07-.89.15-1.34.22-8.64-5.21-16.26-11.52-21.82-20.07,6.07,4.35,10.44,10.55,16.47,14.99,2.21,1.63,5.42,1.96,6.68,4.86Z"/>
  <path class="cls-6" d="M502.82,1180.54c-.18-13.86,2.14-24.79,5.63-35.65,4.19-13.04,12.76-22.9,21.23-33.16,13.41-16.22,30.85-27.31,48.08-38.39,19.62-12.62,40.28-23.65,60.92-34.62,12.17-6.47,24.83-11.86,37.11-18.08,23.07-11.68,46.92-21.77,70.92-31.24,18.63-7.35,37.07-15.41,56.21-21.42,21.68-6.81,42.63-15.74,64.5-21.99,16.26-4.65,32.3-10.07,48.6-14.53,9.74-2.66,19.4-5.6,29.36-7.58,16.11-3.2,31.99-7.54,47.94-11.5,18.04-4.48,36.25-8.01,54.62-10.89,15.56-2.44,30.96-5.88,46.52-8.34,18.17-2.88,36.4-5.38,54.65-7.79,24.21-3.2,48.58-4.41,72.87-6.37,20.83-1.68,41.6-4.57,62.58-4.44,14.83.09,29.12,2.78,42.78,8.28,6.44,2.6,10.65,8.38,14.85,13.73,1.42,1.8,2.55,3.86,4.1,5.61,1.1,1.24,1.31,2.72.46,4.15-.81,1.36-2.28,1.35-3.58,1.1-15.41-2.96-28.2,2.66-40.22,11.68-5.48,4.12-12.58,4.37-19.04,5.09-13,1.46-25.26,5.62-37.72,9-17.92,4.86-35.7,10.28-53.53,15.48-1.91.56-3.81,1.2-5.66,1.94-7.02,2.8-13.85,3.66-21.68,2.35-19.32-3.25-38.91-5.04-58.34-.42-9.86,2.35-19.24,5.99-27.79,11.7-7.07,4.72-13.8,9.79-19.83,15.78-1.46,1.45-3.3,2.04-5.3,2.53-15.62,3.83-31.19,7.81-46.39,13.2-14.21,5.04-28.54,9.75-43.1,13.84-13.08,3.68-26.05,7.95-38.37,13.85-2.62,1.25-5.04,1.29-7.69.49-16.43-4.99-33.19-8.19-50.4-8.33-17.46-.14-33.61,4.9-49.35,12.24-18,8.39-33,20.9-48.07,33.33-5.33,4.39-11.67,4.66-17.66,6.11-26.15,6.35-51.56,14.97-77.03,23.57-11.42,3.85-23.25,6.69-34.73,10.5-9.29,3.09-18.42,6.62-27.6,10.02-6.54,2.42-12.8,4.59-20.25,3.3-11.17-1.94-21.97,1.61-32.84,4.11-7.7,1.77-14.46,4.53-20.05,10.17-5.18,5.23-7.77,11.47-7.66,18.77.05,3-.72,5.44-2.77,7.7-14.76,16.25-18.78,35.18-12.73,55.98,4.07,13.99,11.46,26.01,24.82,33.36,2.47,1.36,3.49,3.04.6,5.3-2.62,2.05-4.88,4.47-6.81,7.25-1.46,2.1-3.69,2.96-5.09.11-3.47-7.06-8.67-12.96-12.68-19.67-6.78-11.35-9.71-23.86-12.63-36.49-1.77-7.66-2.5-15.38-2.77-20.75Z"/>
  <path class="cls-14" d="M815.58,1074.44c-17.06,10.52-32.06,23.6-46.64,37.22-16.11,15.05-33.77,27.97-53.33,38.18-11.47,5.98-24.13,8.37-36.52,11.48-18.59,4.66-37.54,6.9-56.63,8.19-10.44.7-20.87,2.13-31.34,1.71-10.59-.43-20.97-2.01-28.59-10.68-.77-.87-1.49-1.79-2.22-2.69-2.78-3.41-7.52-6.58-5.24-11.51,2.8-6.06,7.88-10.08,14.99-11.05,17.86-2.42,35.04.38,51.96,6.06,10.41,3.49,21.06,6.12,32.05,7.06,18.44,1.57,35.39-3.34,52-11.03,17.9-8.29,33.1-20.29,47.89-32.88,18.58-15.82,35.97-33.15,56.26-46.82,13.78-9.29,28.71-16.74,45.38-19.67,11.42-2.01,22.82-1.04,34.15,1.01,14.74,2.67,28.92,7.73,43.54,10.67,25.78,5.19,51.83,9.73,77.73.65,9.98-3.5,18.19-10.08,26.13-17.01,14.35-12.51,25.62-27.97,39.66-40.74,12.26-11.15,26.67-17.84,43.11-20.11,19.02-2.63,37.8-.19,56.58,2.5,19.75,2.83,39.52,5.89,59.55,4.45,12.65-.91,24.59-4.02,36.19-9.92,15.34-7.8,26.4-20.53,39.43-30.95,8.99-7.18,18.06-13.69,30.3-13.02,11.08.6,17.8,9.97,15.44,20.83-2.33,10.74-8.58,18.44-17.29,24.66-8.55,6.11-17.27,12.16-27.23,15.4-14.18,4.62-28.57,8.78-43.58,10.05-26.27,2.22-52.59,1.02-78.87.71-21.82-.26-43.62-.31-64.93,4.45-16.18,3.62-31.77,9.34-46.14,18.2-14.83,9.14-29.45,18.59-44.1,28.01-5.11,3.29-11.15,5.12-16.77,7.62-.97.17-2.01.15-2.89.53-25.8,11.08-52.64,11.97-79.98,8.28-14.9-2.01-29.79-4.49-44.77-5.59-17.74-1.29-35.53-.6-52.64,5.13-7.91,2.65-15.66,5.85-22.63,10.61Z"/>
  <path class="cls-8" d="M549.02,1191.39c-2.98-.22-5.13,1.56-7.54,2.63-1.17.52-2.31,1.64-3.68.66-1.45-1.03-1.39-2.73-1.03-4.12.91-3.49,1.84-7.02,3.26-10.32,1.41-3.26,3.85-3.95,6.73-1.34,10.36,9.43,23.3,11.75,36.54,13.59,12.97,1.8,25.88.69,38.77-.25,12.04-.87,24-2.84,36.02-4.11,11.74-1.24,23.22-3.86,34.52-7.01,19.14-5.35,37.81-11.58,54.91-22.55,14.97-9.61,27.79-21.38,40.75-33.24,11.62-10.63,22.44-22.42,36.39-30.03,10.71-5.84,22.25-9.95,34.5-11.91,23.47-3.75,46.52.28,69.72,2.79,13.17,1.43,26.33,3.39,39.63,3.21,5.3-.07,10.54-1.44,15.89-.99,1.13.1,2.56-.18,2.84,1.35.27,1.47-1.1,2.08-2.14,2.37-4.29,1.2-8.73,1.95-12.94,3.36-17.59,5.86-35.07,12.02-52.67,17.83-30.85,10.18-61.77,20.12-92.62,30.3-14.44,4.77-28.8,9.72-43.34,14.19-18.03,5.55-35.58,12.64-53.57,18.3-21.02,6.62-41.63,14.54-62.75,20.73-23.87,6.99-46.94,16.22-70.74,23.38-13.13,3.95-25.71,9.75-36.96,17.9-3.12,2.26-5.65,1.75-7.51-1.41-1.19-2.02-2.37-3.99-4.05-5.64-1.34-1.31-1.73-2.95-.62-4.51,1.1-1.54,2.6-.98,4.05-.31,2.12.97,4.69,2.4,6.04-.58,1.48-3.27-1.59-4.14-3.77-5.3-1.17-.62-2.48-1.13-3.41-2.02-2.9-2.74-1.21-4.53,1.63-5.38,3.64-1.09,7.41-1.78,11.15-2.5,1.5-.29,3.16-.25,3.52-2.11.39-2.01-1.1-3.17-2.6-3.8-3.64-1.52-7.15-3.61-11.39-3.14-1.06.12-2.61.52-3.14-.78-.65-1.61.97-2.24,1.96-3.02,1.37-1.07,3.7-1.67,2.71-4.03-.9-2.15-3.06-2.31-5.03-2.18Z"/>
  <path class="cls-10" d="M931.55,1325.35h-9.44c1.49-3.44,4.09-3.65,6.88-4.07,11.4-1.71,22.72-3.8,33.34-8.58.22-.1.27-.56.39-.85-10.61.27-20.81,3.21-31.2,4.7-9.1,1.31-17.94,4.94-27.39,3.79-1.9-.23-3.54.57-5.26,1.27-4.34,1.76-8.87,2.79-13.56,2.69-4.85-.11-9.61-.03-14.1,2.21-1.14.57-2.61.92-3.85.75-9.31-1.3-18.04,2-26.99,3.4-2.49.39-4.93.72-7.4.64-7.68-.26-15.19,1.84-22.64,2.21-12.62.63-24.81,3.51-37.25,4.81-17.07,1.79-34.25,2.53-51.21,5.62-8.43,1.54-17.33.7-25.63,2.6-12,2.75-24.21.55-36.14,2.85-20.36,3.93-41.03,4.71-61.65,5.93-14.65.87-27-5.13-38.43-13.32-9.96-7.13-16.32-17.07-20.83-28.4-1.53-3.85-3.12-7.47-3.55-11.72-1.25-12.32,6.15-21.08,12.37-30.07,7.74-11.2,19.47-17.61,31.25-23.9,6.73-3.6,13.76-6.48,20.71-9.49,5.26-2.28,11.09-3.22,16.57-5.04,8.37-2.77,16.75-5.47,24.95-8.77,7.9-3.18,16.12-5.54,24.22-8.23,13.57-4.5,27.5-7.82,40.83-13.2,10.65-4.3,21.67-8.05,32.69-11.04,9-2.45,18-5.08,26.62-8.32,8.1-3.04,16.42-5.69,24.53-8.62,5.46-1.98,11.07-4.59,17.38-5.31,4.93-.56,10.52-2.02,15.33-4.98,3.56-2.19,7.9-3.79,12.04-4.23,5.74-.61,10.33-3.96,15.78-5.33,6.61-1.66,12.98-4.83,19.71-6.33,9.05-2.02,17.19-6.66,26.06-8.79,8.49-2.03,16.25-5.9,24.58-8.3,6.04-1.74,12.18-3.93,18.25-5.7,8.19-2.39,15.71-6.82,24.3-7.86,4.2-.51,7.67-3.07,11.42-4.63,5.49-2.28,11.29-3.66,16.83-5.49,5.2-1.72,10.68-3.28,16-4.91,5.41-1.65,11.08-2.57,16.13-5.59,3.63-2.17,8.21-2,12.15-4.01,10.24-5.22,21.83-6.41,32.57-10.36,9.75-3.59,19.49-7.41,29.4-10.42,9.18-2.78,17.85-7.43,27.85-7.83,3.85-.15,7.54-2.92,11.37-4.3,4.87-1.75,10.32-2.31,14.75-5.51,2.65-1.92,6.24-1.62,9.33-2.57,9.34-2.85,18-8.19,28.14-8.33.95-.01,2.04-.26,2.81-.78,5.94-4.01,13.18-3.82,19.63-6.17,4.93-1.79,9.75-3.85,14.95-5.03,7.01-1.58,14.19-3.24,20.62-6.29,5.45-2.59,10.84-2.28,16.37-2.9,3.55-.4,6.58-2.86,9.9-4.22,6.63-2.71,14.01-1.85,20.43-5.74,3.67-2.22,8.86-2.51,13.19-3.26,6.89-1.19,13.61-3.15,20.19-4.99,7.16-2.01,14.45-1.76,21.49-3.42,10.89-2.57,21.89-3.07,33.04-3.37,7.91-.21,14.11,2.71,19.38,7.45,8.53,7.66,15.39,16.36,18.89,28.01,3.75,12.51,3.17,23.92-.68,36.23-3.3,10.54-7.59,20.11-14.64,28.51-.67-.67-1.33-1.33-2-2,7.26-10.7,13.72-21.63,15.28-34.95,1.58-13.51,1.13-26.46-6.44-38.31-7.92-12.4-17.36-21.69-33.92-20.88-16.72.82-33.1,3.37-49.45,6.53-7.12,1.38-14.32,2.86-21.15,5.01-11.93,3.77-24.22,6.1-36.11,9.96-6.1,1.98-12.69,2.66-18.78,4.24-7.56,1.96-15.08,4.65-22.7,6.88-15.31,4.48-30.09,10.55-45.8,14-11.04,2.43-21.59,7.07-32.34,10.77-9.21,3.17-18.2,7.24-27.64,9.4-12.79,2.93-24.7,8.24-37.15,12.05-10.73,3.28-21.27,7.16-32.03,10.4-10.38,3.12-20.58,6.85-30.83,10.39-4.97,1.72-9.82,3.83-14.83,5.42-13.49,4.27-27.1,8.19-40.55,12.57-11.42,3.72-22.64,8.02-34.03,11.82-6.52,2.17-13.2,3.83-19.69,6.17-12.14,4.38-24.4,8.46-36.66,12.49-8.27,2.72-16.81,4.68-24.92,7.79-12.52,4.8-25.31,8.79-37.97,13.15-13.24,4.56-26.66,8.59-39.93,13.07-10.12,3.42-19.91,8.09-30.24,10.57-9.84,2.36-19.21,5.89-28.79,8.89-13.26,4.16-26.08,9.59-39.52,13.23-15.17,4.11-29.78,9.87-44.55,15.15-14.45,5.16-29.46,8.65-43.5,15.08-15.45,7.08-30.43,14.73-40.18,29.45-5.1,7.69-10.77,15.24-9.22,25.48.63,4.18,2.23,7.92,3.75,11.78,6.11,15.48,16.74,26.31,32.3,32.27h0c6.77,4.08,14.38,5.78,21.99,5.64,10.39-.19,20.75-1.69,31.12-2.62,6.09-.55,12.19-1.05,18.27-1.67,10.69-1.08,21.36-2.62,32.07-3.23,10.93-.61,21.63-2.89,32.52-3.72,9.22-.7,18.35-2.93,27.55-3.19,11.48-.32,22.7-2.46,34.06-3.52,13.3-1.24,26.54-3.37,39.86-4.68,9.21-.9,18.41-1.9,27.6-2.97,6.72-.78,13.4-2.09,20.09-2.82,13.47-1.48,26.85-3.58,40.19-5.74,12.15-1.97,24.35-3.77,36.46-6.15,12.43-2.44,25.14-3.8,37.7-5.67,16-2.37,31.8-6.21,47.53-10.06,4.22-1.03,9.02-.6,12.72-3.61h-.02c6.45-1.21,13.08-1.71,19.02-4.88,2.72.63,4.51-1.78,6.94-2.1,2.47.29,5.09-.44,8.9,1.11-5.28,1.59-9.33,2.65-12.83,4.96-5.85,1.84-11.74,3.58-17.55,5.48-18.78,6.14-38.1,10.33-56.98,16.11-9.34,2.86-18.64,5.99-28.38,7.39-7.73,1.41-15.68,1.79-23.02,5h0Z"/>
  <path class="cls-17" d="M1206.85,1018.02c-1,1.72-2.66,2-4.25,2.45-14.64,4.14-29.38,7.98-43.89,12.55-16.42,5.17-32.44,11.7-48.99,16.34-16.45,4.61-32.22,11.08-48.52,16.02-4.8,1.46-9.01,4.17-13.62,6.02-1.87.75-4.3,2.08-5.5.28-1.64-2.47,1.47-3.29,2.93-4.22,16.48-10.5,32.54-21.66,49.49-31.44,6.32-3.64,13.02-6.19,19.91-8.32,8.84-2.73,17.46-6.02,26.72-7.53,14.28-2.33,28.57-3.57,43-3.7,5.96-.05,11.96.58,17.89-.81,2.07-.48,3.92.12,4.83,2.36Z"/>
  <path class="cls-1" d="M734.64,972.5c.91-1.32,2.54-.55,3.57-1.16,1.99-1.18.56-1.56-.64-1.86,10.38-4.49,20.64-9.27,31.17-13.39,10.78-4.22,21.72-8.02,32.74-11.64,12.09-3.97,23.86-8.9,35.91-13.01,5.77-1.97,11.64-3.72,17.57-5.27,9.25-2.43,18.27-5.74,27.45-8.5,9.47-2.85,19.05-5.37,28.52-8.24,11.98-3.63,24.35-5.65,36.35-9.33,13.07-4.02,26.65-6.39,39.98-9.57,6.11-1.46,12.08-4.05,18.25-4.55,10.17-.82,19.88-3.62,29.82-5.34,10.41-1.8,20.78-3.88,31.21-5.54,14.02-2.24,27.94-4.97,42.06-6.68,11.29-1.37,22.49-3.5,33.85-4.32,14.04-1.01,27.95-3.28,41.94-4.81,14.48-1.58,29.06-2.18,43.47-4.32.82-.12,1.65-.29,2.47-.29,19.12-.07,38.22-1.99,57.35-1.05,19.7.96,38.98,4.29,55.9,15.17,13,8.36,19.91,20.96,21.7,36.3.17,1.45.36,3.56-1.41,3.82-2.29.34-2.44-1.98-2.43-3.52.15-14.47-8.21-24.37-18.16-33.18-2.54-2.25-6.45-3.29-9.31-5.05-5.04-3.1-11.1-2.59-15.85-5.98-1.96-1.4-4.68-.02-6.84-.73-22.76-7.41-46.17-2.94-69.26-3.61-8.6-.25-17.23,2.7-26.02,3.22-4.47.27-8.95.31-13.41.48-12.58.48-25.35,1.71-37.45,3.87-12.49,2.24-25.14,1.41-37.31,4.3-6.92,1.65-13.74,1.8-20.67,1.86-3.42.03-5.62,3.16-9.29,3.11-11.23-.14-22.23,2.74-33.18,4.5-8.55,1.38-17.62,2.48-25.97,5.71-.46.18-.95.52-1.4.48-10.76-.82-20.63,3.8-30.95,5.56-7.26,1.24-14.81,1.22-22.13,4.29-5.86,2.46-12.64,4.69-19.63,4.41-5.03-.2-9.4,2.93-14.12,4.29-6.6,1.91-13.9,1.47-19.94,5.41-.94.61-2.2.99-3.31,1.01-9.23.16-17.51,4.16-26.24,6.29-9.52,2.33-18.81,5.47-28.1,8.38-5.03,1.57-10.3,3.79-15.36,4.96-6.71,1.56-13.04,4.2-19.73,5.76-7.58,1.77-14.62,5.71-22.13,7.91-5.76,1.69-11.09,4.45-16.81,6.26-4.96,1.57-10.52,1.74-15.15,5.23-2.95,2.23-7.25,3.23-10.96,4.05-4.83,1.08-8.41,4.51-12.99,5.56-8.7,2.01-15.77,8.65-25.11,8.7Z"/>
  <path class="cls-9" d="M1375.71,980.61c-2.6.26-7.63-.89-12.52.69-1.33.43-2.73.18-3.45-1.23-.89-1.73.4-2.77,1.42-3.86,4.66-4.94,9.79-9.65,12.29-16.11,3.66-9.44,8.56-18.76,4.17-29.49-1.23-3,.18-4.9,3.89-5.11,10.32-.57,20.14,1.24,29.54,5.48,1.35.61,2.98,1.12,3.1,2.9.13,1.97-1.44,2.83-2.92,3.64-5.58,3.06-9.86,7.81-14.89,11.59-1.68,1.26-2.98,3.08-1.48,5.14,1.57,2.17,3.31.26,4.83-.42,2.72-1.2,5.56-2.12,8.08-3.84,1.19-.81,3.05-1.09,4.07.35.97,1.38-.41,2.41-1.27,3.39-.33.37-.75.68-1.04,1.08-1.54,2.15-5.64,3.61-3.67,6.73,1.38,2.19,4.1-.32,6.13-1.13,1.67-.67,2.23.33,2.16,1.63-.05.94-.58,1.88-1.03,2.75-.81,1.61-1.38,3.25.6,4.3,1.94,1.02,3.14-.49,4.1-1.84,1.82-2.56,3.37-5.33,5.29-7.82,1.02-1.33,2.16-3.55,4.32-2.42,1.71.9,1.24,3.2.77,4.57-3.13,9.15-8.35,16.89-16.34,22.52-1.39.98-3.26.67-4.85.14-9.4-3.15-19.08-4.14-31.28-3.64Z"/>
  <path class="cls-19" d="M954.56,1320.36c9.74-1.39,19.04-4.53,28.38-7.39,18.88-5.78,38.2-9.97,56.98-16.11,5.81-1.9,11.7-3.64,17.55-5.48,1.88.16,3.52-.61,5.26-1.16,7.54-2.38,15.05-4.96,22.75-6.73,6.31-1.45,12.37-3.43,18.32-5.88,1.01-.42,2.56-.9,2.08-2.31-.57-1.66-2.29-1.07-3.45-.76-3.02.81-5.94,2.01-8.97,2.78-10.67,2.72-21.37,5.34-32.05,7.99-2.43.32-4.22,2.73-6.94,2.1-6.41,1.35-13.13,1.52-19.02,4.89,0,0,.02-.01.02-.01-1.64.17-3.32.2-4.93.54-16.03,3.41-31.99,7.17-48.08,10.21-13.49,2.55-27.16,4.11-40.71,6.36-28.41,4.73-56.86,9.17-85.38,13.2-22.65,3.2-45.44,4.72-68.09,7.73-12.96,1.72-25.94,3.29-38.92,4.8-12.5,1.46-25.01,2.79-37.52,4.14-12.01,1.3-24.02,2.58-36.04,3.8-11.04,1.13-22.08,2.19-33.13,3.24-10.05.96-20.1,2.01-30.17,2.76-9.52.71-19.1,2.98-28.53-1.08-2.53-1.09-5.48-1.17-8.24-1.71,0,0,0,0,0,0-.34-.66-.68-1.32-1.03-1.98,7.1,1.62,14.22,4.65,21.29,4.53,10.53-.18,21.03-2.24,31.64-2.87,12.21-.73,24.37-2.43,36.55-3.65,11.21-1.12,22.5-1.65,33.61-3.39,12.94-2.03,26-2.72,38.97-4.46,16.4-2.2,32.98-3.1,49.36-5.41,16.9-2.39,33.91-3.53,50.82-5.74,13.95-1.82,27.9-3.58,41.82-5.61,13.43-1.96,26.79-4.37,40.22-6.31,18.02-2.6,35.93-5.86,53.91-8.7,16.44-2.6,32.8-6.23,49.09-10.05,25.95-6.09,52.11-11.19,77.63-19.04,2.66-.82,6.56-3.51,8.51.19,1.97,3.72-3.06,4.31-4.66,6.54-9,2.61-17.91,5.62-27.02,7.73-21.92,5.08-42.7,13.9-64.66,18.99-16.21,3.76-32.09,9.14-48.22,13.43-11.18,2.97-22.37,5.89-33.82,7.71-1.19.19-3.07.4-2.54,2.27.39,1.37,2.02.91,3.07.68,13.25-2.9,26.74-4.61,39.99-7.4,23.61-4.97,47.04-10.8,70.25-17.44,6.73-1.41,13.62-2.19,20.02-4.95l6.96-2.02c2.7-.51,5.53-.53,8-2,2.5-.64,5.08-1.06,7.06-2.94,4.64-1.35,9.28-2.7,13.93-4.04,3.04-.03,5.46-1.7,8.02-2.99.33,0,.65,0,.97-.04,3.04-.01,5.46-1.69,8.04-2.94,2.5-.11,4.32-2.43,6.94-2.12,2.56.2,4.94-.31,7.01-1.91,5.99-2.34,11.99-4.67,17.98-7.01,1.01.01,2.02.02,3.03.03-6.77,4.74-14.66,7.16-22.35,9.41-21.18,6.18-41.66,14.52-62.99,20.16-13.92,3.68-28,6.73-41.87,10.56-14.87,4.1-29.91,7.4-44.94,10.76-5.98,1.34-12,2.36-18.08,3.18-7.51,1.02-14.98,2.56-22.36,4.34-12.1,2.92-24.51,3.87-36.67,6.38-1.21.25-2.97.65-3.32-1.15-.38-1.94,1.26-2.27,2.79-2.73,9.35-2.82,18.81-5.18,28.38-7.09,1.58-.32,3.29-.57,4.53-1.84,0,0,0,0,0,0,7.92-.51,15.63-2.02,23.02-5Z"/>
  <path class="cls-7" d="M1403.31,1096.45c.67.67,1.33,1.33,2,2-5.17,8.32-11.5,15.5-18.52,22.45-12.9,12.76-27.21,23.72-41.41,34.79-14.71,11.46-29.56,22.83-45.83,32.12-2.58,1.47-5.03,3.17-7.52,4.79-.41.26-1.1.86-1.04.96,2.93,5.32-3.37,5.74-4.64,8.79-13.97,6.21-27.45,13.51-41.84,18.76-19.11,6.98-38.15,14.21-58.06,18.7-1.23.28-2.49,1.07-3.56-.39,1.21-1.39,2.37-2.72,3.53-4.05,0,0,0,0,0,0,2.25-.49,4.69-.58,6.73-1.52,18.81-8.72,39.2-13.55,57.57-23.28,6.52-3.45,13.92-5.21,19.62-10.2,1.87.16,3.65-.1,5.27-1.11,11.96-7.45,23.92-14.94,35.61-22.74,19.11-12.75,37.33-26.88,54.92-41.66,13.65-11.47,27.43-23.05,37.16-38.41Z"/>
  <path class="cls-17" d="M975,1035.25c-9.26-.28-17.99-2.2-26.76-3.83-1.21-.22-2.49-.65-2.29-2.09.23-1.63,1.55-2.58,3.14-2.73,5.66-.53,10.98-2.4,16.42-3.88,15.97-4.33,31.98-8.48,47.97-12.73,5.89-1.57,12.02-2.24,17.65-4.8,1.02-.47,2.25-1.15,3.03.32.55,1.04-.06,2.03-.85,2.63-10.71,8.14-19.65,18.55-33.38,22.68-8.36,2.52-16.69,3.84-24.93,4.43Z"/>
  <path class="cls-12" d="M658.52,1127.43c-5.48-.54-13.06-1.29-20.65-2.02-1.42-.14-2.75-.52-2.95-2.13-.28-2.25,1.48-2.89,3.14-3.07,7.65-.83,14.74-3.93,22.2-5.34,9.83-1.85,19-5.61,28.47-8.49,15.18-4.6,29.94-10.35,44.64-16.28,1.07-.43,2.27-1.14,2.96.42.47,1.07-.23,1.9-1.12,2.48-10.64,6.96-20.3,15.48-31.87,20.97-13.59,6.44-26.98,13.7-44.82,13.46Z"/>
  <path class="cls-18" d="M1437.36,927.43c1.84,6.51,6.06,11.99,7.72,18.62,3.27,13.07.62,30.8-9.24,40.42-1.11,1.08-2.44,3.05-4.06,1.28-1.32-1.44.53-2.64,1.5-3.69,6.02-6.54,10.09-13.8,9.05-23.12-.2-1.81-.07-3.66-.02-5.49.43-15.17-6.72-26.3-18.59-34.93-9.85-7.17-21.37-9.26-33.04-9.76-6.22-.26-12.8.55-18.45,4.17-1.32.84-2.74.75-3.35-.76-.72-1.78.88-1.98,2.1-2.59,10.02-5.03,20.39-4.17,31.06-2.72,13.31,1.81,23.81,8.42,33.31,17.29.58.55,1.36.89,2.04,1.33,0,0-.02-.05-.02-.05Z"/>
  <path class="cls-11" d="M1219.47,959.48c-3.83,0-6.33.02-8.83,0-1.61-.02-3.35-.61-3.48-2.22-.16-2.05,1.73-2.48,3.46-2.72,6.56-.91,13.09-2.09,19.68-2.74,11.43-1.13,22.38-4.55,33.61-6.67,1.81-.34,3.94-1.36,4.83.82.86,2.11-1.35,3.41-2.83,4.11-8.4,3.99-17.14,7.23-26.4,8.36-7.07.86-14.25.78-20.05,1.06Z"/>
  <path class="cls-15" d="M815.58,1074.44c6.97-4.76,14.72-7.96,22.63-10.61,17.11-5.73,34.9-6.43,52.64-5.13,14.98,1.09,29.86,3.57,44.77,5.59,27.34,3.69,54.17,2.8,79.98-8.28.88-.38,1.92-.36,2.89-.53-2.07,3.31-5.86,3.62-9,4.77-16.19,5.92-33.03,9.04-50.21,8.01-15.49-.93-30.93-3.14-46.34-5.19-25.3-3.37-50.5-4.72-75.36,2.67-7.56,2.25-14.16,7.09-22.02,8.7Z"/>
  <path class="cls-5" d="M1186.41,1235.39c-1.16,1.33-2.32,2.67-3.53,4.05,1.07,1.46,2.32.67,3.56.39,19.91-4.5,38.95-11.72,58.06-18.7,14.39-5.25,27.87-12.56,41.84-18.76,3.21-1.59,6.41-3.22,9.64-4.77,1.91-.92,4.45-2.39,5.81-.31,1.58,2.42-1.62,3.12-3.01,4.15-4.19,3.11-8.54,6.01-13.45,7.94.89-2.9,5.2-2.85,5.73-6.79-5.51,1.69-10.16,4.23-14.82,6.75-11.59,6.15-23.88,10.75-35.87,16.02-3.32.06-6.39.83-8.97,3.05h-.01c-4.2,1.37-8.42,2.68-12.61,4.11-8.09,2.76-16.55,4.39-24.42,7.83h.01c-2.81.1-5.8-.49-8.02,1.99h0c-2.32-.69-6.43,1.92-6.68-2.17-.21-3.51,3.41-4.61,6.72-4.77Z"/>
  <path class="cls-3" d="M710.65,1375.32c-3.57,1.3-7.23,2-11.04,2-21.97-.01-43.94.25-65.91-.13-8.88-.15-17.76-2.52-26.61-2.37-8.61.15-16.18-3.58-24.39-4.49,4.34-.16,8.58-.03,12.73,1.69,5.65,2.35,11.82,1.56,17.7,2.07,26.55,2.27,53.2,1.3,79.79.94,5.94-.08,11.83-.27,17.74.29Z"/>
  <path class="cls-6" d="M1148.45,1273.39c-1.01-.01-2.02-.02-3.03-.03,6.45-4.79,14.4-6.47,21.57-9.5,9.79-4.14,20.08-7.34,29.57-12.21,12.17-6.23,25.04-10.94,36.99-17.63,6-3.36,12.49-5.82,18.76-8.69,0,0,.24.3.24.3-9.44,7.12-20.47,11.29-30.94,16.45-12.29,6.06-24.75,11.79-37.31,17.26-9.82,4.27-19.89,7.94-29.86,11.86-1.98.78-4,1.47-5.99,2.2Z"/>
  <path class="cls-3" d="M519.73,1310.35c-1.67-1.64-1.13-3.79-.92-5.63.95-8.26.97-16.69,5.28-24.3,2.12-3.75,2.93-7.82-1.35-11.02,1.16-.74.98-1.9.96-3.02,8.54,6.63,9.1,8.93,3.36,17.91-1.71,2.68-2.48,5.28-2.36,8.36.08,1.97.29,4.09-.28,5.91-2.92,9.29.51,17.95,2.3,26.78-2.4-1.18-3.33-3.19-2.96-5.73.72-4.93-2.3-9.01-2.58-14.44-1.97,1.96-1.23,3.68-1.46,5.17Z"/>
  <path class="cls-6" d="M1276.25,1209.33c4.66-2.52,9.3-5.07,14.82-6.75-.54,3.95-4.85,3.89-5.73,6.79-4.31,1.36-7.89,4.12-11.8,6.26-6.81,3.72-13.66,7.35-20.98,9.98,0,0-.24-.3-.24-.29.52-.39,1.01-.86,1.58-1.16,7.16-3.78,14.36-7.49,21.48-11.32,1.32-.71,4.55-1.37.86-3.5Z"/>
  <path class="cls-3" d="M859.59,1363.34c-1.5,1.56-3.45.99-5.19.91-3.71-.17-7.44.12-10.71,1.64-6.02,2.79-12.36,1.46-18.49,1.84-7.61.47-14.97,2.65-22.59,2.58,4.55-2.9,9.83-2.18,14.8-2.96,2.26-.36,4.7-.73,6.85-.62,11.98.62,23.31-4.99,35.33-3.41Z"/>
  <path class="cls-3" d="M763.62,1373.32c-4.95,2.4-10.38,1.18-15.49,1.56-12.44.91-24.98.39-37.48.44,5.88-1.87,12.05-1.55,18.04-1.84,11.62-.57,23.29-.16,34.93-.16Z"/>
  <path class="cls-3" d="M911.56,1356.34c-9.67,1.54-19.09,5.14-28.93,4.78-6.59-.24-12.64,2.24-19.07,2.19,2.77-2.51,6.29-2.88,9.72-2.94,9.12-.14,18.08-.74,26.9-3.58,3.48-1.12,7.56-.36,11.37-.45Z"/>
  <path class="cls-3" d="M801.61,1370.32c-.56.31-1.16.93-1.68.87-12.22-1.27-24.16,2.34-36.31,2.12,4.64-2.33,9.72-2.77,14.74-2.93,7.74-.26,15.5-.06,23.25-.06Z"/>
  <path class="cls-3" d="M694.65,1379.32c-1,1.2-2.38.96-3.68.96-17.54.01-35.07.01-52.61,0-1.3,0-2.68.24-3.68-.96,19.99,0,39.98,0,59.97,0Z"/>
  <path class="cls-3" d="M745.63,1377.35c-3.2,1.89-6.69.57-10.03.91,3.2-1.89,6.69-.55,10.03-.91Z"/>
  <path class="cls-2" d="M1403.31,1096.45c-9.73,15.37-23.51,26.94-37.16,38.41-17.59,14.79-35.82,28.92-54.92,41.66-11.69,7.8-23.66,15.29-35.61,22.74-1.62,1.01-3.4,1.28-5.27,1.11,1.02-1.42,3.5-.88,4.02-2.98,12.71-6.86,24.85-14.78,36.67-22.91,16.08-11.07,31.76-22.8,46.85-35.35,14.98-12.46,29.93-24.6,41.69-40.36,13.4-17.96,20.66-37.41,16.65-60.04-3.91-22.01-18.99-34.83-41.21-34.01-15.39.57-30.64,3.03-45.71,6.51-31.53,7.28-62.68,16-93.81,24.76-16.44,4.63-32.6,10.26-49.05,14.83-11.37,3.16-22.36,7.38-33.63,10.81-12.53,3.81-24.96,7.98-37.36,12.12-26.61,8.88-53.16,17.99-79.88,26.55-15.8,5.06-31.24,11.09-47.26,15.61-17.86,5.04-34.96,12.74-52.8,17.84-25.1,7.17-49.23,17.11-74.33,24.28-21.68,6.2-42.53,15.12-64.23,21.45-20.54,6-40.31,14.35-60.97,20.11-20.92,5.83-41.09,14.04-61.87,20.43-26.94,8.28-53.57,17.64-79.99,27.48-17.64,6.57-34.45,15.06-44.98,32.02-4.68,7.53-9.26,15.03-6.99,24.53,4.46,18.6,14.81,32.43,32.56,40.29.34.66.68,1.32,1.03,1.98-15.56-5.96-26.19-16.79-32.3-32.27-1.53-3.86-3.12-7.6-3.75-11.78-1.54-10.24,4.12-17.78,9.22-25.48,9.75-14.71,24.73-22.36,40.18-29.45,14.03-6.44,29.05-9.92,43.5-15.08,14.77-5.28,29.39-11.04,44.55-15.15,13.44-3.64,26.26-9.08,39.52-13.23,9.58-3,18.95-6.53,28.79-8.89,10.33-2.48,20.12-7.14,30.24-10.57,13.27-4.49,26.69-8.52,39.93-13.07,12.66-4.36,25.45-8.35,37.97-13.15,8.11-3.11,16.65-5.07,24.92-7.79,12.27-4.03,24.52-8.11,36.66-12.49,6.49-2.34,13.17-4,19.69-6.17,11.39-3.8,22.62-8.1,34.03-11.82,13.45-4.38,27.06-8.3,40.55-12.57,5.01-1.59,9.86-3.7,14.83-5.42,10.25-3.54,20.45-7.27,30.83-10.39,10.76-3.24,21.3-7.11,32.03-10.4,12.45-3.81,24.36-9.12,37.15-12.05,9.43-2.16,18.43-6.23,27.64-9.4,10.75-3.7,21.31-8.34,32.34-10.77,15.71-3.45,30.49-9.52,45.8-14,7.62-2.23,15.14-4.92,22.7-6.88,6.09-1.58,12.68-2.26,18.78-4.24,11.89-3.86,24.18-6.2,36.11-9.96,6.83-2.15,14.03-3.64,21.15-5.01,16.35-3.16,32.73-5.71,49.45-6.53,16.55-.82,26,8.48,33.92,20.88,7.57,11.84,8.02,24.8,6.44,38.31-1.56,13.32-8.02,24.25-15.28,34.95Z"/>
  <path class="cls-2" d="M575.72,1346.32c2.76.54,5.72.63,8.24,1.71,9.42,4.06,19.01,1.79,28.53,1.08,10.07-.75,20.12-1.81,30.17-2.76,11.05-1.05,22.09-2.12,33.13-3.24,12.02-1.23,24.03-2.51,36.04-3.8,12.51-1.35,25.02-2.68,37.52-4.14,12.98-1.52,25.96-3.08,38.92-4.8,22.65-3.01,45.45-4.53,68.09-7.73,28.53-4.03,56.97-8.47,85.38-13.2,13.55-2.26,27.22-3.82,40.71-6.36,16.1-3.04,32.06-6.81,48.08-10.21,1.61-.34,3.29-.37,4.93-.54-3.7,3.01-8.49,2.58-12.72,3.61-15.73,3.85-31.54,7.69-47.53,10.06-12.56,1.86-25.27,3.23-37.7,5.67-12.11,2.38-24.31,4.18-36.46,6.15-13.34,2.16-26.72,4.26-40.19,5.74-6.69.74-13.37,2.04-20.09,2.82-9.19,1.07-18.39,2.06-27.6,2.97-13.32,1.31-26.56,3.44-39.86,4.68-11.36,1.06-22.59,3.2-34.06,3.52-9.21.26-18.34,2.49-27.55,3.19-10.89.83-21.59,3.11-32.52,3.72-10.72.6-21.38,2.15-32.07,3.23-6.09.61-12.18,1.12-18.27,1.67-10.37.94-20.73,2.43-31.12,2.62-7.61.14-15.23-1.56-21.99-5.64Z"/>
  <path class="cls-2" d="M1061.41,1285.32c10.69-2.65,21.38-5.27,32.05-7.99,3.03-.77,5.94-1.97,8.97-2.78,1.16-.31,2.88-.9,3.45.76.48,1.41-1.07,1.89-2.08,2.31-5.95,2.45-12.01,4.43-18.32,5.88-7.69,1.77-15.21,4.35-22.75,6.73-1.74.55-3.39,1.32-5.26,1.16,3.5-2.31,7.56-3.38,12.83-4.96-3.81-1.55-6.42-.82-8.9-1.11Z"/>
  <path class="cls-2" d="M954.56,1320.36c-7.39,2.98-15.1,4.48-23.02,5,7.34-3.21,15.29-3.59,23.02-5Z"/>
  <path class="cls-2" d="M1035.44,1292.31c5.89-3.38,12.61-3.55,19.02-4.89-5.94,3.17-12.58,3.67-19.02,4.89Z"/>
  <path class="cls-6" d="M574.69,1344.34c-17.75-7.86-28.1-21.68-32.56-40.29-2.28-9.5,2.31-17,6.99-24.53,10.53-16.96,27.34-25.45,44.98-32.02,26.42-9.84,53.05-19.19,79.99-27.48,20.79-6.39,40.96-14.6,61.87-20.43,20.66-5.76,40.42-14.12,60.97-20.11,21.7-6.33,42.55-15.25,64.23-21.45,25.1-7.18,49.24-17.12,74.33-24.28,17.84-5.09,34.95-12.8,52.8-17.84,16.02-4.52,31.46-10.55,47.26-15.61,26.72-8.56,53.26-17.67,79.88-26.55,12.4-4.14,24.83-8.31,37.36-12.12,11.27-3.42,22.26-7.65,33.63-10.81,16.46-4.57,32.61-10.2,49.05-14.83,31.13-8.76,62.28-17.48,93.81-24.76,15.07-3.48,30.32-5.95,45.71-6.51,22.23-.82,37.3,12,41.21,34.01,4.02,22.63-3.24,42.08-16.65,60.04-11.76,15.76-26.71,27.9-41.69,40.36-15.09,12.56-30.77,24.29-46.85,35.35-11.82,8.14-23.96,16.06-36.67,22.91-2.33-.26-4.17.98-6.01,2.06-17.2,10.02-35.62,17.25-54.25,24.08-9.42,3.45-18.86,6.98-27.69,11.86,0,0,0,0,0,0-3.31.16-6.92,1.26-6.72,4.77.24,4.09,4.36,1.48,6.68,2.16-.6,1.02-1.61,1.01-2.61,1.09-1.31.11-3.03.15-2.72,1.99.25,1.5,1.91.93,2.98.96,4.64.13,9.29.4,13.45-2.42.99-.67,2.74-1.3,3.36.44.49,1.39-1.1,1.86-2.11,2.29-6.49,2.79-12.86,5.93-19.53,8.19-11.38,3.86-22.23,9-33.37,13.41-13.75,5.44-27.32,11.29-42.37,12.08,1.6-2.23,6.63-2.81,4.66-6.54-1.96-3.69-5.85-1-8.51-.19-25.52,7.85-51.69,12.95-77.63,19.04-16.29,3.82-32.64,7.45-49.09,10.05-17.97,2.84-35.89,6.1-53.91,8.7-13.43,1.94-26.79,4.36-40.22,6.31-13.92,2.03-27.87,3.78-41.82,5.61-16.9,2.21-33.92,3.35-50.82,5.74-16.38,2.32-32.96,3.21-49.36,5.41-12.96,1.74-26.02,2.43-38.97,4.46-11.11,1.74-22.4,2.27-33.61,3.39-12.19,1.22-24.34,2.93-36.55,3.65-10.61.63-21.11,2.7-31.64,2.87-7.07.12-14.19-2.91-21.29-4.53Z"/>
  <path class="cls-16" d="M1103.44,1280.35c15.05-.79,28.62-6.65,42.37-12.08,11.15-4.41,21.99-9.55,33.37-13.41,6.67-2.26,13.04-5.4,19.53-8.19,1.01-.43,2.6-.91,2.11-2.29-.62-1.74-2.36-1.11-3.36-.44-4.16,2.81-8.81,2.55-13.45,2.42-1.06-.03-2.73.55-2.98-.96-.31-1.84,1.42-1.88,2.72-1.99,1-.09,2.01-.07,2.61-1.09,0,0-.01.01,0,.01,2.88.16,5.69.07,8.02-2,0,0-.01,0-.01,0,8.41-.68,16.33-3.57,24.24-6.06,4.33-1.36,9.72-1.4,12.79-5.87,0,0,.01,0,.01,0,3.42.26,6.48-.57,8.97-3.05,11.99-5.27,24.28-9.87,35.87-16.02,3.69,2.13.46,2.79-.86,3.5-7.13,3.83-14.32,7.55-21.48,11.32-.57.3-1.06.77-1.58,1.16-6.27,2.87-12.77,5.34-18.76,8.69-11.96,6.69-24.82,11.4-36.99,17.63-9.49,4.86-19.78,8.06-29.57,12.21-7.18,3.04-15.12,4.72-21.57,9.5-5.99,2.34-11.99,4.67-17.98,7.01-2.43.31-5.31-1.06-7.01,1.91-2.62-.31-4.45,2.01-6.94,2.11-3.15-.31-5.76.87-8.04,2.94-.32.03-.65.04-.97.04-3.23-.49-5.87.59-8.02,2.99-4.64,1.35-9.28,2.7-13.93,4.04-2.87-.26-5.62-.24-7.06,2.94-2.71.49-6.01-1.38-8,2-2.32.67-4.64,1.35-6.97,2.02-7.15-.28-13.66,2.06-20.02,4.95-23.21,6.64-46.64,12.47-70.25,17.44-13.25,2.79-26.74,4.5-39.99,7.4-1.05.23-2.68.69-3.07-.68-.53-1.87,1.35-2.08,2.54-2.27,11.45-1.82,22.64-4.73,33.82-7.71,16.13-4.29,32.01-9.67,48.22-13.43,21.96-5.09,42.74-13.91,64.66-18.99,9.12-2.11,18.02-5.13,27.02-7.73Z"/>
  <path class="cls-6" d="M1040.48,1306.33c6.37-2.9,12.87-5.23,20.02-4.95-6.4,2.77-13.29,3.54-20.02,4.95Z"/>
  <path class="cls-6" d="M1096.45,1290.37c2.15-2.4,4.79-3.48,8.02-2.99-2.56,1.29-4.98,2.97-8.02,2.99Z"/>
  <path class="cls-6" d="M1075.46,1297.35c1.44-3.18,4.19-3.2,7.06-2.94-1.98,1.88-4.57,2.3-7.06,2.94Z"/>
  <path class="cls-6" d="M1120.43,1282.28c1.7-2.97,4.58-1.61,7.01-1.91-2.07,1.61-4.45,2.11-7.01,1.91Z"/>
  <path class="cls-6" d="M1105.45,1287.34c2.28-2.07,4.89-3.25,8.04-2.94-2.58,1.25-5.01,2.93-8.04,2.94Z"/>
  <path class="cls-6" d="M1067.47,1299.35c1.99-3.38,5.29-1.51,8-2-2.46,1.47-5.29,1.49-8,2Z"/>
  <path class="cls-5" d="M1186.41,1235.39c8.83-4.88,18.27-8.41,27.69-11.86,18.63-6.82,37.05-14.06,54.25-24.08,1.84-1.07,3.69-2.32,6.01-2.06-.52,2.1-3,1.56-4.02,2.98-5.71,4.99-13.11,6.75-19.62,10.2-18.37,9.73-38.76,14.56-57.57,23.28-2.04.95-4.48,1.04-6.73,1.52Z"/>
  <path class="cls-6" d="M1231.39,1228.41c-3.07,4.46-8.46,4.51-12.79,5.87-7.91,2.49-15.83,5.37-24.24,6.06,7.87-3.44,16.33-5.08,24.42-7.83,4.18-1.42,8.4-2.73,12.61-4.1Z"/>
  <path class="cls-6" d="M1240.38,1225.35c-2.5,2.47-5.55,3.31-8.97,3.05,2.58-2.22,5.66-2.99,8.97-3.05Z"/>
  <path class="cls-6" d="M1194.38,1240.33c-2.32,2.07-5.14,2.16-8.02,2,2.22-2.48,5.21-1.89,8.02-2Z"/>
</svg>